<?xml version="1.0" encoding="utf-8"?>
<!-- Generator: Adobe Illustrator 16.0.0, SVG Export Plug-In . SVG Version: 6.00 Build 0)  -->
<!DOCTYPE svg PUBLIC "-//W3C//DTD SVG 1.1//EN" "http://www.w3.org/Graphics/SVG/1.1/DTD/svg11.dtd">
<svg version="1.1" id="Layer_1" xmlns="http://www.w3.org/2000/svg" xmlns:xlink="http://www.w3.org/1999/xlink" x="0px" y="0px"
	 width="197px" height="111px" viewBox="0 0 197 111" enable-background="new 0 0 197 111" xml:space="preserve">
<g>
	<defs>
		<ellipse id="SVGID_1_" cx="98.425" cy="54.823" rx="52.565" ry="52.317"/>
	</defs>
	<clipPath id="SVGID_2_">
		<use xlink:href="#SVGID_1_"  overflow="visible"/>
	</clipPath>
	<use xlink:href="#SVGID_1_"  overflow="visible" fill="none" stroke="#FFFFFF"/>
</g>
<circle fill="none" stroke="#FFFFFF" stroke-width="7" cx="98.425" cy="54.627" r="45.582"/>
<circle fill="none" stroke="#FFFFFF" cx="98.425" cy="54.627" r="42.408"/>
<g>
	<path fill="#FFFFFF" d="M71.171,82.051v0.93c0,0.201,0.022,0.325,0.066,0.374c0.06,0.069,0.15,0.104,0.271,0.104h0.123v0.087
		h-1.367v-0.087h0.12c0.066,0,0.124-0.011,0.173-0.032c0.049-0.022,0.088-0.056,0.117-0.1c0.031-0.05,0.047-0.165,0.047-0.346V80.92
		c0-0.199-0.021-0.324-0.063-0.375c-0.062-0.068-0.152-0.103-0.273-0.103h-0.12v-0.088h1.169c0.284,0,0.509,0.03,0.675,0.09
		c0.082,0.03,0.158,0.069,0.228,0.12c0.071,0.05,0.133,0.109,0.186,0.178c0.053,0.067,0.095,0.144,0.126,0.227
		c0.03,0.083,0.046,0.173,0.046,0.269c0,0.13-0.022,0.249-0.066,0.356s-0.108,0.2-0.192,0.277c-0.084,0.078-0.187,0.138-0.309,0.182
		c-0.123,0.043-0.262,0.064-0.419,0.064C71.551,82.117,71.372,82.095,71.171,82.051z M71.171,81.917
		c0.084,0.016,0.159,0.027,0.222,0.035s0.118,0.012,0.164,0.012c0.082,0,0.159-0.017,0.232-0.051c0.073-0.033,0.136-0.08,0.19-0.141
		s0.097-0.132,0.129-0.215s0.048-0.175,0.048-0.273c0-0.116-0.017-0.22-0.052-0.312s-0.082-0.17-0.144-0.233
		c-0.061-0.063-0.133-0.111-0.215-0.145c-0.082-0.033-0.171-0.05-0.267-0.05c-0.041,0-0.086,0.004-0.138,0.011
		c-0.051,0.008-0.108,0.019-0.17,0.034V81.917z"/>
	<path fill="#FFFFFF" d="M73.644,81.326v0.485c0.182-0.323,0.367-0.485,0.556-0.485c0.042,0,0.082,0.008,0.118,0.021
		c0.036,0.014,0.067,0.033,0.095,0.058c0.028,0.024,0.049,0.052,0.064,0.084c0.015,0.031,0.022,0.063,0.022,0.099
		c0,0.061-0.02,0.113-0.061,0.155c-0.041,0.042-0.089,0.063-0.146,0.063c-0.027,0-0.057-0.009-0.09-0.026
		c-0.033-0.017-0.065-0.035-0.098-0.055c-0.032-0.02-0.062-0.038-0.088-0.056c-0.027-0.017-0.047-0.025-0.061-0.025
		c-0.021,0-0.043,0.009-0.068,0.026c-0.025,0.019-0.051,0.043-0.078,0.075c-0.027,0.033-0.054,0.071-0.083,0.116
		c-0.028,0.044-0.056,0.094-0.083,0.146v1.033c0,0.064,0.004,0.122,0.012,0.174c0.008,0.052,0.024,0.096,0.05,0.132
		s0.064,0.063,0.114,0.083c0.05,0.021,0.117,0.03,0.2,0.03v0.084h-1.104v-0.084c0.069,0,0.125-0.005,0.169-0.015
		s0.079-0.028,0.104-0.057c0.025-0.028,0.042-0.068,0.052-0.121c0.009-0.052,0.014-0.122,0.014-0.208v-0.835
		c0-0.255-0.005-0.403-0.016-0.447c-0.021-0.093-0.073-0.139-0.158-0.139c-0.049,0-0.104,0.012-0.165,0.035l-0.023-0.085
		l0.652-0.264H73.644z"/>
	<path fill="#FFFFFF" d="M75.672,81.326c0.152,0,0.292,0.03,0.419,0.09c0.127,0.06,0.236,0.14,0.328,0.24s0.163,0.217,0.214,0.351
		c0.051,0.133,0.077,0.273,0.077,0.421c0,0.155-0.026,0.304-0.079,0.445c-0.052,0.143-0.125,0.269-0.22,0.378
		c-0.094,0.11-0.206,0.197-0.336,0.263c-0.13,0.064-0.273,0.098-0.428,0.098c-0.152,0-0.291-0.031-0.415-0.095
		c-0.125-0.062-0.232-0.146-0.321-0.25s-0.159-0.224-0.207-0.359c-0.049-0.135-0.073-0.274-0.073-0.418
		c0-0.146,0.025-0.289,0.075-0.429s0.121-0.264,0.213-0.373s0.201-0.196,0.329-0.262C75.375,81.359,75.517,81.326,75.672,81.326z
		 M75.6,81.479c-0.069,0-0.135,0.015-0.199,0.043c-0.064,0.029-0.12,0.076-0.169,0.142c-0.05,0.065-0.089,0.149-0.119,0.252
		s-0.044,0.228-0.044,0.375c0,0.152,0.016,0.298,0.048,0.438c0.032,0.14,0.077,0.263,0.136,0.368c0.059,0.106,0.13,0.19,0.214,0.253
		c0.084,0.063,0.178,0.095,0.281,0.095c0.075,0,0.145-0.015,0.208-0.044s0.119-0.076,0.166-0.141
		c0.047-0.065,0.083-0.151,0.11-0.258c0.027-0.107,0.04-0.238,0.04-0.394c0-0.154-0.015-0.301-0.045-0.438
		c-0.03-0.136-0.073-0.256-0.13-0.358s-0.128-0.184-0.212-0.243S75.706,81.479,75.6,81.479z"/>
	<path fill="#FFFFFF" d="M78.55,83.303c-0.105,0.11-0.208,0.188-0.307,0.236s-0.208,0.072-0.326,0.072s-0.229-0.026-0.335-0.079
		c-0.105-0.053-0.199-0.126-0.28-0.219c-0.081-0.094-0.145-0.204-0.193-0.333s-0.072-0.27-0.072-0.423
		c0-0.31,0.097-0.592,0.292-0.848c0.196-0.257,0.446-0.386,0.75-0.386c0.188,0,0.345,0.061,0.471,0.181V80.8
		c0-0.028,0.001-0.06,0.004-0.094c0.002-0.033,0-0.065-0.009-0.095c-0.008-0.03-0.023-0.055-0.047-0.074s-0.062-0.029-0.115-0.029
		c-0.042,0-0.096,0.013-0.162,0.037l-0.031-0.082l0.642-0.264h0.106v2.492c0,0.256,0.006,0.41,0.017,0.463
		c0.013,0.056,0.032,0.094,0.058,0.115c0.026,0.022,0.056,0.033,0.091,0.033c0.041,0,0.097-0.013,0.169-0.04l0.025,0.083
		l-0.64,0.266H78.55V83.303z M78.55,83.139v-1.111c-0.008-0.089-0.028-0.168-0.06-0.237c-0.032-0.069-0.071-0.127-0.117-0.175
		c-0.046-0.048-0.098-0.084-0.153-0.108s-0.112-0.037-0.168-0.037c-0.083,0-0.16,0.022-0.23,0.065
		c-0.071,0.043-0.132,0.104-0.185,0.184c-0.053,0.079-0.094,0.174-0.124,0.284s-0.044,0.233-0.044,0.368
		c0,0.158,0.019,0.299,0.058,0.421c0.039,0.123,0.089,0.226,0.152,0.309c0.062,0.083,0.134,0.146,0.214,0.188
		c0.08,0.042,0.162,0.063,0.245,0.063C78.278,83.353,78.417,83.281,78.55,83.139z"/>
	<path fill="#FFFFFF" d="M81.326,81.39v1.307c0,0.252,0.005,0.405,0.017,0.458c0.013,0.056,0.032,0.094,0.058,0.115
		c0.026,0.022,0.056,0.033,0.091,0.033c0.047,0,0.102-0.013,0.165-0.04l0.033,0.083l-0.645,0.266h-0.106v-0.457
		c-0.187,0.201-0.328,0.327-0.423,0.379c-0.097,0.052-0.2,0.078-0.309,0.078c-0.121,0-0.225-0.034-0.312-0.103
		s-0.15-0.159-0.186-0.271c-0.035-0.108-0.052-0.264-0.052-0.466v-0.963c0-0.07-0.006-0.128-0.018-0.172s-0.031-0.077-0.058-0.101
		s-0.062-0.039-0.105-0.047c-0.043-0.008-0.095-0.012-0.156-0.012h-0.028V81.39h0.755v1.442c0,0.104,0.01,0.188,0.029,0.252
		s0.046,0.114,0.079,0.149c0.033,0.035,0.071,0.059,0.114,0.07c0.043,0.012,0.088,0.019,0.135,0.019
		c0.033,0,0.069-0.005,0.107-0.015c0.039-0.01,0.08-0.025,0.123-0.05c0.043-0.023,0.09-0.055,0.14-0.094s0.105-0.089,0.165-0.148
		v-1.221c0-0.062-0.004-0.111-0.014-0.151c-0.009-0.041-0.027-0.073-0.053-0.097c-0.026-0.024-0.061-0.042-0.106-0.052
		c-0.044-0.011-0.102-0.017-0.173-0.018V81.39H81.326z"/>
	<path fill="#FFFFFF" d="M83.677,82.727c-0.03,0.143-0.075,0.269-0.134,0.379c-0.06,0.109-0.13,0.202-0.209,0.277
		c-0.08,0.075-0.168,0.132-0.264,0.171c-0.096,0.038-0.194,0.058-0.296,0.058c-0.121,0-0.236-0.026-0.346-0.08
		c-0.109-0.054-0.207-0.13-0.291-0.229c-0.083-0.099-0.151-0.219-0.201-0.358c-0.05-0.141-0.075-0.299-0.075-0.475
		c0-0.169,0.027-0.324,0.083-0.464c0.055-0.141,0.129-0.262,0.222-0.361c0.093-0.101,0.203-0.179,0.327-0.234
		s0.257-0.084,0.396-0.084c0.105,0,0.202,0.016,0.291,0.048c0.088,0.031,0.165,0.071,0.229,0.122
		c0.064,0.05,0.115,0.105,0.152,0.167c0.037,0.061,0.055,0.121,0.055,0.182c0,0.059-0.019,0.107-0.057,0.144
		c-0.038,0.037-0.092,0.056-0.162,0.056c-0.036,0-0.069-0.004-0.1-0.012s-0.058-0.021-0.08-0.042
		c-0.023-0.021-0.041-0.049-0.055-0.085s-0.023-0.082-0.028-0.139c-0.008-0.093-0.039-0.163-0.093-0.211s-0.131-0.071-0.229-0.071
		c-0.093,0-0.174,0.021-0.245,0.062c-0.071,0.041-0.13,0.098-0.179,0.169c-0.049,0.071-0.085,0.154-0.109,0.25
		c-0.024,0.095-0.037,0.195-0.037,0.302c0,0.126,0.016,0.247,0.048,0.363c0.032,0.117,0.078,0.221,0.139,0.312
		c0.06,0.092,0.134,0.164,0.22,0.22c0.086,0.055,0.185,0.082,0.294,0.082c0.066,0,0.128-0.008,0.188-0.024s0.117-0.045,0.172-0.086
		c0.055-0.041,0.108-0.098,0.159-0.169c0.051-0.071,0.1-0.161,0.147-0.271L83.677,82.727z"/>
	<path fill="#FFFFFF" d="M84.347,82.202c0,0.159,0.021,0.303,0.064,0.431c0.042,0.127,0.1,0.234,0.171,0.323
		c0.072,0.089,0.156,0.155,0.25,0.202c0.095,0.046,0.195,0.069,0.3,0.069c0.141,0,0.264-0.039,0.368-0.116
		c0.104-0.078,0.191-0.211,0.262-0.398l0.073,0.047c-0.017,0.104-0.05,0.208-0.099,0.311c-0.049,0.102-0.111,0.192-0.187,0.272
		s-0.165,0.145-0.266,0.194c-0.102,0.05-0.212,0.074-0.331,0.074c-0.128,0-0.25-0.026-0.363-0.079s-0.213-0.127-0.299-0.224
		s-0.153-0.213-0.204-0.351c-0.05-0.137-0.075-0.291-0.075-0.462c0-0.187,0.025-0.353,0.077-0.498
		c0.051-0.145,0.121-0.268,0.21-0.368c0.089-0.1,0.195-0.176,0.316-0.229c0.122-0.052,0.252-0.077,0.392-0.077
		c0.119,0,0.229,0.021,0.331,0.062c0.101,0.041,0.189,0.101,0.262,0.178c0.074,0.076,0.132,0.169,0.173,0.276
		s0.062,0.228,0.062,0.361H84.347z M84.347,82.065h0.998c-0.006-0.138-0.022-0.235-0.049-0.292
		c-0.039-0.088-0.098-0.156-0.175-0.207c-0.078-0.05-0.159-0.075-0.243-0.075c-0.064,0-0.126,0.013-0.186,0.039
		c-0.06,0.025-0.114,0.063-0.163,0.113c-0.048,0.049-0.089,0.108-0.121,0.18C84.375,81.894,84.355,81.975,84.347,82.065z"/>
	<path fill="#FFFFFF" d="M87.646,83.303c-0.105,0.11-0.208,0.188-0.307,0.236s-0.208,0.072-0.326,0.072
		c-0.118,0-0.229-0.026-0.335-0.079s-0.199-0.126-0.28-0.219c-0.081-0.094-0.145-0.204-0.192-0.333
		c-0.048-0.129-0.072-0.27-0.072-0.423c0-0.31,0.097-0.592,0.292-0.848c0.196-0.257,0.446-0.386,0.75-0.386
		c0.188,0,0.345,0.061,0.471,0.181V80.8c0-0.028,0.001-0.06,0.003-0.094c0.002-0.033,0-0.065-0.008-0.095
		c-0.008-0.03-0.023-0.055-0.047-0.074s-0.062-0.029-0.115-0.029c-0.042,0-0.097,0.013-0.163,0.037l-0.03-0.082l0.642-0.264h0.106
		v2.492c0,0.256,0.005,0.41,0.017,0.463c0.012,0.056,0.032,0.094,0.058,0.115c0.025,0.022,0.056,0.033,0.09,0.033
		c0.041,0,0.097-0.013,0.169-0.04l0.026,0.083l-0.64,0.266h-0.108V83.303z M87.646,83.139v-1.111
		c-0.008-0.089-0.028-0.168-0.06-0.237s-0.071-0.127-0.118-0.175s-0.097-0.084-0.153-0.108s-0.112-0.037-0.168-0.037
		c-0.083,0-0.16,0.022-0.23,0.065c-0.071,0.043-0.132,0.104-0.185,0.184c-0.053,0.079-0.094,0.174-0.124,0.284
		s-0.045,0.233-0.045,0.368c0,0.158,0.019,0.299,0.058,0.421c0.039,0.123,0.089,0.226,0.152,0.309
		c0.062,0.083,0.134,0.146,0.214,0.188c0.081,0.042,0.162,0.063,0.245,0.063C87.375,83.353,87.513,83.281,87.646,83.139z"/>
	<path fill="#FFFFFF" d="M91.813,81.917c0.13,0.028,0.241,0.066,0.333,0.115s0.167,0.106,0.225,0.172
		c0.058,0.066,0.101,0.139,0.127,0.218c0.026,0.079,0.04,0.163,0.04,0.251c0,0.078-0.013,0.156-0.039,0.233
		c-0.026,0.078-0.063,0.15-0.112,0.219s-0.108,0.131-0.178,0.187s-0.148,0.101-0.236,0.135c-0.174,0.065-0.441,0.099-0.8,0.099
		h-1.506v-0.087h0.12c0.132,0,0.228-0.042,0.287-0.127c0.036-0.055,0.054-0.172,0.054-0.351V80.92c0-0.196-0.022-0.321-0.068-0.375
		c-0.062-0.068-0.152-0.103-0.273-0.103h-0.12v-0.088h1.379c0.257,0,0.463,0.02,0.619,0.057c0.118,0.028,0.221,0.068,0.312,0.12
		s0.166,0.112,0.227,0.182c0.062,0.068,0.107,0.145,0.139,0.229c0.032,0.085,0.047,0.173,0.047,0.266
		c0,0.159-0.049,0.303-0.146,0.429S92.002,81.855,91.813,81.917z M90.58,81.79c0.119,0.022,0.267,0.033,0.444,0.033
		c0.23,0,0.402-0.024,0.515-0.073c0.058-0.025,0.11-0.057,0.154-0.097c0.045-0.039,0.082-0.083,0.112-0.132
		c0.03-0.048,0.053-0.101,0.068-0.157s0.023-0.115,0.023-0.177c0-0.091-0.019-0.178-0.058-0.26s-0.095-0.154-0.17-0.215
		c-0.076-0.062-0.169-0.11-0.28-0.146s-0.24-0.054-0.386-0.054c-0.16,0-0.301,0.018-0.423,0.052V81.79z M90.58,83.314
		c0.18,0.043,0.36,0.063,0.539,0.063c0.143,0,0.269-0.017,0.377-0.052c0.109-0.034,0.201-0.082,0.274-0.142
		c0.074-0.061,0.129-0.131,0.166-0.212c0.037-0.081,0.056-0.168,0.056-0.26c0-0.103-0.02-0.198-0.06-0.286
		c-0.04-0.089-0.101-0.166-0.184-0.23c-0.083-0.065-0.186-0.117-0.311-0.154c-0.125-0.038-0.272-0.057-0.441-0.057
		c-0.099,0-0.182,0.002-0.25,0.005s-0.124,0.009-0.166,0.017V83.314z"/>
	<path fill="#FFFFFF" d="M92.829,81.39h1.005v0.088h-0.05c-0.07,0-0.123,0.015-0.159,0.045c-0.035,0.031-0.053,0.069-0.053,0.114
		c0,0.062,0.026,0.146,0.078,0.255l0.524,1.087l0.482-1.19c0.027-0.066,0.04-0.13,0.04-0.19c0-0.02-0.002-0.036-0.007-0.05
		c-0.005-0.015-0.015-0.026-0.029-0.038c-0.015-0.011-0.037-0.019-0.066-0.024c-0.029-0.006-0.067-0.008-0.114-0.008V81.39h0.701
		v0.088c-0.041,0.004-0.075,0.01-0.102,0.018c-0.026,0.007-0.051,0.021-0.074,0.042c-0.023,0.021-0.045,0.053-0.066,0.094
		c-0.021,0.042-0.047,0.099-0.077,0.171l-0.877,2.15c-0.042,0.104-0.092,0.195-0.15,0.274s-0.12,0.145-0.184,0.197
		c-0.064,0.053-0.131,0.093-0.199,0.12c-0.068,0.027-0.134,0.041-0.197,0.041c-0.047,0-0.09-0.007-0.128-0.022
		c-0.039-0.015-0.072-0.034-0.1-0.059s-0.05-0.052-0.066-0.083c-0.016-0.032-0.023-0.064-0.023-0.099
		c0-0.066,0.021-0.119,0.064-0.159s0.103-0.061,0.178-0.061c0.017,0,0.042,0.005,0.077,0.015c0.034,0.009,0.068,0.019,0.104,0.029
		c0.035,0.01,0.067,0.02,0.095,0.029c0.028,0.01,0.046,0.014,0.054,0.014c0.023,0,0.048-0.005,0.074-0.016
		c0.026-0.012,0.053-0.03,0.08-0.057s0.055-0.063,0.083-0.109c0.028-0.047,0.057-0.104,0.085-0.173l0.153-0.374l-0.774-1.626
		c-0.008-0.018-0.021-0.041-0.039-0.069c-0.018-0.029-0.037-0.059-0.058-0.089c-0.021-0.029-0.041-0.057-0.061-0.082
		c-0.021-0.024-0.038-0.042-0.052-0.052c-0.033-0.025-0.091-0.047-0.174-0.065V81.39z"/>
	<path fill="#FFFFFF" d="M97.401,80.529v1.254h0.581c0.067,0,0.125-0.007,0.173-0.02c0.048-0.012,0.088-0.035,0.121-0.067
		c0.033-0.033,0.059-0.078,0.078-0.135c0.019-0.057,0.034-0.128,0.045-0.216h0.087v1.08h-0.087c-0.001-0.08-0.01-0.148-0.024-0.205
		c-0.014-0.057-0.037-0.103-0.068-0.139c-0.032-0.036-0.073-0.062-0.126-0.079s-0.119-0.024-0.199-0.024h-0.581v1.002
		c0,0.075,0.001,0.137,0.004,0.184c0.003,0.047,0.009,0.086,0.018,0.115c0.009,0.03,0.022,0.054,0.039,0.071
		c0.017,0.019,0.04,0.035,0.068,0.051c0.067,0.038,0.14,0.057,0.216,0.057h0.115v0.087h-1.369v-0.087h0.113
		c0.133,0,0.229-0.038,0.287-0.115c0.038-0.049,0.057-0.169,0.057-0.362V80.92c0-0.075-0.002-0.137-0.005-0.184
		c-0.003-0.048-0.009-0.086-0.018-0.117c-0.009-0.03-0.021-0.054-0.038-0.071c-0.016-0.018-0.039-0.034-0.067-0.05
		c-0.069-0.037-0.141-0.056-0.216-0.056h-0.113v-0.088h2.374v0.701h-0.051c-0.032-0.114-0.066-0.206-0.104-0.275
		c-0.039-0.068-0.086-0.122-0.142-0.159c-0.056-0.038-0.121-0.062-0.196-0.074s-0.165-0.018-0.269-0.018H97.401z"/>
	<path fill="#FFFFFF" d="M100.857,80.282c0.412,0,0.771,0.157,1.075,0.473c0.304,0.313,0.456,0.706,0.456,1.177
		c0,0.484-0.152,0.887-0.459,1.207c-0.306,0.319-0.676,0.479-1.11,0.479c-0.44,0-0.811-0.156-1.108-0.468
		c-0.298-0.312-0.446-0.717-0.446-1.212c0-0.507,0.172-0.92,0.517-1.24C100.081,80.421,100.439,80.282,100.857,80.282z
		 M100.812,80.454c-0.162,0-0.306,0.034-0.431,0.104c-0.125,0.068-0.231,0.167-0.316,0.295c-0.086,0.128-0.151,0.282-0.195,0.465
		c-0.045,0.182-0.067,0.386-0.067,0.611c0,0.225,0.022,0.43,0.066,0.616s0.108,0.348,0.194,0.481
		c0.085,0.134,0.19,0.238,0.316,0.313c0.125,0.074,0.27,0.111,0.435,0.111c0.147,0,0.284-0.028,0.411-0.085
		c0.126-0.056,0.235-0.144,0.328-0.263c0.093-0.118,0.165-0.269,0.218-0.452c0.052-0.184,0.078-0.402,0.078-0.656
		c0-0.243-0.021-0.46-0.064-0.651c-0.043-0.19-0.108-0.352-0.195-0.483c-0.087-0.131-0.195-0.232-0.324-0.302
		C101.136,80.488,100.984,80.454,100.812,80.454z"/>
	<path fill="#FFFFFF" d="M105.831,83.545h-0.852l-1.08-1.491c-0.041,0.001-0.077,0.003-0.109,0.003
		c-0.032,0.001-0.061,0.002-0.086,0.002c-0.021,0-0.043-0.001-0.066-0.002c-0.023,0-0.048-0.002-0.072-0.003v0.927
		c0,0.201,0.021,0.325,0.065,0.374c0.06,0.069,0.149,0.104,0.269,0.104h0.125v0.087h-1.367v-0.087h0.12
		c0.133,0,0.229-0.044,0.289-0.132c0.033-0.049,0.049-0.164,0.049-0.346V80.92c0-0.201-0.021-0.326-0.065-0.375
		c-0.061-0.068-0.152-0.103-0.272-0.103h-0.12v-0.088h1.162c0.336,0,0.585,0.025,0.748,0.075c0.08,0.024,0.155,0.06,0.225,0.106
		c0.07,0.047,0.131,0.103,0.184,0.167s0.094,0.137,0.125,0.217c0.03,0.079,0.046,0.165,0.046,0.256c0,0.1-0.016,0.191-0.047,0.276
		c-0.032,0.086-0.08,0.164-0.146,0.234c-0.064,0.07-0.146,0.132-0.245,0.184c-0.1,0.052-0.215,0.093-0.349,0.122l0.658,0.915
		c0.152,0.212,0.282,0.352,0.389,0.419c0.11,0.069,0.251,0.113,0.424,0.132V83.545z M103.565,81.905c0.029,0,0.056,0,0.077,0.001
		c0.022,0.001,0.04,0.001,0.055,0.001c0.151,0,0.285-0.018,0.4-0.053s0.212-0.084,0.289-0.146c0.076-0.062,0.134-0.138,0.173-0.223
		c0.038-0.086,0.058-0.179,0.058-0.278s-0.017-0.189-0.05-0.272c-0.033-0.082-0.08-0.153-0.14-0.213
		c-0.061-0.06-0.133-0.105-0.217-0.139s-0.176-0.05-0.276-0.05c-0.046,0-0.099,0.004-0.16,0.011s-0.131,0.019-0.209,0.034V81.905z"
		/>
	<path fill="#FFFFFF" d="M108.087,80.442v-0.088h1.13v0.088h-0.12c-0.126,0-0.222,0.052-0.29,0.157
		c-0.032,0.05-0.049,0.163-0.049,0.339v1.294c0,0.318-0.032,0.566-0.097,0.746c-0.041,0.114-0.099,0.212-0.174,0.293
		c-0.075,0.08-0.162,0.146-0.261,0.198c-0.1,0.052-0.208,0.09-0.326,0.114c-0.119,0.024-0.242,0.036-0.371,0.036
		c-0.347,0-0.61-0.06-0.793-0.181c-0.114-0.075-0.202-0.155-0.265-0.239c-0.062-0.084-0.107-0.176-0.136-0.277
		c-0.029-0.102-0.046-0.213-0.051-0.336s-0.007-0.264-0.007-0.42V80.92c0-0.1-0.007-0.18-0.021-0.243
		c-0.013-0.062-0.034-0.111-0.062-0.146s-0.063-0.058-0.106-0.07s-0.095-0.019-0.154-0.019h-0.12v-0.088h1.379v0.088h-0.122
		c-0.075,0-0.136,0.01-0.182,0.031c-0.045,0.021-0.08,0.052-0.104,0.093s-0.039,0.091-0.046,0.15
		c-0.007,0.061-0.011,0.128-0.011,0.203v1.391c0,0.078,0.003,0.155,0.007,0.232c0.005,0.077,0.015,0.15,0.028,0.223
		c0.015,0.071,0.034,0.139,0.058,0.202c0.024,0.063,0.057,0.122,0.096,0.175c0.061,0.085,0.144,0.152,0.246,0.201
		c0.103,0.05,0.234,0.074,0.394,0.074c0.104,0,0.203-0.012,0.298-0.036s0.182-0.059,0.261-0.102c0.08-0.043,0.148-0.094,0.206-0.152
		c0.059-0.06,0.103-0.124,0.132-0.194c0.062-0.143,0.092-0.384,0.092-0.723V80.92c0-0.201-0.021-0.326-0.065-0.375
		c-0.062-0.068-0.152-0.103-0.273-0.103H108.087z"/>
	<path fill="#FFFFFF" d="M112.683,80.282v1.104h-0.088c-0.027-0.212-0.079-0.381-0.152-0.506c-0.036-0.063-0.081-0.12-0.136-0.17
		c-0.054-0.05-0.112-0.093-0.176-0.128c-0.064-0.035-0.132-0.062-0.203-0.082c-0.071-0.021-0.143-0.03-0.215-0.03
		c-0.08,0-0.154,0.015-0.224,0.042s-0.129,0.063-0.18,0.109c-0.052,0.045-0.091,0.098-0.119,0.156s-0.042,0.119-0.042,0.183
		c0,0.087,0.02,0.164,0.061,0.229c0.041,0.064,0.097,0.124,0.169,0.18c0.071,0.055,0.154,0.108,0.251,0.16
		c0.097,0.051,0.201,0.107,0.314,0.167c0.127,0.067,0.248,0.133,0.362,0.197s0.216,0.135,0.302,0.213
		c0.088,0.078,0.157,0.166,0.209,0.266s0.077,0.22,0.077,0.359c0,0.119-0.024,0.232-0.074,0.34
		c-0.049,0.107-0.118,0.201-0.207,0.282c-0.088,0.081-0.194,0.146-0.317,0.193s-0.259,0.071-0.405,0.071
		c-0.056,0-0.103-0.001-0.142-0.002c-0.039-0.002-0.077-0.006-0.113-0.011c-0.036-0.006-0.073-0.015-0.111-0.026
		c-0.039-0.012-0.084-0.027-0.138-0.048c-0.037-0.015-0.076-0.027-0.115-0.039s-0.075-0.021-0.108-0.029
		c-0.032-0.008-0.061-0.014-0.083-0.019c-0.023-0.005-0.038-0.008-0.044-0.008c-0.039,0-0.07,0.013-0.093,0.036
		s-0.04,0.072-0.051,0.146h-0.087v-1.094h0.087c0.021,0.114,0.044,0.214,0.072,0.3c0.027,0.086,0.058,0.157,0.093,0.215
		c0.034,0.057,0.079,0.109,0.134,0.158s0.116,0.09,0.185,0.126c0.068,0.035,0.143,0.062,0.222,0.082s0.16,0.029,0.243,0.029
		c0.099,0,0.188-0.014,0.266-0.042c0.079-0.028,0.146-0.066,0.2-0.114s0.097-0.104,0.126-0.167s0.043-0.13,0.043-0.199
		c0-0.102-0.021-0.188-0.063-0.258c-0.042-0.069-0.099-0.132-0.17-0.187s-0.154-0.107-0.25-0.157c-0.095-0.051-0.194-0.107-0.3-0.17
		c-0.119-0.07-0.234-0.138-0.345-0.201s-0.208-0.133-0.293-0.209s-0.152-0.163-0.203-0.261c-0.051-0.097-0.076-0.213-0.076-0.348
		c0-0.113,0.023-0.221,0.07-0.322c0.047-0.103,0.112-0.191,0.195-0.269c0.083-0.076,0.182-0.138,0.295-0.183
		c0.114-0.045,0.238-0.066,0.373-0.066c0.166,0,0.346,0.041,0.539,0.124c0.084,0.039,0.146,0.059,0.186,0.059
		c0.041,0,0.074-0.012,0.1-0.036c0.026-0.024,0.047-0.073,0.062-0.146H112.683z"/>
	<path fill="#FFFFFF" d="M115.94,80.354v0.749h-0.054c-0.013-0.101-0.033-0.186-0.062-0.256c-0.028-0.069-0.066-0.126-0.114-0.169
		c-0.047-0.043-0.104-0.075-0.171-0.095c-0.068-0.02-0.146-0.029-0.236-0.029h-0.449v2.438c0,0.196,0.021,0.318,0.063,0.367
		c0.059,0.066,0.15,0.099,0.275,0.099h0.11v0.087h-1.353v-0.087h0.113c0.135,0,0.23-0.041,0.287-0.122
		c0.034-0.049,0.052-0.163,0.052-0.344v-2.438h-0.384c-0.098,0-0.182,0.007-0.254,0.021c-0.072,0.014-0.134,0.041-0.184,0.08
		s-0.091,0.095-0.122,0.167c-0.032,0.072-0.056,0.165-0.071,0.28h-0.089v-0.749H115.94z"/>
	<path fill="#FFFFFF" d="M118.393,80.354h1.112v0.088h-0.061c-0.02,0-0.045,0.004-0.077,0.014c-0.031,0.009-0.066,0.022-0.102,0.04
		c-0.036,0.018-0.073,0.039-0.111,0.065c-0.037,0.027-0.072,0.057-0.103,0.09c-0.033,0.034-0.069,0.079-0.107,0.134
		c-0.039,0.055-0.082,0.12-0.131,0.195l-0.77,1.212v0.8c0,0.196,0.022,0.318,0.066,0.367c0.058,0.066,0.151,0.099,0.282,0.099h0.104
		v0.087h-1.355v-0.087h0.113c0.135,0,0.23-0.041,0.287-0.122c0.034-0.049,0.052-0.163,0.052-0.344v-0.755l-0.876-1.337
		c-0.052-0.08-0.095-0.144-0.13-0.191c-0.036-0.048-0.062-0.082-0.081-0.103c-0.01-0.009-0.025-0.023-0.048-0.041
		c-0.021-0.018-0.049-0.036-0.082-0.056c-0.033-0.019-0.069-0.034-0.109-0.048s-0.082-0.02-0.126-0.02v-0.088h1.364v0.088h-0.07
		c-0.034,0-0.069,0.003-0.104,0.012c-0.035,0.008-0.066,0.021-0.096,0.037c-0.028,0.018-0.051,0.039-0.069,0.064
		c-0.018,0.026-0.026,0.058-0.026,0.093c0,0.057,0.047,0.159,0.143,0.307l0.667,1.028l0.625-0.984
		c0.095-0.146,0.142-0.257,0.142-0.329c-0.003-0.033-0.011-0.063-0.021-0.092s-0.028-0.053-0.052-0.073
		c-0.023-0.02-0.056-0.035-0.097-0.047c-0.04-0.011-0.092-0.016-0.152-0.016V80.354z"/>
	<path fill="#FFFFFF" d="M122.338,82.663l0.077,0.017l-0.272,0.865h-2.471v-0.087h0.12c0.134,0,0.23-0.044,0.29-0.132
		c0.032-0.049,0.049-0.164,0.049-0.348V80.92c0-0.201-0.021-0.326-0.065-0.375c-0.062-0.068-0.152-0.103-0.273-0.103h-0.12v-0.088
		h1.445v0.088c-0.087,0-0.158,0.003-0.216,0.012c-0.058,0.008-0.104,0.02-0.141,0.035c-0.037,0.016-0.066,0.033-0.088,0.055
		c-0.021,0.021-0.038,0.045-0.053,0.069c-0.024,0.049-0.037,0.169-0.037,0.36v2.005c0,0.055,0.002,0.102,0.006,0.141
		c0.004,0.04,0.011,0.072,0.02,0.098c0.01,0.026,0.022,0.047,0.038,0.063s0.036,0.03,0.061,0.039
		c0.038,0.016,0.16,0.023,0.367,0.023h0.233c0.243,0,0.415-0.018,0.516-0.054c0.05-0.018,0.097-0.041,0.141-0.071
		c0.044-0.029,0.087-0.069,0.128-0.118c0.042-0.05,0.083-0.109,0.123-0.18C122.254,82.849,122.296,82.764,122.338,82.663z"/>
	<path fill="#FFFFFF" d="M123.526,80.529v1.261h0.701c0.102,0,0.185-0.009,0.248-0.027c0.063-0.018,0.113-0.046,0.149-0.084
		c0.036-0.039,0.061-0.087,0.075-0.146c0.014-0.058,0.023-0.127,0.028-0.207h0.087v1.11h-0.087
		c-0.011-0.078-0.022-0.142-0.033-0.191c-0.011-0.049-0.022-0.085-0.033-0.106c-0.014-0.028-0.032-0.054-0.054-0.074
		c-0.022-0.021-0.051-0.04-0.085-0.056s-0.076-0.027-0.125-0.035c-0.048-0.008-0.105-0.012-0.171-0.012h-0.701v1.052
		c0,0.14,0.006,0.226,0.019,0.259c0.006,0.014,0.014,0.027,0.023,0.04s0.023,0.023,0.041,0.031c0.019,0.009,0.042,0.016,0.07,0.021
		c0.029,0.005,0.066,0.007,0.109,0.007h0.542c0.093,0,0.169-0.003,0.231-0.008c0.062-0.006,0.116-0.016,0.162-0.028
		c0.047-0.014,0.087-0.032,0.122-0.057c0.036-0.024,0.073-0.056,0.112-0.093c0.049-0.047,0.098-0.107,0.148-0.182
		c0.05-0.073,0.1-0.16,0.15-0.259h0.094l-0.275,0.8h-2.458v-0.087h0.112c0.03,0,0.062-0.003,0.095-0.009
		c0.032-0.007,0.063-0.017,0.093-0.031c0.029-0.014,0.056-0.031,0.078-0.053c0.024-0.021,0.04-0.046,0.05-0.074
		c0.019-0.049,0.028-0.151,0.028-0.309V80.91c0-0.201-0.021-0.325-0.061-0.374c-0.057-0.062-0.151-0.094-0.283-0.094h-0.112v-0.088
		h2.458v0.699h-0.056c-0.018-0.085-0.035-0.154-0.053-0.209c-0.017-0.056-0.036-0.101-0.059-0.137
		c-0.021-0.036-0.047-0.064-0.075-0.086s-0.062-0.041-0.101-0.058c-0.064-0.023-0.176-0.035-0.332-0.035H123.526z"/>
</g>
<g>
	<circle fill="#FFFFFF" cx="108.811" cy="35.71" r="1.896"/>
	<circle fill="#FFFFFF" cx="98.425" cy="35.71" r="1.897"/>
	<circle fill="#FFFFFF" cx="88.039" cy="35.71" r="1.897"/>
</g>
<g>
	<g>
		<path fill="#FFFFFF" d="M73.117,28.47v0.779c0,0.168,0.018,0.273,0.055,0.313c0.05,0.058,0.125,0.087,0.227,0.087h0.103v0.073
			h-1.146v-0.073h0.101c0.056,0,0.104-0.009,0.145-0.028c0.042-0.019,0.074-0.046,0.098-0.083c0.026-0.042,0.04-0.139,0.04-0.29
			v-1.728c0-0.167-0.018-0.271-0.053-0.314c-0.051-0.058-0.127-0.086-0.229-0.086h-0.101v-0.073h0.98
			c0.238,0,0.427,0.025,0.566,0.075c0.068,0.025,0.132,0.059,0.191,0.101s0.111,0.092,0.156,0.149s0.08,0.121,0.105,0.19
			c0.025,0.069,0.039,0.145,0.039,0.225c0,0.109-0.019,0.209-0.056,0.299c-0.037,0.09-0.09,0.167-0.161,0.232
			c-0.07,0.065-0.157,0.116-0.259,0.152c-0.103,0.037-0.219,0.055-0.351,0.055C73.435,28.525,73.285,28.506,73.117,28.47z
			 M73.117,28.357c0.071,0.013,0.133,0.023,0.186,0.03s0.099,0.01,0.137,0.01c0.068,0,0.133-0.014,0.194-0.042
			s0.114-0.067,0.16-0.118s0.082-0.111,0.108-0.181c0.027-0.069,0.041-0.146,0.041-0.229c0-0.097-0.015-0.185-0.043-0.261
			c-0.029-0.077-0.069-0.142-0.121-0.195c-0.051-0.053-0.111-0.094-0.18-0.122c-0.069-0.027-0.144-0.042-0.224-0.042
			c-0.034,0-0.072,0.003-0.115,0.009c-0.042,0.006-0.09,0.015-0.143,0.028V28.357z"/>
		<path fill="#FFFFFF" d="M75.685,29.461c-0.185,0.145-0.302,0.228-0.349,0.249c-0.07,0.033-0.146,0.049-0.227,0.049
			c-0.062,0-0.119-0.011-0.172-0.034c-0.052-0.022-0.098-0.054-0.136-0.095c-0.038-0.041-0.068-0.09-0.09-0.147
			s-0.033-0.12-0.033-0.19c0-0.051,0.007-0.099,0.021-0.142s0.035-0.084,0.062-0.124c0.027-0.039,0.063-0.076,0.105-0.111
			c0.043-0.035,0.093-0.07,0.151-0.104c0.135-0.08,0.357-0.176,0.667-0.288v-0.071c0-0.091-0.007-0.166-0.022-0.227
			s-0.037-0.109-0.065-0.145c-0.028-0.036-0.063-0.062-0.106-0.077c-0.042-0.015-0.089-0.022-0.142-0.022
			c-0.042,0-0.08,0.006-0.113,0.019c-0.034,0.013-0.062,0.029-0.086,0.049c-0.024,0.021-0.042,0.044-0.054,0.071
			c-0.013,0.027-0.019,0.055-0.019,0.082l0.004,0.114c0,0.061-0.015,0.107-0.046,0.14c-0.031,0.033-0.072,0.049-0.122,0.049
			c-0.048,0-0.088-0.017-0.119-0.051c-0.031-0.034-0.046-0.081-0.046-0.14c0-0.055,0.015-0.11,0.044-0.164
			c0.029-0.054,0.072-0.103,0.128-0.146c0.056-0.043,0.125-0.078,0.207-0.104s0.176-0.04,0.281-0.04
			c0.139,0,0.257,0.021,0.355,0.062c0.097,0.041,0.167,0.111,0.211,0.211c0.023,0.058,0.036,0.173,0.036,0.347v0.613
			c0,0.087,0.001,0.156,0.003,0.209s0.004,0.089,0.007,0.108c0.006,0.038,0.017,0.064,0.032,0.077
			c0.015,0.013,0.033,0.02,0.053,0.02c0.013,0,0.025-0.002,0.037-0.006c0.012-0.004,0.026-0.012,0.042-0.023
			c0.016-0.012,0.034-0.028,0.055-0.049c0.021-0.02,0.048-0.047,0.081-0.08v0.11c-0.149,0.197-0.29,0.296-0.422,0.296
			c-0.063,0-0.114-0.022-0.154-0.067C75.705,29.646,75.685,29.569,75.685,29.461z M75.685,29.333v-0.688
			c-0.1,0.04-0.182,0.073-0.246,0.101c-0.063,0.028-0.11,0.05-0.139,0.067c-0.104,0.059-0.178,0.12-0.223,0.183
			c-0.044,0.062-0.067,0.131-0.067,0.206c0,0.047,0.007,0.091,0.022,0.131c0.015,0.041,0.036,0.075,0.061,0.104
			c0.026,0.03,0.056,0.053,0.09,0.069c0.034,0.016,0.07,0.024,0.106,0.024C75.39,29.53,75.521,29.465,75.685,29.333z"/>
		<path fill="#FFFFFF" d="M77.075,26.917v2.396c0,0.058,0.002,0.105,0.006,0.141s0.01,0.065,0.018,0.086
			c0.008,0.022,0.018,0.039,0.031,0.051c0.012,0.012,0.028,0.022,0.046,0.031c0.032,0.019,0.096,0.028,0.191,0.028v0.071h-0.885
			v-0.071c0.059,0,0.106-0.005,0.141-0.014c0.035-0.009,0.062-0.026,0.081-0.051c0.019-0.025,0.031-0.059,0.037-0.102
			c0.005-0.043,0.008-0.1,0.008-0.17v-1.641c0-0.103-0.001-0.185-0.003-0.248s-0.005-0.105-0.011-0.127
			c-0.011-0.047-0.026-0.08-0.045-0.096c-0.02-0.017-0.045-0.026-0.077-0.026c-0.035,0-0.079,0.011-0.13,0.031l-0.034-0.069
			l0.539-0.221H77.075z"/>
		<path fill="#FFFFFF" d="M78.599,29.461c-0.185,0.145-0.301,0.228-0.349,0.249c-0.07,0.033-0.146,0.049-0.227,0.049
			c-0.062,0-0.119-0.011-0.171-0.034c-0.053-0.022-0.098-0.054-0.136-0.095c-0.038-0.041-0.068-0.09-0.09-0.147
			c-0.021-0.057-0.032-0.12-0.032-0.19c0-0.051,0.007-0.099,0.021-0.142s0.035-0.084,0.062-0.124
			c0.028-0.039,0.063-0.076,0.105-0.111c0.043-0.035,0.093-0.07,0.151-0.104c0.136-0.08,0.358-0.176,0.667-0.288v-0.071
			c0-0.091-0.007-0.166-0.022-0.227s-0.037-0.109-0.065-0.145s-0.063-0.062-0.105-0.077s-0.09-0.022-0.142-0.022
			c-0.042,0-0.08,0.006-0.113,0.019c-0.034,0.013-0.062,0.029-0.086,0.049c-0.024,0.021-0.042,0.044-0.054,0.071
			c-0.013,0.027-0.019,0.055-0.019,0.082l0.004,0.114c0,0.061-0.016,0.107-0.046,0.14c-0.031,0.033-0.072,0.049-0.122,0.049
			c-0.048,0-0.088-0.017-0.119-0.051s-0.046-0.081-0.046-0.14c0-0.055,0.015-0.11,0.044-0.164c0.029-0.054,0.072-0.103,0.128-0.146
			c0.056-0.043,0.125-0.078,0.208-0.104c0.082-0.026,0.176-0.04,0.281-0.04c0.14,0,0.258,0.021,0.355,0.062
			c0.097,0.041,0.167,0.111,0.211,0.211c0.024,0.058,0.036,0.173,0.036,0.347v0.613c0,0.087,0.001,0.156,0.003,0.209
			s0.004,0.089,0.007,0.108c0.006,0.038,0.018,0.064,0.033,0.077c0.015,0.013,0.032,0.02,0.052,0.02
			c0.013,0,0.025-0.002,0.038-0.006c0.012-0.004,0.025-0.012,0.041-0.023c0.016-0.012,0.034-0.028,0.056-0.049
			c0.021-0.02,0.048-0.047,0.081-0.08v0.11c-0.148,0.197-0.289,0.296-0.422,0.296c-0.063,0-0.115-0.022-0.154-0.067
			C78.619,29.646,78.599,29.569,78.599,29.461z M78.599,29.333v-0.688c-0.1,0.04-0.182,0.073-0.245,0.101
			c-0.064,0.028-0.11,0.05-0.139,0.067c-0.104,0.059-0.178,0.12-0.223,0.183c-0.045,0.062-0.067,0.131-0.067,0.206
			c0,0.047,0.008,0.091,0.023,0.131c0.015,0.041,0.036,0.075,0.061,0.104c0.025,0.03,0.056,0.053,0.09,0.069
			c0.034,0.016,0.069,0.024,0.106,0.024C78.305,29.53,78.437,29.465,78.599,29.333z"/>
		<path fill="#FFFFFF" d="M79.893,27.322v0.594h0.422v0.138h-0.422v1.171c0,0.06,0.004,0.108,0.014,0.147
			c0.009,0.039,0.022,0.07,0.038,0.092c0.016,0.022,0.034,0.038,0.056,0.046c0.021,0.008,0.045,0.013,0.072,0.013
			c0.043,0,0.085-0.013,0.126-0.04c0.041-0.027,0.072-0.067,0.095-0.12h0.077c-0.023,0.064-0.052,0.121-0.085,0.169
			c-0.034,0.049-0.07,0.089-0.11,0.122c-0.039,0.032-0.082,0.057-0.126,0.073c-0.045,0.017-0.089,0.025-0.134,0.025
			c-0.03,0-0.061-0.004-0.092-0.013c-0.031-0.009-0.06-0.021-0.086-0.038c-0.027-0.017-0.052-0.037-0.074-0.061
			c-0.022-0.023-0.04-0.051-0.053-0.083c-0.027-0.063-0.041-0.16-0.041-0.29v-1.215h-0.286v-0.065
			c0.072-0.029,0.146-0.078,0.222-0.147s0.143-0.151,0.202-0.246c0.015-0.025,0.033-0.06,0.054-0.105
			c0.022-0.045,0.046-0.102,0.072-0.168H79.893z"/>
		<path fill="#FFFFFF" d="M81.514,29.461c-0.186,0.145-0.302,0.228-0.349,0.249c-0.07,0.033-0.146,0.049-0.227,0.049
			c-0.062,0-0.119-0.011-0.171-0.034s-0.098-0.054-0.136-0.095c-0.039-0.041-0.068-0.09-0.09-0.147
			c-0.022-0.057-0.033-0.12-0.033-0.19c0-0.051,0.007-0.099,0.021-0.142c0.014-0.043,0.035-0.084,0.062-0.124
			c0.027-0.039,0.062-0.076,0.105-0.111c0.043-0.035,0.093-0.07,0.151-0.104c0.135-0.08,0.357-0.176,0.667-0.288v-0.071
			c0-0.091-0.008-0.166-0.023-0.227s-0.037-0.109-0.065-0.145s-0.063-0.062-0.105-0.077s-0.089-0.022-0.142-0.022
			c-0.042,0-0.08,0.006-0.113,0.019c-0.034,0.013-0.062,0.029-0.086,0.049c-0.023,0.021-0.042,0.044-0.054,0.071
			c-0.012,0.027-0.019,0.055-0.019,0.082l0.004,0.114c0,0.061-0.016,0.107-0.046,0.14c-0.031,0.033-0.071,0.049-0.121,0.049
			c-0.049,0-0.089-0.017-0.12-0.051s-0.046-0.081-0.046-0.14c0-0.055,0.015-0.11,0.044-0.164c0.03-0.054,0.072-0.103,0.128-0.146
			c0.056-0.043,0.125-0.078,0.207-0.104c0.082-0.026,0.176-0.04,0.281-0.04c0.14,0,0.258,0.021,0.355,0.062
			c0.098,0.041,0.168,0.111,0.211,0.211c0.024,0.058,0.036,0.173,0.036,0.347v0.613c0,0.087,0.001,0.156,0.003,0.209
			s0.004,0.089,0.007,0.108c0.006,0.038,0.017,0.064,0.032,0.077c0.015,0.013,0.033,0.02,0.052,0.02
			c0.013,0,0.025-0.002,0.038-0.006c0.012-0.004,0.025-0.012,0.042-0.023c0.016-0.012,0.034-0.028,0.055-0.049
			c0.021-0.02,0.048-0.047,0.081-0.08v0.11c-0.148,0.197-0.289,0.296-0.422,0.296c-0.063,0-0.114-0.022-0.154-0.067
			C81.534,29.646,81.514,29.569,81.514,29.461z M81.514,29.333v-0.688c-0.1,0.04-0.182,0.073-0.246,0.101
			c-0.064,0.028-0.11,0.05-0.139,0.067c-0.104,0.059-0.178,0.12-0.223,0.183c-0.045,0.062-0.067,0.131-0.067,0.206
			c0,0.047,0.007,0.091,0.022,0.131c0.015,0.041,0.036,0.075,0.061,0.104c0.026,0.03,0.056,0.053,0.09,0.069
			c0.034,0.016,0.07,0.024,0.106,0.024C81.22,29.53,81.351,29.465,81.514,29.333z"/>
		<path fill="#FFFFFF" d="M82.778,28.227c0.176-0.244,0.365-0.365,0.566-0.365c0.09,0,0.178,0.021,0.261,0.062
			c0.083,0.041,0.157,0.1,0.221,0.176c0.064,0.077,0.115,0.17,0.153,0.279c0.038,0.109,0.057,0.232,0.057,0.371
			c0,0.322-0.106,0.581-0.319,0.775c-0.184,0.168-0.388,0.252-0.611,0.252c-0.208,0-0.425-0.076-0.653-0.229v-1.872
			c0-0.203-0.005-0.329-0.016-0.379c-0.009-0.047-0.024-0.08-0.045-0.096c-0.021-0.017-0.047-0.026-0.079-0.026
			c-0.038,0-0.084,0.011-0.138,0.031l-0.028-0.069l0.542-0.221h0.088V28.227z M82.778,28.353v1.081
			c0.136,0.132,0.278,0.199,0.428,0.199c0.059,0,0.118-0.017,0.176-0.05c0.058-0.034,0.11-0.083,0.157-0.148
			c0.046-0.065,0.084-0.146,0.113-0.242c0.029-0.096,0.043-0.207,0.043-0.332c0-0.114-0.014-0.216-0.042-0.306
			s-0.066-0.165-0.114-0.226c-0.047-0.061-0.101-0.108-0.163-0.14c-0.061-0.032-0.124-0.048-0.188-0.048
			c-0.032,0-0.062,0.003-0.093,0.008c-0.03,0.005-0.062,0.016-0.093,0.031c-0.032,0.015-0.066,0.036-0.103,0.064
			C82.863,28.272,82.823,28.309,82.778,28.353z"/>
		<path fill="#FFFFFF" d="M84.926,27.862v1.452c0,0.058,0.002,0.105,0.006,0.141s0.01,0.065,0.018,0.088
			c0.008,0.022,0.019,0.039,0.031,0.05c0.013,0.011,0.026,0.021,0.042,0.03c0.034,0.019,0.093,0.028,0.177,0.028v0.071h-0.877
			v-0.071c0.045,0,0.081-0.002,0.109-0.006c0.028-0.004,0.051-0.01,0.069-0.02c0.018-0.009,0.031-0.021,0.041-0.034
			c0.01-0.014,0.02-0.031,0.029-0.051c0.019-0.041,0.028-0.116,0.028-0.227v-0.696c0-0.114-0.002-0.204-0.006-0.27
			c-0.004-0.066-0.011-0.115-0.021-0.148s-0.024-0.054-0.043-0.062c-0.019-0.009-0.043-0.013-0.072-0.013
			c-0.037,0-0.082,0.01-0.134,0.029l-0.027-0.071l0.544-0.221H84.926z M84.762,26.917c0.027,0,0.053,0.005,0.078,0.016
			c0.024,0.011,0.045,0.025,0.063,0.042c0.018,0.018,0.032,0.039,0.042,0.063c0.011,0.024,0.016,0.05,0.016,0.078
			c0,0.027-0.005,0.053-0.016,0.078c-0.01,0.024-0.024,0.046-0.042,0.064c-0.018,0.018-0.039,0.033-0.063,0.043
			c-0.024,0.01-0.05,0.016-0.078,0.016c-0.028,0-0.054-0.005-0.078-0.016c-0.024-0.011-0.045-0.025-0.064-0.043
			c-0.019-0.019-0.033-0.04-0.043-0.064c-0.01-0.024-0.016-0.05-0.016-0.078c0-0.028,0.005-0.054,0.016-0.078
			c0.011-0.024,0.025-0.045,0.042-0.063s0.039-0.032,0.064-0.042C84.708,26.923,84.734,26.917,84.762,26.917z"/>
		<path fill="#FFFFFF" d="M86.046,26.917v2.396c0,0.058,0.002,0.105,0.006,0.141s0.01,0.065,0.018,0.086
			c0.008,0.022,0.018,0.039,0.03,0.051c0.013,0.012,0.028,0.022,0.046,0.031c0.032,0.019,0.095,0.028,0.191,0.028v0.071h-0.886
			v-0.071c0.059,0,0.106-0.005,0.141-0.014c0.035-0.009,0.062-0.026,0.081-0.051c0.019-0.025,0.031-0.059,0.037-0.102
			c0.005-0.043,0.008-0.1,0.008-0.17v-1.641c0-0.103-0.001-0.185-0.003-0.248c-0.001-0.062-0.005-0.105-0.011-0.127
			c-0.01-0.047-0.025-0.08-0.045-0.096c-0.02-0.017-0.045-0.026-0.077-0.026c-0.036,0-0.079,0.011-0.13,0.031l-0.033-0.069
			l0.538-0.221H86.046z"/>
		<path fill="#FFFFFF" d="M87.17,27.862v1.452c0,0.058,0.002,0.105,0.006,0.141s0.01,0.065,0.018,0.088
			c0.008,0.022,0.018,0.039,0.03,0.05c0.013,0.011,0.027,0.021,0.042,0.03c0.034,0.019,0.093,0.028,0.177,0.028v0.071h-0.877v-0.071
			c0.045,0,0.081-0.002,0.11-0.006c0.028-0.004,0.051-0.01,0.069-0.02c0.018-0.009,0.031-0.021,0.041-0.034
			c0.01-0.014,0.02-0.031,0.029-0.051c0.019-0.041,0.028-0.116,0.028-0.227v-0.696c0-0.114-0.002-0.204-0.006-0.27
			s-0.011-0.115-0.021-0.148s-0.024-0.054-0.043-0.062c-0.019-0.009-0.043-0.013-0.072-0.013c-0.037,0-0.082,0.01-0.134,0.029
			l-0.027-0.071l0.544-0.221H87.17z M87.006,26.917c0.028,0,0.054,0.005,0.078,0.016c0.024,0.011,0.045,0.025,0.063,0.042
			c0.018,0.018,0.032,0.039,0.042,0.063c0.01,0.024,0.016,0.05,0.016,0.078c0,0.027-0.005,0.053-0.016,0.078
			c-0.011,0.024-0.025,0.046-0.042,0.064c-0.018,0.018-0.039,0.033-0.063,0.043c-0.024,0.01-0.05,0.016-0.078,0.016
			s-0.054-0.005-0.078-0.016c-0.024-0.011-0.046-0.025-0.064-0.043c-0.019-0.019-0.033-0.04-0.043-0.064
			c-0.01-0.024-0.016-0.05-0.016-0.078c0-0.028,0.005-0.054,0.016-0.078c0.011-0.024,0.025-0.045,0.042-0.063
			s0.039-0.032,0.064-0.042C86.952,26.923,86.979,26.917,87.006,26.917z"/>
		<path fill="#FFFFFF" d="M88.193,27.322v0.594h0.422v0.138h-0.422v1.171c0,0.06,0.005,0.108,0.014,0.147
			c0.009,0.039,0.021,0.07,0.037,0.092c0.016,0.022,0.035,0.038,0.056,0.046c0.022,0.008,0.046,0.013,0.072,0.013
			c0.043,0,0.085-0.013,0.126-0.04c0.041-0.027,0.072-0.067,0.095-0.12h0.077c-0.024,0.064-0.052,0.121-0.086,0.169
			c-0.034,0.049-0.07,0.089-0.109,0.122s-0.082,0.057-0.126,0.073c-0.044,0.017-0.089,0.025-0.134,0.025
			c-0.03,0-0.061-0.004-0.092-0.013c-0.031-0.009-0.06-0.021-0.087-0.038c-0.027-0.017-0.051-0.037-0.074-0.061
			c-0.022-0.023-0.04-0.051-0.053-0.083c-0.028-0.063-0.042-0.16-0.042-0.29v-1.215h-0.286v-0.065
			c0.072-0.029,0.146-0.078,0.222-0.147s0.143-0.151,0.202-0.246c0.014-0.025,0.032-0.06,0.054-0.105
			c0.021-0.045,0.045-0.102,0.072-0.168H88.193z"/>
		<path fill="#FFFFFF" d="M88.688,27.916h0.842v0.073h-0.042c-0.059,0-0.104,0.013-0.133,0.039
			c-0.029,0.025-0.044,0.057-0.044,0.096c0,0.051,0.022,0.122,0.065,0.213l0.439,0.911l0.404-0.998
			c0.022-0.055,0.034-0.108,0.034-0.16c0-0.016-0.002-0.029-0.006-0.042c-0.004-0.012-0.012-0.022-0.025-0.031
			c-0.012-0.009-0.031-0.016-0.055-0.021c-0.024-0.004-0.056-0.007-0.096-0.007v-0.073h0.588v0.073
			c-0.034,0.004-0.062,0.009-0.085,0.015s-0.043,0.018-0.062,0.036s-0.037,0.044-0.055,0.079c-0.018,0.035-0.039,0.083-0.064,0.144
			l-0.736,1.802c-0.036,0.086-0.078,0.164-0.126,0.23c-0.049,0.066-0.1,0.121-0.154,0.166c-0.054,0.044-0.109,0.078-0.167,0.1
			c-0.057,0.023-0.112,0.035-0.165,0.035c-0.04,0-0.075-0.006-0.107-0.019s-0.06-0.029-0.084-0.049
			c-0.023-0.021-0.042-0.044-0.055-0.07c-0.013-0.026-0.02-0.054-0.02-0.083c0-0.055,0.018-0.1,0.054-0.133
			c0.036-0.033,0.086-0.05,0.149-0.05c0.015,0,0.036,0.004,0.064,0.012s0.057,0.016,0.087,0.024s0.056,0.017,0.08,0.024
			c0.024,0.008,0.039,0.012,0.045,0.012c0.02,0,0.041-0.005,0.062-0.014c0.021-0.009,0.044-0.025,0.067-0.047
			c0.023-0.022,0.046-0.053,0.07-0.092c0.024-0.039,0.047-0.087,0.071-0.145l0.128-0.313l-0.649-1.363
			c-0.006-0.015-0.017-0.034-0.032-0.058s-0.031-0.049-0.048-0.074s-0.034-0.048-0.051-0.069s-0.032-0.036-0.043-0.043
			c-0.028-0.021-0.076-0.04-0.146-0.055V27.916z"/>
		<path fill="#FFFFFF" d="M93.755,28h0.829v0.073c-0.115,0.01-0.2,0.036-0.255,0.077c-0.054,0.042-0.139,0.167-0.254,0.375
			c-0.117,0.209-0.247,0.404-0.39,0.585c0.059,0.068,0.114,0.126,0.166,0.174c0.051,0.047,0.101,0.085,0.148,0.114
			c0.047,0.029,0.094,0.049,0.139,0.062s0.091,0.019,0.139,0.019c0.091,0,0.168-0.025,0.231-0.074s0.108-0.122,0.134-0.218
			l0.073,0.053c-0.049,0.186-0.127,0.322-0.235,0.411c-0.108,0.088-0.233,0.132-0.376,0.132c-0.054,0-0.108-0.007-0.162-0.021
			c-0.054-0.014-0.109-0.036-0.167-0.067c-0.058-0.031-0.116-0.071-0.176-0.12c-0.06-0.048-0.123-0.107-0.188-0.177
			c-0.164,0.145-0.312,0.245-0.441,0.302c-0.13,0.055-0.27,0.083-0.418,0.083c-0.109,0-0.207-0.016-0.294-0.047
			c-0.086-0.031-0.161-0.074-0.223-0.127c-0.062-0.053-0.109-0.116-0.142-0.188c-0.033-0.071-0.049-0.146-0.049-0.226
			c0-0.159,0.058-0.317,0.172-0.476c0.113-0.159,0.328-0.323,0.645-0.493c-0.032-0.07-0.058-0.132-0.078-0.187
			s-0.037-0.104-0.049-0.15s-0.021-0.088-0.026-0.128c-0.004-0.04-0.006-0.082-0.006-0.124c0-0.099,0.018-0.188,0.053-0.268
			c0.036-0.08,0.085-0.149,0.147-0.206c0.062-0.058,0.136-0.101,0.219-0.132c0.083-0.031,0.173-0.046,0.269-0.046
			c0.076,0,0.147,0.013,0.212,0.038s0.122,0.059,0.168,0.103c0.047,0.043,0.084,0.094,0.111,0.153
			c0.026,0.059,0.04,0.121,0.04,0.188c0,0.141-0.048,0.263-0.144,0.367c-0.047,0.053-0.113,0.107-0.196,0.165
			s-0.187,0.117-0.309,0.181c0.084,0.15,0.169,0.292,0.256,0.428c0.086,0.136,0.175,0.265,0.266,0.389
			c0.231-0.277,0.347-0.51,0.347-0.698c0-0.025-0.004-0.05-0.012-0.076c-0.008-0.025-0.02-0.048-0.035-0.069
			s-0.034-0.038-0.057-0.052c-0.023-0.014-0.05-0.023-0.08-0.027V28z M93.307,29.284c-0.086-0.12-0.16-0.223-0.22-0.308
			c-0.06-0.085-0.107-0.156-0.141-0.211s-0.069-0.116-0.105-0.183c-0.036-0.067-0.075-0.142-0.115-0.223
			c-0.317,0.183-0.475,0.401-0.475,0.655c0,0.07,0.012,0.137,0.035,0.2c0.024,0.064,0.057,0.12,0.101,0.169
			c0.043,0.048,0.096,0.087,0.158,0.117c0.062,0.029,0.132,0.044,0.209,0.044c0.042,0,0.083-0.003,0.121-0.01
			c0.038-0.007,0.078-0.019,0.12-0.038s0.088-0.045,0.138-0.079C93.182,29.384,93.24,29.339,93.307,29.284z M93.001,28.051
			c0.325-0.155,0.487-0.353,0.487-0.593c0-0.046-0.008-0.089-0.024-0.129c-0.016-0.04-0.037-0.075-0.064-0.104
			s-0.059-0.053-0.097-0.069c-0.038-0.017-0.078-0.025-0.121-0.025c-0.058,0-0.108,0.012-0.152,0.035s-0.08,0.052-0.108,0.086
			c-0.029,0.035-0.051,0.073-0.065,0.115c-0.014,0.041-0.021,0.081-0.021,0.117c0,0.034,0.002,0.068,0.007,0.102
			s0.013,0.071,0.026,0.113c0.012,0.042,0.029,0.091,0.05,0.148S92.967,27.971,93.001,28.051z"/>
		<path fill="#FFFFFF" d="M98.183,27.047v0.627h-0.045c-0.011-0.084-0.028-0.156-0.052-0.214c-0.024-0.058-0.056-0.105-0.096-0.142
			s-0.087-0.062-0.144-0.079c-0.057-0.016-0.123-0.024-0.197-0.024h-0.376v2.043c0,0.165,0.018,0.267,0.053,0.308
			c0.048,0.055,0.125,0.083,0.23,0.083h0.093v0.073h-1.134v-0.073h0.094c0.113,0,0.193-0.034,0.241-0.103
			c0.029-0.041,0.043-0.137,0.043-0.288v-2.043h-0.321c-0.082,0-0.153,0.006-0.213,0.018c-0.061,0.012-0.112,0.034-0.154,0.067
			c-0.042,0.033-0.077,0.08-0.103,0.14c-0.026,0.061-0.046,0.139-0.06,0.235h-0.075v-0.627H98.183z"/>
		<path fill="#FFFFFF" d="M99.462,29.461c-0.186,0.145-0.302,0.228-0.349,0.249c-0.069,0.033-0.146,0.049-0.227,0.049
			c-0.062,0-0.119-0.011-0.172-0.034c-0.052-0.022-0.098-0.054-0.136-0.095c-0.039-0.041-0.068-0.09-0.09-0.147
			c-0.022-0.057-0.033-0.12-0.033-0.19c0-0.051,0.007-0.099,0.021-0.142c0.014-0.043,0.035-0.084,0.062-0.124
			c0.027-0.039,0.062-0.076,0.105-0.111c0.042-0.035,0.093-0.07,0.151-0.104c0.135-0.08,0.357-0.176,0.666-0.288v-0.071
			c0-0.091-0.007-0.166-0.022-0.227c-0.015-0.061-0.037-0.109-0.065-0.145s-0.062-0.062-0.105-0.077
			c-0.041-0.015-0.089-0.022-0.142-0.022c-0.042,0-0.08,0.006-0.113,0.019c-0.033,0.013-0.062,0.029-0.085,0.049
			c-0.024,0.021-0.042,0.044-0.055,0.071c-0.012,0.027-0.019,0.055-0.019,0.082l0.004,0.114c0,0.061-0.016,0.107-0.046,0.14
			c-0.031,0.033-0.071,0.049-0.121,0.049c-0.049,0-0.089-0.017-0.12-0.051s-0.046-0.081-0.046-0.14c0-0.055,0.015-0.11,0.044-0.164
			c0.03-0.054,0.072-0.103,0.128-0.146c0.056-0.043,0.125-0.078,0.207-0.104c0.082-0.026,0.176-0.04,0.281-0.04
			c0.139,0,0.257,0.021,0.354,0.062c0.098,0.041,0.168,0.111,0.211,0.211c0.024,0.058,0.036,0.173,0.036,0.347v0.613
			c0,0.087,0.001,0.156,0.003,0.209c0.001,0.053,0.004,0.089,0.007,0.108c0.006,0.038,0.018,0.064,0.032,0.077
			c0.016,0.013,0.032,0.02,0.053,0.02c0.013,0,0.025-0.002,0.037-0.006s0.025-0.012,0.041-0.023
			c0.016-0.012,0.034-0.028,0.056-0.049c0.021-0.02,0.048-0.047,0.08-0.08v0.11c-0.148,0.197-0.288,0.296-0.421,0.296
			c-0.063,0-0.115-0.022-0.154-0.067C99.482,29.646,99.462,29.569,99.462,29.461z M99.462,29.333v-0.688
			c-0.1,0.04-0.182,0.073-0.245,0.101c-0.064,0.028-0.11,0.05-0.139,0.067c-0.104,0.059-0.178,0.12-0.223,0.183
			c-0.044,0.062-0.067,0.131-0.067,0.206c0,0.047,0.008,0.091,0.023,0.131c0.015,0.041,0.036,0.075,0.061,0.104
			c0.026,0.03,0.056,0.053,0.09,0.069c0.034,0.016,0.07,0.024,0.106,0.024C99.168,29.53,99.3,29.465,99.462,29.333z"/>
		<path fill="#FFFFFF" d="M101.399,27.862v0.616h-0.065c-0.025-0.098-0.054-0.178-0.085-0.242c-0.031-0.064-0.067-0.115-0.107-0.153
			s-0.085-0.065-0.134-0.081c-0.05-0.016-0.104-0.023-0.165-0.023c-0.046,0-0.088,0.007-0.125,0.021
			c-0.038,0.014-0.07,0.032-0.097,0.053c-0.027,0.022-0.048,0.047-0.063,0.075c-0.015,0.028-0.022,0.057-0.022,0.085
			c0,0.037,0.005,0.071,0.016,0.103c0.011,0.031,0.032,0.064,0.066,0.097c0.033,0.034,0.081,0.07,0.144,0.108
			s0.146,0.083,0.252,0.134c0.097,0.047,0.179,0.094,0.245,0.14s0.12,0.092,0.161,0.138c0.042,0.046,0.071,0.093,0.089,0.143
			c0.019,0.049,0.027,0.101,0.027,0.153c0,0.083-0.018,0.158-0.053,0.226c-0.035,0.067-0.08,0.125-0.137,0.172
			s-0.121,0.084-0.193,0.11c-0.072,0.026-0.146,0.04-0.221,0.04c-0.056,0-0.114-0.004-0.178-0.014s-0.13-0.024-0.201-0.045
			c-0.022-0.006-0.042-0.011-0.059-0.015c-0.018-0.003-0.033-0.005-0.048-0.005c-0.028,0-0.053,0.017-0.071,0.051h-0.064v-0.645
			h0.064c0.019,0.092,0.046,0.173,0.083,0.243s0.08,0.127,0.13,0.173c0.049,0.046,0.104,0.081,0.163,0.104
			c0.06,0.024,0.121,0.036,0.185,0.036c0.045,0,0.086-0.007,0.123-0.021c0.037-0.015,0.07-0.034,0.098-0.059
			c0.027-0.024,0.049-0.053,0.064-0.085c0.015-0.033,0.022-0.068,0.022-0.106c0-0.045-0.007-0.085-0.02-0.122
			c-0.014-0.036-0.038-0.071-0.073-0.105c-0.036-0.034-0.084-0.07-0.146-0.107c-0.062-0.038-0.141-0.081-0.238-0.129
			c-0.098-0.047-0.176-0.092-0.235-0.132c-0.06-0.041-0.107-0.082-0.141-0.123c-0.035-0.042-0.058-0.085-0.069-0.13
			s-0.018-0.097-0.018-0.155c0-0.074,0.013-0.143,0.04-0.206c0.027-0.064,0.064-0.119,0.113-0.166
			c0.049-0.046,0.106-0.083,0.174-0.11c0.066-0.027,0.141-0.041,0.221-0.041c0.024,0,0.058,0.004,0.097,0.012
			s0.079,0.016,0.119,0.025s0.076,0.018,0.109,0.026c0.033,0.008,0.056,0.012,0.067,0.012c0.021,0,0.037-0.005,0.049-0.014
			c0.013-0.009,0.026-0.03,0.042-0.062H101.399z"/>
		<path fill="#FFFFFF" d="M102.328,27.322v0.594h0.422v0.138h-0.422v1.171c0,0.06,0.004,0.108,0.014,0.147
			c0.009,0.039,0.021,0.07,0.037,0.092c0.016,0.022,0.034,0.038,0.057,0.046c0.021,0.008,0.045,0.013,0.071,0.013
			c0.044,0,0.086-0.013,0.127-0.04c0.04-0.027,0.071-0.067,0.094-0.12h0.077c-0.023,0.064-0.052,0.121-0.086,0.169
			c-0.033,0.049-0.069,0.089-0.109,0.122c-0.039,0.032-0.081,0.057-0.126,0.073c-0.045,0.017-0.09,0.025-0.134,0.025
			c-0.03,0-0.062-0.004-0.092-0.013c-0.031-0.009-0.06-0.021-0.087-0.038c-0.027-0.017-0.052-0.037-0.074-0.061
			c-0.022-0.023-0.04-0.051-0.053-0.083c-0.027-0.063-0.042-0.16-0.042-0.29v-1.215h-0.286v-0.065
			c0.073-0.029,0.146-0.078,0.223-0.147c0.075-0.069,0.143-0.151,0.202-0.246c0.014-0.025,0.032-0.06,0.054-0.105
			c0.022-0.045,0.046-0.102,0.072-0.168H102.328z"/>
		<path fill="#FFFFFF" d="M103.229,28.596c0,0.134,0.018,0.254,0.054,0.361c0.035,0.106,0.083,0.197,0.144,0.271
			s0.131,0.131,0.211,0.17c0.079,0.039,0.163,0.058,0.251,0.058c0.118,0,0.221-0.033,0.309-0.098s0.161-0.176,0.22-0.334l0.062,0.04
			c-0.015,0.088-0.042,0.175-0.083,0.26s-0.093,0.162-0.157,0.229c-0.063,0.067-0.138,0.121-0.223,0.163s-0.177,0.062-0.277,0.062
			c-0.107,0-0.209-0.022-0.305-0.066c-0.095-0.044-0.179-0.106-0.25-0.188c-0.071-0.081-0.129-0.179-0.171-0.293
			c-0.042-0.115-0.062-0.245-0.062-0.388c0-0.157,0.021-0.295,0.063-0.417c0.043-0.122,0.102-0.225,0.177-0.309
			c0.075-0.084,0.163-0.147,0.266-0.191c0.102-0.043,0.211-0.065,0.328-0.065c0.1,0,0.192,0.017,0.277,0.052
			c0.084,0.035,0.158,0.085,0.22,0.149c0.062,0.064,0.109,0.142,0.145,0.232s0.053,0.191,0.053,0.303H103.229z M103.229,28.481
			h0.837c-0.006-0.116-0.02-0.197-0.042-0.245c-0.033-0.074-0.082-0.131-0.146-0.173c-0.065-0.042-0.134-0.063-0.204-0.063
			c-0.054,0-0.106,0.011-0.156,0.033s-0.095,0.053-0.136,0.095s-0.075,0.092-0.102,0.151
			C103.252,28.337,103.235,28.405,103.229,28.481z"/>
		<path fill="#FFFFFF" d="M107.662,28h0.828v0.073c-0.114,0.01-0.199,0.036-0.254,0.077c-0.055,0.042-0.139,0.167-0.255,0.375
			c-0.116,0.209-0.247,0.404-0.391,0.585c0.06,0.068,0.114,0.126,0.166,0.174c0.052,0.047,0.101,0.085,0.147,0.114
			c0.048,0.029,0.094,0.049,0.14,0.062c0.045,0.013,0.092,0.019,0.139,0.019c0.091,0,0.168-0.025,0.23-0.074
			c0.063-0.049,0.108-0.122,0.135-0.218l0.072,0.053c-0.048,0.186-0.126,0.322-0.234,0.411c-0.107,0.088-0.233,0.132-0.377,0.132
			c-0.054,0-0.107-0.007-0.161-0.021s-0.109-0.036-0.167-0.067c-0.057-0.031-0.115-0.071-0.176-0.12
			c-0.06-0.048-0.122-0.107-0.188-0.177c-0.165,0.145-0.312,0.245-0.442,0.302c-0.13,0.055-0.27,0.083-0.418,0.083
			c-0.109,0-0.207-0.016-0.294-0.047c-0.087-0.031-0.161-0.074-0.223-0.127s-0.109-0.116-0.142-0.188
			c-0.033-0.071-0.05-0.146-0.05-0.226c0-0.159,0.058-0.317,0.172-0.476c0.113-0.159,0.328-0.323,0.645-0.493
			c-0.031-0.07-0.058-0.132-0.078-0.187s-0.036-0.104-0.049-0.15s-0.021-0.088-0.025-0.128s-0.007-0.082-0.007-0.124
			c0-0.099,0.018-0.188,0.053-0.268s0.085-0.149,0.147-0.206c0.062-0.058,0.135-0.101,0.219-0.132
			c0.083-0.031,0.173-0.046,0.269-0.046c0.076,0,0.147,0.013,0.212,0.038c0.065,0.025,0.122,0.059,0.169,0.103
			s0.084,0.094,0.11,0.153s0.04,0.121,0.04,0.188c0,0.141-0.048,0.263-0.145,0.367c-0.047,0.053-0.112,0.107-0.196,0.165
			c-0.083,0.057-0.187,0.117-0.309,0.181c0.084,0.15,0.17,0.292,0.257,0.428c0.087,0.136,0.176,0.265,0.266,0.389
			c0.231-0.277,0.348-0.51,0.348-0.698c0-0.025-0.004-0.05-0.012-0.076c-0.008-0.025-0.02-0.048-0.035-0.069
			c-0.015-0.021-0.034-0.038-0.057-0.052c-0.023-0.014-0.05-0.023-0.08-0.027V28z M107.215,29.284
			c-0.087-0.12-0.16-0.223-0.22-0.308c-0.061-0.085-0.107-0.156-0.142-0.211s-0.069-0.116-0.105-0.183
			c-0.036-0.067-0.074-0.142-0.115-0.223c-0.317,0.183-0.476,0.401-0.476,0.655c0,0.07,0.012,0.137,0.036,0.2
			c0.023,0.064,0.057,0.12,0.1,0.169c0.044,0.048,0.097,0.087,0.158,0.117c0.062,0.029,0.132,0.044,0.209,0.044
			c0.042,0,0.082-0.003,0.12-0.01c0.038-0.007,0.078-0.019,0.121-0.038c0.042-0.019,0.088-0.045,0.138-0.079
			S107.147,29.339,107.215,29.284z M106.909,28.051c0.324-0.155,0.487-0.353,0.487-0.593c0-0.046-0.009-0.089-0.024-0.129
			s-0.037-0.075-0.063-0.104c-0.027-0.03-0.06-0.053-0.097-0.069c-0.038-0.017-0.078-0.025-0.122-0.025
			c-0.058,0-0.108,0.012-0.151,0.035c-0.044,0.023-0.08,0.052-0.108,0.086c-0.029,0.035-0.051,0.073-0.065,0.115
			c-0.015,0.041-0.021,0.081-0.021,0.117c0,0.034,0.002,0.068,0.007,0.102s0.013,0.071,0.025,0.113s0.029,0.091,0.051,0.148
			C106.847,27.903,106.875,27.971,106.909,28.051z"/>
		<path fill="#FFFFFF" d="M109.699,27.047h0.726l1.636,2.006v-1.542c0-0.165-0.019-0.267-0.056-0.308
			c-0.05-0.055-0.127-0.083-0.23-0.083h-0.093v-0.073h0.931v0.073h-0.095c-0.113,0-0.193,0.034-0.24,0.103
			c-0.029,0.041-0.044,0.137-0.044,0.288v2.254h-0.071l-1.763-2.153v1.646c0,0.165,0.018,0.267,0.054,0.308
			c0.049,0.055,0.125,0.083,0.23,0.083h0.095v0.073h-0.931v-0.073h0.093c0.114,0,0.194-0.034,0.242-0.103
			c0.029-0.041,0.044-0.137,0.044-0.288v-1.86c-0.04-0.046-0.073-0.083-0.1-0.11c-0.025-0.027-0.051-0.05-0.074-0.068
			c-0.024-0.018-0.05-0.032-0.077-0.043s-0.062-0.024-0.103-0.039c-0.038-0.012-0.096-0.018-0.174-0.018V27.047z"/>
		<path fill="#FFFFFF" d="M114.379,27.916v1.094c0,0.212,0.005,0.34,0.015,0.385c0.01,0.046,0.026,0.078,0.048,0.097
			c0.021,0.018,0.047,0.027,0.076,0.027c0.039,0,0.085-0.011,0.138-0.034l0.027,0.069l-0.54,0.223h-0.089v-0.382
			c-0.156,0.168-0.274,0.274-0.354,0.317c-0.082,0.043-0.168,0.065-0.259,0.065c-0.101,0-0.188-0.028-0.263-0.085
			c-0.073-0.058-0.125-0.133-0.155-0.228c-0.028-0.091-0.043-0.221-0.043-0.391v-0.807c0-0.059-0.005-0.107-0.015-0.144
			c-0.011-0.037-0.026-0.065-0.049-0.085c-0.022-0.02-0.052-0.033-0.088-0.04c-0.036-0.006-0.079-0.01-0.131-0.01h-0.023v-0.073
			h0.633v1.208c0,0.087,0.008,0.157,0.024,0.211c0.017,0.054,0.038,0.096,0.066,0.125c0.027,0.03,0.06,0.049,0.096,0.059
			s0.074,0.015,0.113,0.015c0.027,0,0.058-0.004,0.09-0.012s0.066-0.021,0.103-0.042c0.036-0.02,0.075-0.046,0.117-0.079
			c0.042-0.033,0.088-0.074,0.138-0.124v-1.024c0-0.051-0.004-0.094-0.012-0.127c-0.008-0.034-0.022-0.061-0.044-0.081
			c-0.021-0.02-0.052-0.035-0.089-0.043c-0.037-0.008-0.086-0.013-0.146-0.015v-0.073H114.379z"/>
		<path fill="#FFFFFF" d="M115.34,27.322v0.594h0.422v0.138h-0.422v1.171c0,0.06,0.005,0.108,0.014,0.147
			c0.01,0.039,0.021,0.07,0.037,0.092c0.017,0.022,0.035,0.038,0.057,0.046s0.046,0.013,0.072,0.013c0.043,0,0.085-0.013,0.126-0.04
			c0.041-0.027,0.072-0.067,0.095-0.12h0.077c-0.023,0.064-0.053,0.121-0.086,0.169c-0.033,0.049-0.07,0.089-0.109,0.122
			c-0.04,0.032-0.082,0.057-0.126,0.073c-0.045,0.017-0.09,0.025-0.135,0.025c-0.03,0-0.061-0.004-0.092-0.013
			c-0.03-0.009-0.06-0.021-0.087-0.038c-0.026-0.017-0.051-0.037-0.073-0.061c-0.022-0.023-0.04-0.051-0.054-0.083
			c-0.027-0.063-0.041-0.16-0.041-0.29v-1.215h-0.286v-0.065c0.072-0.029,0.146-0.078,0.222-0.147s0.143-0.151,0.202-0.246
			c0.015-0.025,0.033-0.06,0.055-0.105s0.046-0.102,0.071-0.168H115.34z"/>
		<path fill="#FFFFFF" d="M116.466,27.862v0.407c0.152-0.271,0.308-0.407,0.466-0.407c0.035,0,0.068,0.006,0.099,0.018
			s0.057,0.028,0.079,0.048c0.023,0.021,0.041,0.043,0.054,0.07s0.019,0.054,0.019,0.083c0,0.051-0.017,0.095-0.051,0.13
			c-0.034,0.036-0.075,0.054-0.123,0.054c-0.021,0-0.047-0.007-0.074-0.022c-0.028-0.015-0.055-0.03-0.082-0.046
			s-0.052-0.032-0.074-0.046c-0.022-0.014-0.039-0.021-0.051-0.021c-0.018,0-0.036,0.007-0.058,0.022
			c-0.021,0.015-0.043,0.036-0.064,0.063c-0.022,0.027-0.046,0.06-0.069,0.097c-0.024,0.038-0.047,0.079-0.069,0.124V29.3
			c0,0.054,0.003,0.103,0.01,0.146c0.007,0.043,0.021,0.08,0.043,0.11c0.021,0.03,0.053,0.054,0.096,0.07
			c0.042,0.017,0.098,0.025,0.167,0.025v0.071h-0.925v-0.071c0.058,0,0.105-0.004,0.142-0.012c0.037-0.008,0.066-0.024,0.087-0.047
			c0.021-0.024,0.036-0.058,0.044-0.102c0.008-0.044,0.012-0.103,0.012-0.175v-0.7c0-0.213-0.005-0.338-0.014-0.375
			c-0.018-0.078-0.062-0.116-0.132-0.116c-0.041,0-0.087,0.01-0.139,0.029l-0.02-0.071l0.546-0.221H116.466z"/>
		<path fill="#FFFFFF" d="M117.905,27.862v1.452c0,0.058,0.002,0.105,0.006,0.141s0.01,0.065,0.019,0.088
			c0.008,0.022,0.018,0.039,0.03,0.05c0.013,0.011,0.026,0.021,0.042,0.03c0.034,0.019,0.094,0.028,0.178,0.028v0.071h-0.878v-0.071
			c0.045,0,0.081-0.002,0.109-0.006c0.028-0.004,0.052-0.01,0.069-0.02c0.018-0.009,0.031-0.021,0.041-0.034
			c0.011-0.014,0.02-0.031,0.029-0.051c0.019-0.041,0.027-0.116,0.027-0.227v-0.696c0-0.114-0.002-0.204-0.006-0.27
			s-0.011-0.115-0.021-0.148s-0.024-0.054-0.044-0.062c-0.019-0.009-0.043-0.013-0.071-0.013c-0.037,0-0.082,0.01-0.135,0.029
			l-0.027-0.071l0.544-0.221H117.905z M117.742,26.917c0.027,0,0.054,0.005,0.077,0.016c0.024,0.011,0.046,0.025,0.063,0.042
			s0.032,0.039,0.043,0.063c0.01,0.024,0.016,0.05,0.016,0.078c0,0.027-0.006,0.053-0.016,0.078
			c-0.011,0.024-0.025,0.046-0.043,0.064c-0.018,0.018-0.039,0.033-0.063,0.043c-0.023,0.01-0.05,0.016-0.077,0.016
			c-0.028,0-0.054-0.005-0.078-0.016c-0.024-0.011-0.046-0.025-0.064-0.043c-0.019-0.019-0.033-0.04-0.043-0.064
			c-0.011-0.024-0.016-0.05-0.016-0.078c0-0.028,0.005-0.054,0.016-0.078c0.01-0.024,0.024-0.045,0.042-0.063
			s0.039-0.032,0.064-0.042C117.688,26.923,117.714,26.917,117.742,26.917z"/>
		<path fill="#FFFFFF" d="M118.93,27.322v0.594h0.421v0.138h-0.421v1.171c0,0.06,0.004,0.108,0.013,0.147
			c0.01,0.039,0.022,0.07,0.038,0.092c0.016,0.022,0.034,0.038,0.056,0.046c0.022,0.008,0.046,0.013,0.072,0.013
			c0.044,0,0.086-0.013,0.126-0.04c0.041-0.027,0.072-0.067,0.095-0.12h0.077c-0.023,0.064-0.052,0.121-0.086,0.169
			c-0.033,0.049-0.069,0.089-0.109,0.122c-0.039,0.032-0.082,0.057-0.126,0.073c-0.045,0.017-0.09,0.025-0.135,0.025
			c-0.03,0-0.061-0.004-0.091-0.013c-0.031-0.009-0.061-0.021-0.087-0.038c-0.027-0.017-0.052-0.037-0.074-0.061
			c-0.022-0.023-0.04-0.051-0.054-0.083c-0.027-0.063-0.041-0.16-0.041-0.29v-1.215h-0.286v-0.065
			c0.072-0.029,0.146-0.078,0.222-0.147c0.076-0.069,0.144-0.151,0.202-0.246c0.015-0.025,0.033-0.06,0.055-0.105
			s0.046-0.102,0.072-0.168H118.93z"/>
		<path fill="#FFFFFF" d="M120.149,27.862v1.452c0,0.058,0.002,0.105,0.007,0.141c0.003,0.036,0.01,0.065,0.018,0.088
			c0.008,0.022,0.018,0.039,0.03,0.05c0.013,0.011,0.026,0.021,0.042,0.03c0.034,0.019,0.094,0.028,0.178,0.028v0.071h-0.877v-0.071
			c0.044,0,0.08-0.002,0.108-0.006c0.028-0.004,0.052-0.01,0.069-0.02c0.018-0.009,0.032-0.021,0.042-0.034
			c0.01-0.014,0.019-0.031,0.028-0.051c0.019-0.041,0.027-0.116,0.027-0.227v-0.696c0-0.114-0.002-0.204-0.006-0.27
			s-0.011-0.115-0.021-0.148s-0.024-0.054-0.044-0.062c-0.019-0.009-0.043-0.013-0.071-0.013c-0.037,0-0.082,0.01-0.134,0.029
			l-0.028-0.071l0.544-0.221H120.149z M119.986,26.917c0.027,0,0.054,0.005,0.077,0.016c0.025,0.011,0.046,0.025,0.063,0.042
			s0.032,0.039,0.043,0.063c0.01,0.024,0.016,0.05,0.016,0.078c0,0.027-0.006,0.053-0.016,0.078
			c-0.011,0.024-0.025,0.046-0.043,0.064c-0.018,0.018-0.038,0.033-0.063,0.043c-0.023,0.01-0.05,0.016-0.077,0.016
			c-0.028,0-0.054-0.005-0.078-0.016c-0.024-0.011-0.046-0.025-0.064-0.043c-0.019-0.019-0.032-0.04-0.043-0.064
			s-0.016-0.05-0.016-0.078c0-0.028,0.005-0.054,0.016-0.078s0.024-0.045,0.043-0.063c0.018-0.018,0.038-0.032,0.063-0.042
			C119.933,26.923,119.958,26.917,119.986,26.917z"/>
		<path fill="#FFFFFF" d="M121.532,27.862c0.128,0,0.244,0.025,0.351,0.075s0.198,0.117,0.275,0.201s0.137,0.182,0.18,0.294
			s0.064,0.229,0.064,0.353c0,0.13-0.022,0.255-0.066,0.374c-0.044,0.119-0.105,0.225-0.185,0.316
			c-0.079,0.092-0.173,0.166-0.282,0.22c-0.108,0.054-0.229,0.082-0.358,0.082c-0.128,0-0.244-0.026-0.349-0.079
			c-0.104-0.053-0.194-0.123-0.269-0.21c-0.075-0.087-0.133-0.188-0.174-0.301c-0.041-0.113-0.062-0.23-0.062-0.351
			c0-0.123,0.021-0.242,0.063-0.359c0.042-0.117,0.102-0.221,0.179-0.312c0.076-0.092,0.169-0.165,0.275-0.22
			C121.283,27.89,121.402,27.862,121.532,27.862z M121.471,27.99c-0.058,0-0.113,0.012-0.166,0.037
			c-0.054,0.024-0.101,0.063-0.143,0.118c-0.041,0.055-0.074,0.125-0.1,0.211c-0.024,0.086-0.037,0.191-0.037,0.314
			c0,0.127,0.014,0.25,0.04,0.367c0.027,0.117,0.065,0.22,0.115,0.309c0.049,0.089,0.108,0.159,0.179,0.212s0.149,0.079,0.236,0.079
			c0.062,0,0.121-0.012,0.174-0.036c0.054-0.024,0.1-0.064,0.14-0.118c0.039-0.055,0.07-0.127,0.093-0.216
			c0.021-0.089,0.033-0.199,0.033-0.329c0-0.13-0.013-0.252-0.037-0.367c-0.025-0.114-0.062-0.214-0.109-0.3
			c-0.049-0.086-0.107-0.154-0.178-0.204C121.641,28.015,121.561,27.99,121.471,27.99z"/>
		<path fill="#FFFFFF" d="M123.195,28.245c0.211-0.255,0.413-0.383,0.604-0.383c0.067,0,0.129,0.012,0.186,0.034
			c0.057,0.022,0.105,0.06,0.148,0.112c0.042,0.053,0.074,0.123,0.099,0.209c0.023,0.087,0.035,0.195,0.035,0.326v0.771
			c0,0.078,0.004,0.139,0.013,0.184c0.009,0.044,0.023,0.079,0.045,0.102c0.021,0.023,0.049,0.037,0.084,0.043
			c0.036,0.006,0.081,0.009,0.135,0.009v0.071h-0.894v-0.071h0.037c0.06,0,0.105-0.005,0.14-0.016
			c0.033-0.011,0.059-0.029,0.075-0.055c0.018-0.025,0.028-0.06,0.033-0.104c0.004-0.043,0.007-0.098,0.007-0.164v-0.739
			c0-0.165-0.021-0.284-0.064-0.358c-0.043-0.075-0.114-0.112-0.216-0.112c-0.156,0-0.312,0.085-0.467,0.256v0.953
			c0,0.12,0.007,0.195,0.021,0.227c0.009,0.02,0.019,0.037,0.03,0.052c0.011,0.014,0.026,0.026,0.045,0.034
			c0.02,0.009,0.045,0.015,0.075,0.019c0.031,0.004,0.071,0.006,0.121,0.006v0.071h-0.893v-0.071h0.039
			c0.047,0,0.086-0.005,0.116-0.016c0.03-0.011,0.054-0.029,0.072-0.056c0.018-0.026,0.029-0.061,0.036-0.104
			c0.007-0.042,0.01-0.097,0.01-0.163v-0.67c0-0.214-0.005-0.346-0.016-0.396c-0.009-0.047-0.023-0.08-0.044-0.097
			s-0.048-0.025-0.082-0.025c-0.037,0-0.081,0.01-0.132,0.029l-0.03-0.071l0.544-0.221h0.086V28.245z"/>
	</g>
</g>
<g>
	<path fill="#FFFFFF" d="M75.531,48.164h7.811l0.274,2.62h-0.218c-0.174-0.544-0.392-0.991-0.655-1.338
		c-0.258-0.338-0.58-0.594-0.965-0.768c-0.385-0.165-0.835-0.247-1.352-0.247h-0.197c-0.615,0-1.049,0.113-1.303,0.338
		c-0.258,0.23-0.387,0.629-0.387,1.198v2.395h0.697c0.709,0,1.226-0.113,1.55-0.338c0.329-0.221,0.551-0.622,0.669-1.205h0.211
		v3.754h-0.211c-0.089-0.53-0.216-0.932-0.38-1.204c-0.16-0.268-0.378-0.458-0.655-0.571c-0.287-0.108-0.684-0.162-1.19-0.162h-0.69
		v2.994c0,0.418,0.028,0.723,0.084,0.916c0.057,0.196,0.165,0.368,0.324,0.514c0.286,0.259,0.707,0.425,1.261,0.5v0.219h-4.677
		V57.56c0.502-0.084,0.871-0.279,1.106-0.585c0.178-0.229,0.268-0.678,0.268-1.345v-5.317c0-0.437-0.023-0.747-0.07-0.93
		c-0.052-0.202-0.139-0.367-0.261-0.493c-0.23-0.258-0.578-0.427-1.042-0.507V48.164z M76.792,57.215l-0.274,0.204h2.057
		l-0.275-0.204c-0.16-0.117-0.261-0.212-0.303-0.282c-0.047-0.065-0.071-0.171-0.071-0.316v-0.155
		c-0.005-0.014-0.007-0.04-0.007-0.077v-0.12v-6.585v-0.12c0-0.038,0.002-0.065,0.007-0.084v-0.148c0-0.141,0.026-0.251,0.078-0.331
		c0.042-0.07,0.141-0.16,0.296-0.268l0.401-0.296h-2.31l0.401,0.296c0.164,0.122,0.268,0.214,0.31,0.275
		c0.042,0.061,0.063,0.169,0.063,0.324c0.005,0.052,0.007,0.129,0.007,0.232v0.12v6.585v0.12c0,0.104-0.002,0.181-0.007,0.232
		c0,0.146-0.021,0.251-0.063,0.316C77.064,56.994,76.961,57.088,76.792,57.215z M81.138,52.968v-0.909
		c-0.104,0.103-0.204,0.186-0.303,0.247c-0.108,0.061-0.261,0.129-0.458,0.204C80.64,52.585,80.894,52.737,81.138,52.968z
		 M82.976,49.361l-0.155-0.937h-1.007c0.272,0.117,0.488,0.239,0.648,0.366C82.617,48.913,82.788,49.104,82.976,49.361z"/>
	<path fill="#FFFFFF" d="M84.167,52.981c0-0.676,0.131-1.326,0.394-1.951c0.258-0.615,0.625-1.16,1.099-1.634
		c0.46-0.46,1-0.821,1.62-1.084c0.615-0.253,1.261-0.38,1.937-0.38c0.911,0,1.754,0.226,2.528,0.676
		c0.77,0.46,1.383,1.075,1.838,1.845c0.451,0.775,0.676,1.618,0.676,2.528c0,0.672-0.127,1.315-0.38,1.93
		c-0.263,0.62-0.627,1.162-1.092,1.626s-1.002,0.829-1.613,1.092c-0.61,0.264-1.256,0.395-1.937,0.395
		c-0.925,0-1.775-0.226-2.55-0.676c-0.779-0.451-1.395-1.063-1.845-1.839C84.392,54.74,84.167,53.897,84.167,52.981z M87.089,57.313
		c-0.414-0.311-0.759-0.677-1.036-1.1c-0.282-0.427-0.488-0.913-0.62-1.458c-0.141-0.559-0.211-1.167-0.211-1.824
		c0-0.981,0.15-1.814,0.451-2.5c0.301-0.69,0.772-1.277,1.416-1.761c-0.559,0.3-1.036,0.667-1.43,1.099
		c-0.404,0.437-0.707,0.925-0.908,1.465c-0.211,0.54-0.317,1.12-0.317,1.74c0,0.61,0.106,1.188,0.317,1.732
		c0.202,0.545,0.504,1.04,0.908,1.486C86.054,56.635,86.53,57.008,87.089,57.313z M85.941,52.932c0,0.69,0.078,1.329,0.232,1.916
		c0.15,0.583,0.374,1.084,0.669,1.507c0.296,0.428,0.643,0.746,1.042,0.958c0.404,0.221,0.852,0.331,1.345,0.331
		c0.808,0,1.509-0.319,2.106-0.958c0.361-0.39,0.646-0.909,0.852-1.557c0.197-0.643,0.296-1.378,0.296-2.205
		c0-0.713-0.075-1.367-0.226-1.958c-0.155-0.582-0.373-1.078-0.655-1.486c-0.296-0.417-0.639-0.732-1.028-0.944
		c-0.404-0.221-0.857-0.331-1.359-0.331c-0.493,0-0.941,0.11-1.345,0.331c-0.404,0.226-0.749,0.545-1.036,0.958
		c-0.282,0.409-0.502,0.911-0.662,1.507C86.019,51.594,85.941,52.237,85.941,52.932z M90.956,57.32
		c1.718-0.995,2.578-2.442,2.578-4.339c0-0.62-0.094-1.204-0.282-1.753c-0.183-0.54-0.453-1.036-0.81-1.486
		c-0.352-0.432-0.763-0.777-1.232-1.035c1.028,0.901,1.542,2.305,1.542,4.212c0,0.559-0.049,1.091-0.148,1.599
		c-0.104,0.512-0.244,0.958-0.423,1.338c-0.108,0.226-0.204,0.396-0.289,0.514c-0.117,0.165-0.244,0.314-0.38,0.451
		C91.372,56.971,91.186,57.137,90.956,57.32z"/>
	<path fill="#FFFFFF" d="M99.344,52.735h-1.225v2.895c0,0.395,0.026,0.695,0.078,0.901c0.052,0.202,0.146,0.378,0.282,0.528
		c0.239,0.254,0.61,0.421,1.113,0.5v0.219h-4.479V57.56c0.502-0.084,0.871-0.279,1.106-0.585c0.178-0.229,0.268-0.678,0.268-1.345
		v-5.317c0-0.437-0.023-0.747-0.07-0.93c-0.052-0.202-0.139-0.367-0.261-0.493c-0.226-0.249-0.573-0.418-1.042-0.507v-0.218
		c0.042,0.005,0.101,0.007,0.176,0.007l0.62,0.036c0.249,0.014,0.538,0.021,0.866,0.021c0.521,0,0.993-0.021,1.416-0.063
		l0.987-0.084c0.31-0.028,0.615-0.042,0.915-0.042c0.554,0,1.05,0.057,1.486,0.169c0.432,0.112,0.801,0.274,1.105,0.486
		c0.301,0.211,0.533,0.47,0.697,0.775c0.164,0.314,0.247,0.66,0.247,1.035c0,0.634-0.217,1.127-0.648,1.479s-1.075,0.561-1.93,0.627
		c0.525,0.202,0.972,0.483,1.338,0.845s0.799,0.949,1.296,1.76c0.583,0.926,1.031,1.56,1.346,1.902
		c0.333,0.361,0.697,0.615,1.092,0.761v0.197c-0.498-0.005-0.933-0.052-1.303-0.142c-0.367-0.084-0.726-0.234-1.078-0.45
		c-0.451-0.277-0.871-0.65-1.261-1.12c-0.399-0.474-0.744-1.012-1.035-1.613l-0.374-0.782c-0.168-0.352-0.326-0.62-0.471-0.803
		c-0.132-0.164-0.294-0.277-0.486-0.338C99.929,52.766,99.673,52.735,99.344,52.735z M96.372,57.215l-0.274,0.204h2.057
		l-0.275-0.204c-0.16-0.117-0.261-0.212-0.303-0.282c-0.047-0.065-0.071-0.171-0.071-0.316v-0.155
		c-0.004-0.014-0.007-0.04-0.007-0.077v-0.12v-6.585v-0.12c0-0.038,0.002-0.065,0.007-0.084v-0.148c0-0.131,0.021-0.232,0.063-0.303
		c0.028-0.061,0.115-0.148,0.261-0.261l0.049-0.035l0.394-0.303l-0.253,0.014c-0.427,0.028-0.812,0.042-1.155,0.042
		c-0.211,0-0.5-0.007-0.866-0.021l0.373,0.268c0.155,0.108,0.256,0.197,0.303,0.268c0.047,0.075,0.07,0.186,0.07,0.331
		c0.005,0.052,0.007,0.129,0.007,0.232v0.12v6.585v0.12c0,0.104-0.002,0.181-0.007,0.232c0,0.146-0.021,0.251-0.063,0.316
		C96.645,56.994,96.541,57.088,96.372,57.215z M98.119,50.009v2.444h1.261c0.728,0,1.251-0.083,1.57-0.247
		c0.291-0.15,0.517-0.378,0.676-0.684c0.16-0.3,0.239-0.652,0.239-1.056c0-0.413-0.094-0.784-0.281-1.113
		c-0.188-0.324-0.453-0.58-0.796-0.768c-0.348-0.179-0.737-0.268-1.169-0.268c-0.648,0-1.085,0.202-1.31,0.606
		C98.182,49.155,98.119,49.517,98.119,50.009z M105.31,57.785c-0.244-0.132-0.445-0.256-0.605-0.373
		c-0.174-0.127-0.354-0.284-0.542-0.473c-0.235-0.249-0.425-0.476-0.571-0.683c-0.154-0.207-0.385-0.566-0.689-1.078
		c-0.319-0.525-0.59-0.932-0.811-1.218c-0.249-0.314-0.492-0.563-0.732-0.747c-0.249-0.192-0.519-0.347-0.81-0.465
		c0.192,0.188,0.347,0.378,0.465,0.571c0.08,0.131,0.197,0.35,0.352,0.655c0.028,0.047,0.061,0.104,0.096,0.169
		c0.035,0.065,0.055,0.105,0.06,0.12c0.014,0.028,0.061,0.126,0.141,0.296c0.503,0.981,1.043,1.726,1.62,2.232
		C103.859,57.304,104.535,57.635,105.31,57.785z M100.866,52.481c0.323-0.07,0.612-0.171,0.866-0.303
		c0.263-0.136,0.477-0.286,0.641-0.451c0.174-0.174,0.305-0.366,0.395-0.578c0.089-0.211,0.134-0.437,0.134-0.676
		c0-0.512-0.184-0.958-0.55-1.338c-0.366-0.38-0.85-0.624-1.45-0.732c0.276,0.15,0.502,0.324,0.676,0.521
		c0.188,0.211,0.326,0.439,0.415,0.683c0.094,0.268,0.141,0.545,0.141,0.831c0,0.517-0.101,0.935-0.303,1.254
		C101.629,52.021,101.307,52.284,100.866,52.481z"/>
	<path fill="#FFFFFF" d="M106.359,48.164h4.479v0.218c-0.545,0.084-0.939,0.277-1.184,0.578c-0.117,0.155-0.192,0.326-0.226,0.514
		c-0.042,0.197-0.062,0.477-0.062,0.838V54.2v0.247c0,0.305,0.025,0.587,0.077,0.848s0.13,0.504,0.236,0.729
		c0.105,0.226,0.233,0.42,0.384,0.585c0.248,0.276,0.565,0.492,0.95,0.647c0.381,0.16,0.782,0.239,1.204,0.239
		c0.61,0,1.14-0.152,1.585-0.458c0.441-0.3,0.774-0.729,1.001-1.288c0.178-0.451,0.268-1.062,0.268-1.832v-3.275
		c0-0.803-0.184-1.375-0.55-1.718c-0.306-0.291-0.688-0.472-1.148-0.542v-0.218h3.275v0.218c-0.31,0.084-0.562,0.211-0.754,0.38
		s-0.331,0.392-0.415,0.669c-0.085,0.272-0.127,0.62-0.127,1.042v3.437c0,0.573-0.035,1.033-0.105,1.381
		c-0.07,0.352-0.186,0.669-0.346,0.95c-0.216,0.386-0.485,0.705-0.81,0.958c-0.338,0.269-0.721,0.468-1.148,0.599
		c-0.437,0.137-0.901,0.205-1.394,0.205c-0.526,0-1.013-0.078-1.458-0.232c-0.442-0.146-0.832-0.367-1.17-0.662
		c-0.338-0.297-0.604-0.644-0.796-1.043c-0.263-0.554-0.395-1.343-0.395-2.366v-3.388c0-0.404-0.021-0.707-0.063-0.909
		c-0.052-0.202-0.141-0.374-0.268-0.514c-0.229-0.258-0.577-0.427-1.042-0.507V48.164z M109.557,48.432h-2.366l0.43,0.296
		c0.141,0.089,0.239,0.176,0.296,0.261c0.052,0.089,0.077,0.202,0.077,0.338c0,0.141,0.003,0.218,0.007,0.232v0.12v3.938
		c0,0.333,0.028,0.739,0.085,1.218c0.107,0.906,0.467,1.625,1.077,2.155c0.602,0.521,1.376,0.786,2.324,0.796
		c-0.953-0.207-1.669-0.629-2.147-1.268c-0.221-0.291-0.374-0.627-0.458-1.008c-0.09-0.361-0.134-0.854-0.134-1.479v-4.353v-0.12
		v-0.232c0.01-0.146,0.037-0.256,0.084-0.331c0.052-0.08,0.15-0.169,0.296-0.268L109.557,48.432z M115.558,48.432h-1.239
		c0.188,0.108,0.336,0.216,0.443,0.324c0.117,0.126,0.219,0.277,0.303,0.451C115.196,48.896,115.36,48.638,115.558,48.432z"/>
	<path fill="#FFFFFF" d="M69.435,60.31l0.81,2.543h-0.211c-0.235-0.45-0.483-0.844-0.747-1.18c-0.263-0.336-0.526-0.598-0.789-0.785
		c-0.545-0.404-1.193-0.606-1.944-0.606c-0.554,0-1.075,0.115-1.563,0.346c-0.503,0.234-0.939,0.568-1.31,1
		c-0.69,0.794-1.036,1.799-1.036,3.015c0,0.935,0.179,1.774,0.536,2.521c0.356,0.746,0.85,1.336,1.479,1.768
		c0.624,0.428,1.321,0.642,2.092,0.642c0.479,0,0.901-0.08,1.268-0.24c0.371-0.154,0.634-0.366,0.789-0.634
		c0.146-0.244,0.218-0.647,0.218-1.211v-0.239c0-0.418-0.028-0.729-0.084-0.931c-0.062-0.206-0.167-0.382-0.317-0.527
		c-0.287-0.269-0.707-0.426-1.261-0.473V65.1h4.338v0.218c-0.371,0.085-0.653,0.28-0.845,0.585c-0.131,0.23-0.197,0.679-0.197,1.346
		v1.281l0.43,0.648c-0.042-0.005-0.117-0.007-0.225-0.007c-0.376,0-0.724,0.03-1.042,0.091c-0.362,0.07-0.794,0.186-1.296,0.346
		c-0.526,0.169-0.958,0.279-1.296,0.33c-0.347,0.062-0.73,0.092-1.148,0.092c-1.531,0-2.73-0.427-3.599-1.281
		c-0.474-0.479-0.843-1.038-1.105-1.677c-0.268-0.643-0.401-1.298-0.401-1.965c0-0.699,0.136-1.359,0.408-1.979
		c0.272-0.624,0.65-1.171,1.134-1.641c0.483-0.47,1.047-0.838,1.69-1.105c0.648-0.264,1.329-0.395,2.043-0.395
		c0.427,0,0.917,0.044,1.472,0.134c0.08,0.005,0.181,0.019,0.303,0.042c0.286,0.052,0.504,0.092,0.655,0.119
		c0.16,0.033,0.298,0.05,0.416,0.05c0.033,0,0.065-0.002,0.099-0.007c0.033-0.005,0.084-0.008,0.155-0.008
		C69.393,60.316,69.421,60.314,69.435,60.31z M65.435,69.776c-0.526-0.184-0.953-0.376-1.282-0.578
		c-0.329-0.201-0.641-0.465-0.937-0.788c-0.399-0.456-0.704-0.979-0.916-1.571c-0.216-0.587-0.324-1.209-0.324-1.866
		c0-0.559,0.077-1.105,0.232-1.641c0.155-0.536,0.38-1.008,0.676-1.416c0.319-0.456,0.814-0.921,1.486-1.395
		c-0.667,0.323-1.235,0.716-1.704,1.176c-0.47,0.456-0.822,0.975-1.057,1.557c-0.24,0.577-0.359,1.197-0.359,1.859
		c0,0.812,0.176,1.562,0.528,2.247c0.343,0.681,0.836,1.232,1.479,1.655S64.627,69.691,65.435,69.776z M70.837,65.354h-2.338
		l0.416,0.31c0.155,0.117,0.258,0.211,0.31,0.281c0.042,0.07,0.063,0.176,0.063,0.317c0,0.061,0.002,0.103,0.007,0.127v0.105v0.119
		v1.071c0,0.375-0.04,0.669-0.12,0.88c-0.085,0.207-0.244,0.428-0.479,0.662c0.441-0.183,0.89-0.303,1.345-0.359v-2.254v-0.119
		c0-0.104,0.002-0.181,0.007-0.232c0-0.142,0.026-0.251,0.078-0.331c0.042-0.071,0.141-0.159,0.296-0.268L70.837,65.354z"/>
	<path fill="#FFFFFF" d="M76.352,64.762h-1.226v2.895c0,0.395,0.026,0.694,0.078,0.901c0.051,0.202,0.146,0.378,0.282,0.528
		c0.239,0.253,0.61,0.42,1.113,0.5v0.219h-4.479v-0.219c0.502-0.084,0.871-0.279,1.106-0.585c0.178-0.229,0.268-0.678,0.268-1.345
		v-5.318c0-0.437-0.023-0.746-0.07-0.929c-0.052-0.202-0.139-0.367-0.261-0.493c-0.226-0.249-0.573-0.418-1.042-0.507V60.19
		c0.042,0.004,0.101,0.007,0.176,0.007l0.62,0.035c0.249,0.014,0.538,0.021,0.866,0.021c0.521,0,0.993-0.021,1.416-0.063
		l0.986-0.085c0.31-0.027,0.615-0.042,0.916-0.042c0.554,0,1.049,0.057,1.486,0.169c0.432,0.113,0.8,0.274,1.105,0.486
		c0.301,0.211,0.533,0.47,0.697,0.774c0.165,0.314,0.247,0.66,0.247,1.035c0,0.634-0.216,1.127-0.648,1.479
		c-0.432,0.352-1.075,0.561-1.93,0.627c0.526,0.202,0.972,0.483,1.338,0.845c0.366,0.362,0.798,0.949,1.296,1.761
		c0.582,0.926,1.03,1.56,1.345,1.902c0.333,0.361,0.698,0.614,1.092,0.761v0.197c-0.498-0.005-0.932-0.052-1.303-0.142
		c-0.366-0.084-0.726-0.234-1.078-0.45c-0.451-0.277-0.871-0.65-1.261-1.12c-0.399-0.474-0.744-1.012-1.036-1.613l-0.373-0.781
		c-0.169-0.353-0.327-0.62-0.472-0.803c-0.132-0.165-0.294-0.277-0.486-0.339C76.936,64.792,76.68,64.762,76.352,64.762z
		 M73.379,69.241l-0.275,0.204h2.057l-0.274-0.204c-0.16-0.118-0.261-0.212-0.303-0.282c-0.047-0.065-0.071-0.171-0.071-0.316
		v-0.155c-0.005-0.015-0.007-0.04-0.007-0.077v-0.12v-6.586v-0.119c0-0.038,0.002-0.065,0.007-0.085v-0.147
		c0-0.132,0.021-0.232,0.063-0.303c0.028-0.062,0.115-0.148,0.261-0.261l0.049-0.035l0.394-0.303l-0.253,0.014
		c-0.427,0.028-0.812,0.042-1.155,0.042c-0.211,0-0.5-0.007-0.867-0.021l0.374,0.268c0.155,0.107,0.256,0.197,0.303,0.268
		c0.047,0.075,0.07,0.186,0.07,0.331c0.005,0.052,0.007,0.129,0.007,0.232v0.119v6.586v0.12c0,0.104-0.002,0.181-0.007,0.232
		c0,0.146-0.021,0.251-0.063,0.316C73.651,69.02,73.548,69.114,73.379,69.241z M75.126,62.035v2.444h1.261
		c0.728,0,1.251-0.082,1.571-0.246c0.291-0.15,0.516-0.378,0.676-0.684c0.159-0.3,0.239-0.652,0.239-1.057
		c0-0.413-0.094-0.784-0.282-1.112c-0.188-0.324-0.453-0.58-0.796-0.768c-0.348-0.179-0.737-0.268-1.169-0.268
		c-0.647,0-1.084,0.201-1.31,0.605C75.189,61.182,75.126,61.543,75.126,62.035z M82.317,69.812
		c-0.244-0.132-0.446-0.256-0.606-0.373c-0.174-0.127-0.354-0.284-0.542-0.473c-0.234-0.249-0.425-0.477-0.57-0.683
		c-0.155-0.207-0.385-0.566-0.69-1.078c-0.319-0.525-0.589-0.932-0.81-1.218c-0.249-0.315-0.493-0.563-0.732-0.747
		c-0.249-0.192-0.519-0.348-0.81-0.465c0.192,0.188,0.347,0.378,0.465,0.57c0.08,0.132,0.197,0.35,0.352,0.655
		c0.028,0.047,0.06,0.104,0.095,0.169c0.035,0.065,0.055,0.105,0.06,0.12c0.014,0.027,0.061,0.126,0.141,0.296
		c0.502,0.981,1.042,1.726,1.62,2.232C80.866,69.33,81.542,69.661,82.317,69.812z M77.873,64.508
		c0.324-0.07,0.613-0.172,0.866-0.303c0.263-0.137,0.477-0.287,0.641-0.451c0.173-0.174,0.305-0.366,0.394-0.577
		c0.089-0.212,0.134-0.437,0.134-0.677c0-0.511-0.183-0.957-0.549-1.338c-0.366-0.38-0.85-0.624-1.451-0.732
		c0.277,0.15,0.502,0.324,0.676,0.521c0.188,0.211,0.326,0.439,0.416,0.683c0.094,0.268,0.141,0.545,0.141,0.832
		c0,0.516-0.101,0.934-0.303,1.253C78.636,64.048,78.314,64.311,77.873,64.508z"/>
	<path fill="#FFFFFF" d="M90.41,68.029l-0.782-1.781h-3.627l-0.395,0.901c-0.188,0.437-0.282,0.8-0.282,1.091
		c0,0.239,0.056,0.448,0.169,0.627c0.103,0.174,0.268,0.319,0.493,0.438c0.216,0.117,0.503,0.211,0.859,0.281v0.219H83.19v-0.212
		c0.437-0.146,0.817-0.408,1.141-0.789c0.31-0.366,0.643-0.95,1-1.754l3.113-7.043h0.183l3.388,7.614
		c0.019,0.014,0.028,0.025,0.028,0.035c0.014,0.037,0.023,0.061,0.028,0.07c0.005,0.014,0.017,0.04,0.036,0.077l0.31,0.642
		c0.169,0.343,0.362,0.601,0.578,0.774s0.486,0.296,0.81,0.366v0.219h-4.494v-0.219c0.39-0.028,0.662-0.073,0.817-0.134
		c0.338-0.127,0.507-0.348,0.507-0.662C90.635,68.64,90.56,68.386,90.41,68.029z M84.05,69.445h1.43
		c-0.16-0.188-0.272-0.361-0.338-0.521c-0.066-0.155-0.099-0.319-0.099-0.493c0-0.094,0.002-0.157,0.007-0.19
		c-0.15,0.292-0.293,0.517-0.43,0.677C84.479,69.091,84.289,69.267,84.05,69.445z M86.127,65.952h3.367l-1.697-3.825L86.127,65.952z
		 M88.346,60.901l-0.401,0.923l2.711,6.106l0.07,0.155c0.146,0.31,0.218,0.54,0.218,0.689c0,0.202-0.115,0.426-0.345,0.67h1.859
		c-0.216-0.202-0.399-0.43-0.549-0.684c-0.169-0.272-0.35-0.627-0.542-1.063L88.346,60.901z"/>
	<path fill="#FFFFFF" d="M104.053,62.719v7.311h-0.212l-7.733-8.233l0.007,4.727c0,0.54,0.031,0.962,0.092,1.268
		c0.065,0.314,0.164,0.589,0.296,0.824c0.314,0.512,0.833,0.836,1.556,0.972v0.219h-3.684v-0.219
		c0.634-0.234,1.057-0.679,1.268-1.331c0.075-0.207,0.126-0.446,0.155-0.719c0.028-0.263,0.042-0.592,0.042-0.985v-5.043
		c-0.376-0.381-0.658-0.639-0.845-0.775c-0.193-0.136-0.418-0.244-0.676-0.323V60.19h2.733c0.112,0.197,0.234,0.376,0.366,0.535
		c0.023,0.014,0.075,0.07,0.155,0.169c0.028,0.033,0.055,0.064,0.081,0.096c0.026,0.03,0.046,0.057,0.06,0.08
		c0.033,0.033,0.06,0.062,0.081,0.085c0.021,0.023,0.034,0.04,0.039,0.049l5.952,6.36v-4.846c0-0.488-0.062-0.895-0.184-1.219
		c-0.122-0.31-0.316-0.554-0.584-0.732c-0.268-0.178-0.62-0.298-1.057-0.358V60.19h3.359v0.219
		c-0.502,0.136-0.838,0.361-1.008,0.676C104.14,61.399,104.053,61.944,104.053,62.719z M96.065,61.346l7.72,8.24v-1.106
		l-6.607-7.057c-0.305-0.319-0.547-0.641-0.725-0.965h-1.437C95.35,60.655,95.699,60.951,96.065,61.346z M95.143,69.445h1.437
		c-0.188-0.202-0.329-0.383-0.422-0.542c-0.099-0.146-0.19-0.334-0.275-0.564c-0.099,0.254-0.195,0.451-0.289,0.592
		C95.49,69.091,95.34,69.262,95.143,69.445z M104.277,60.458h-1.352c0.226,0.112,0.396,0.228,0.514,0.345
		c0.117,0.118,0.232,0.289,0.346,0.515c0.084-0.226,0.154-0.388,0.211-0.486C104.062,60.719,104.155,60.594,104.277,60.458z"/>
	<path fill="#FFFFFF" d="M106.138,65.008c0-0.676,0.131-1.326,0.394-1.951c0.259-0.615,0.625-1.159,1.1-1.634
		c0.46-0.46,1-0.821,1.619-1.085c0.615-0.253,1.262-0.38,1.938-0.38c0.911,0,1.753,0.226,2.528,0.676
		c0.77,0.461,1.383,1.075,1.838,1.846c0.451,0.774,0.677,1.618,0.677,2.528c0,0.671-0.127,1.314-0.381,1.93
		c-0.263,0.62-0.627,1.162-1.092,1.627s-1.002,0.829-1.612,1.092s-1.256,0.395-1.938,0.395c-0.925,0-1.774-0.226-2.549-0.677
		c-0.78-0.45-1.395-1.062-1.846-1.838C106.362,66.767,106.138,65.924,106.138,65.008z M109.061,69.339
		c-0.414-0.31-0.759-0.676-1.035-1.099c-0.282-0.427-0.489-0.913-0.62-1.457c-0.141-0.56-0.212-1.167-0.212-1.825
		c0-0.98,0.15-1.814,0.451-2.5c0.301-0.69,0.772-1.276,1.416-1.761c-0.559,0.301-1.035,0.667-1.43,1.099
		c-0.404,0.437-0.707,0.925-0.909,1.465c-0.211,0.541-0.316,1.12-0.316,1.74c0,0.61,0.105,1.188,0.316,1.732
		c0.202,0.545,0.505,1.04,0.909,1.486C108.025,68.661,108.502,69.034,109.061,69.339z M107.912,64.958
		c0,0.69,0.077,1.329,0.232,1.916c0.15,0.583,0.373,1.085,0.669,1.508c0.296,0.427,0.644,0.746,1.043,0.957
		c0.403,0.222,0.852,0.331,1.345,0.331c0.808,0,1.51-0.318,2.106-0.957c0.361-0.39,0.646-0.909,0.852-1.557
		c0.197-0.644,0.296-1.378,0.296-2.205c0-0.713-0.075-1.366-0.226-1.958c-0.154-0.582-0.373-1.077-0.654-1.485
		c-0.296-0.419-0.639-0.733-1.028-0.944c-0.404-0.221-0.857-0.331-1.359-0.331c-0.493,0-0.941,0.11-1.346,0.331
		c-0.403,0.226-0.749,0.545-1.035,0.958c-0.282,0.408-0.503,0.911-0.662,1.508C107.989,63.62,107.912,64.264,107.912,64.958z
		 M112.927,69.347c1.719-0.996,2.578-2.441,2.578-4.339c0-0.62-0.094-1.204-0.282-1.754c-0.183-0.54-0.453-1.035-0.81-1.486
		c-0.353-0.432-0.763-0.776-1.232-1.035c1.028,0.901,1.542,2.306,1.542,4.212c0,0.559-0.049,1.092-0.147,1.599
		c-0.104,0.513-0.244,0.958-0.423,1.338c-0.107,0.226-0.204,0.397-0.289,0.515c-0.117,0.164-0.244,0.314-0.38,0.451
		C113.343,68.997,113.157,69.163,112.927,69.347z"/>
	<path fill="#FFFFFF" d="M117.082,60.19h4.529v0.219c-0.568,0.084-0.975,0.276-1.219,0.577c-0.112,0.131-0.19,0.301-0.232,0.507
		c-0.047,0.192-0.07,0.475-0.07,0.845v5.375c0,0.347,0.021,0.624,0.063,0.83c0.032,0.197,0.104,0.364,0.211,0.501
		c0.212,0.268,0.613,0.401,1.204,0.401h0.148c0.314,0,0.622-0.05,0.923-0.148c0.296-0.089,0.603-0.244,0.923-0.465
		c0.31-0.211,0.627-0.479,0.95-0.803c0.334-0.343,0.662-0.726,0.986-1.147h0.219l-0.846,2.923h-7.79v-0.219
		c0.503-0.084,0.871-0.279,1.106-0.585c0.179-0.229,0.268-0.678,0.268-1.345v-5.318c0-0.437-0.023-0.746-0.07-0.929
		c-0.052-0.202-0.139-0.367-0.261-0.493c-0.23-0.259-0.577-0.428-1.043-0.507V60.19z M118.343,69.241l-0.274,0.204h2.057
		l-0.274-0.204c-0.16-0.118-0.261-0.212-0.303-0.282c-0.048-0.065-0.07-0.171-0.07-0.316v-0.155
		c-0.005-0.015-0.008-0.04-0.008-0.077v-0.12v-6.586v-0.119c0-0.038,0.003-0.065,0.008-0.085v-0.147
		c0-0.141,0.025-0.251,0.077-0.331c0.042-0.07,0.141-0.16,0.296-0.268l0.401-0.296h-2.303l0.394,0.296
		c0.165,0.122,0.268,0.214,0.311,0.274c0.042,0.061,0.063,0.169,0.063,0.324c0.004,0.052,0.007,0.129,0.007,0.232v0.119v6.586v0.12
		c0,0.104-0.003,0.181-0.007,0.232c0,0.146-0.021,0.251-0.063,0.316C118.615,69.02,118.512,69.114,118.343,69.241z M123.111,69.445
		h1.261l0.381-1.311C124.297,68.685,123.75,69.121,123.111,69.445z"/>
	<path fill="#FFFFFF" d="M132.811,68.029l-0.782-1.781h-3.627l-0.395,0.901c-0.188,0.437-0.282,0.8-0.282,1.091
		c0,0.239,0.057,0.448,0.169,0.627c0.104,0.174,0.268,0.319,0.493,0.438c0.216,0.117,0.502,0.211,0.859,0.281v0.219h-3.655v-0.212
		c0.437-0.146,0.816-0.408,1.141-0.789c0.31-0.366,0.644-0.95,1-1.754l3.113-7.043h0.184l3.388,7.614
		c0.019,0.014,0.028,0.025,0.028,0.035c0.014,0.037,0.023,0.061,0.027,0.07c0.005,0.014,0.017,0.04,0.035,0.077l0.311,0.642
		c0.169,0.343,0.361,0.601,0.577,0.774c0.217,0.174,0.486,0.296,0.811,0.366v0.219h-4.494v-0.219
		c0.39-0.028,0.662-0.073,0.817-0.134c0.338-0.127,0.507-0.348,0.507-0.662C133.035,68.64,132.96,68.386,132.811,68.029z
		 M126.45,69.445h1.43c-0.16-0.188-0.272-0.361-0.338-0.521c-0.066-0.155-0.099-0.319-0.099-0.493c0-0.094,0.002-0.157,0.007-0.19
		c-0.15,0.292-0.294,0.517-0.43,0.677C126.88,69.091,126.689,69.267,126.45,69.445z M128.527,65.952h3.367l-1.697-3.825
		L128.527,65.952z M130.746,60.901l-0.401,0.923l2.712,6.106l0.07,0.155c0.146,0.31,0.219,0.54,0.219,0.689
		c0,0.202-0.115,0.426-0.346,0.67h1.859c-0.216-0.202-0.399-0.43-0.549-0.684c-0.169-0.272-0.351-0.627-0.543-1.063L130.746,60.901z
		"/>
</g>
<polyline fill="none" stroke="#FFFFFF" stroke-width="2" points="44.889,48.917 15.683,48.944 32.175,67.796 15.683,87.487 
	56.976,87.435 44.997,78.041 44.997,40.818 151.127,40.818 151.127,78.041 139.649,87.435 181.164,87.487 164.673,67.796 
	181.164,48.944 150.812,49.029 "/>
<line fill="none" stroke="#FFFFFF" x1="45.36" y1="78.041" x2="151.49" y2="78.041"/>
</svg>
