<?xml version="1.0" encoding="utf-8"?>
<!-- Generator: Adobe Illustrator 16.0.0, SVG Export Plug-In . SVG Version: 6.00 Build 0)  -->
<!DOCTYPE svg PUBLIC "-//W3C//DTD SVG 1.1//EN" "http://www.w3.org/Graphics/SVG/1.1/DTD/svg11.dtd">
<svg version="1.1" id="Layer_1" xmlns="http://www.w3.org/2000/svg" xmlns:xlink="http://www.w3.org/1999/xlink" x="0px" y="0px"
	 width="197px" height="111px" viewBox="0 0 197 111" enable-background="new 0 0 197 111" xml:space="preserve">
<g>
	<g>
		<ellipse id="SVGID_1_" fill="none" stroke="#FFFFFF" cx="98.756" cy="54.823" rx="51.56" ry="51.317"/>
	</g>
</g>
<circle fill="none" stroke="#FFFFFF" cx="98.755" cy="54.948" r="44.431"/>
<g>
	<path fill="#FFFFFF" d="M72.628,81.531v0.912c0,0.197,0.022,0.318,0.065,0.366c0.058,0.066,0.147,0.103,0.266,0.103h0.119v0.085
		h-1.34v-0.085h0.117c0.065,0,0.121-0.012,0.17-0.034c0.048-0.021,0.087-0.053,0.114-0.095c0.031-0.051,0.047-0.162,0.047-0.339
		v-2.022c0-0.195-0.022-0.317-0.062-0.367c-0.061-0.068-0.15-0.101-0.268-0.101h-0.117v-0.086h1.147
		c0.279,0,0.499,0.027,0.663,0.088c0.08,0.028,0.155,0.066,0.224,0.117c0.069,0.049,0.13,0.107,0.182,0.174
		c0.052,0.067,0.093,0.143,0.124,0.223c0.029,0.08,0.045,0.168,0.045,0.263c0,0.128-0.021,0.243-0.065,0.35
		c-0.043,0.104-0.106,0.196-0.189,0.272c-0.083,0.075-0.183,0.135-0.303,0.178c-0.12,0.042-0.257,0.063-0.411,0.063
		C73,81.596,72.826,81.573,72.628,81.531z M72.628,81.399c0.084,0.015,0.156,0.025,0.218,0.034c0.062,0.008,0.116,0.012,0.161,0.012
		c0.08,0,0.156-0.016,0.227-0.05c0.071-0.033,0.134-0.078,0.187-0.138c0.052-0.06,0.095-0.131,0.127-0.212
		c0.031-0.081,0.046-0.17,0.046-0.267c0-0.114-0.017-0.217-0.051-0.306c-0.033-0.091-0.08-0.167-0.141-0.229
		c-0.06-0.063-0.13-0.11-0.21-0.143c-0.082-0.031-0.168-0.049-0.263-0.049c-0.04,0-0.084,0.004-0.135,0.012
		c-0.05,0.006-0.106,0.018-0.167,0.031v1.303H72.628z"/>
	<path fill="#FFFFFF" d="M75.054,80.82v0.476c0.179-0.317,0.36-0.476,0.544-0.476c0.042,0,0.081,0.006,0.115,0.021
		s0.067,0.032,0.094,0.058c0.027,0.022,0.047,0.051,0.062,0.082c0.015,0.029,0.021,0.063,0.021,0.098
		c0,0.059-0.02,0.109-0.059,0.151c-0.041,0.042-0.088,0.062-0.144,0.062c-0.026,0-0.055-0.009-0.088-0.024
		c-0.032-0.017-0.063-0.035-0.095-0.055c-0.031-0.019-0.06-0.037-0.087-0.055c-0.026-0.017-0.046-0.024-0.06-0.024
		c-0.021,0-0.042,0.009-0.067,0.026c-0.023,0.019-0.05,0.043-0.076,0.073c-0.026,0.032-0.053,0.068-0.081,0.113
		c-0.027,0.045-0.054,0.091-0.082,0.146v1.014c0,0.063,0.004,0.118,0.012,0.17c0.007,0.05,0.024,0.094,0.05,0.128
		c0.025,0.036,0.063,0.063,0.113,0.083c0.049,0.019,0.114,0.027,0.197,0.027v0.084h-1.083v-0.084c0.067,0,0.122-0.004,0.166-0.014
		s0.077-0.026,0.101-0.055c0.025-0.028,0.042-0.067,0.051-0.119s0.014-0.119,0.014-0.204v-0.82c0-0.247-0.005-0.394-0.016-0.437
		c-0.021-0.092-0.071-0.137-0.155-0.137c-0.047,0-0.102,0.013-0.161,0.033l-0.023-0.081l0.639-0.259h0.098V80.82z"/>
	<path fill="#FFFFFF" d="M77.043,80.82c0.15,0,0.287,0.028,0.412,0.087c0.125,0.061,0.232,0.138,0.322,0.236
		c0.09,0.1,0.16,0.213,0.209,0.343c0.05,0.132,0.075,0.27,0.075,0.413c0,0.152-0.026,0.299-0.077,0.437
		c-0.051,0.14-0.124,0.265-0.216,0.372s-0.203,0.193-0.331,0.257c-0.128,0.063-0.268,0.096-0.42,0.096
		c-0.149,0-0.285-0.03-0.407-0.094c-0.122-0.062-0.227-0.142-0.315-0.245c-0.088-0.102-0.155-0.22-0.203-0.352
		c-0.047-0.132-0.071-0.27-0.071-0.411c0-0.144,0.024-0.283,0.074-0.421c0.048-0.137,0.12-0.258,0.208-0.365
		c0.09-0.107,0.198-0.192,0.323-0.257C76.752,80.853,76.892,80.82,77.043,80.82z M76.972,80.97c-0.067,0-0.132,0.015-0.195,0.044
		c-0.063,0.028-0.118,0.073-0.167,0.138c-0.049,0.065-0.088,0.146-0.116,0.248c-0.029,0.101-0.045,0.224-0.045,0.368
		c0,0.148,0.017,0.293,0.048,0.429c0.032,0.138,0.076,0.257,0.133,0.362c0.058,0.104,0.128,0.187,0.21,0.248
		c0.083,0.061,0.175,0.092,0.276,0.092c0.074,0,0.142-0.014,0.204-0.044c0.062-0.027,0.116-0.074,0.163-0.138
		c0.045-0.065,0.082-0.147,0.108-0.252c0.026-0.105,0.04-0.233,0.04-0.385c0-0.153-0.015-0.295-0.044-0.431
		c-0.029-0.133-0.071-0.25-0.127-0.352c-0.057-0.102-0.126-0.18-0.207-0.239C77.17,80.999,77.078,80.97,76.972,80.97z"/>
	<path fill="#FFFFFF" d="M79.866,82.759c-0.103,0.108-0.204,0.185-0.301,0.231c-0.098,0.047-0.204,0.07-0.319,0.07
		c-0.115,0-0.226-0.025-0.329-0.076c-0.104-0.052-0.195-0.124-0.274-0.215c-0.079-0.093-0.142-0.2-0.188-0.326
		c-0.046-0.128-0.07-0.266-0.07-0.417c0-0.303,0.095-0.579,0.286-0.83c0.192-0.252,0.438-0.379,0.736-0.379
		c0.185,0,0.338,0.059,0.461,0.177v-0.691c0-0.029,0.001-0.06,0.003-0.094c0.003-0.031,0-0.063-0.008-0.093
		c-0.007-0.027-0.023-0.053-0.045-0.071c-0.023-0.02-0.061-0.029-0.113-0.029c-0.042,0-0.094,0.014-0.16,0.037l-0.03-0.081
		l0.63-0.258h0.104v2.444c0,0.25,0.005,0.402,0.016,0.455c0.012,0.054,0.031,0.091,0.056,0.112c0.025,0.023,0.055,0.033,0.089,0.033
		c0.041,0,0.094-0.014,0.167-0.039L80.6,82.8l-0.628,0.261h-0.106V82.759z M79.866,82.599v-1.091
		c-0.008-0.087-0.027-0.165-0.059-0.233c-0.032-0.067-0.069-0.125-0.115-0.171c-0.045-0.048-0.096-0.083-0.15-0.107
		c-0.055-0.022-0.109-0.035-0.165-0.035c-0.082,0-0.157,0.021-0.226,0.063c-0.068,0.043-0.13,0.103-0.181,0.181
		c-0.051,0.078-0.091,0.171-0.122,0.279c-0.029,0.109-0.044,0.229-0.044,0.361c0,0.155,0.02,0.293,0.057,0.413
		c0.038,0.119,0.088,0.221,0.148,0.302c0.061,0.082,0.132,0.144,0.211,0.185c0.078,0.042,0.158,0.063,0.239,0.063
		C79.6,82.808,79.735,82.738,79.866,82.599z"/>
	<path fill="#FFFFFF" d="M82.59,80.883v1.281c0,0.248,0.005,0.396,0.016,0.45c0.013,0.054,0.031,0.091,0.056,0.112
		c0.025,0.023,0.055,0.033,0.089,0.033c0.046,0,0.1-0.013,0.162-0.039l0.033,0.08l-0.632,0.26h-0.104v-0.446
		c-0.183,0.197-0.321,0.321-0.416,0.372c-0.096,0.051-0.196,0.074-0.303,0.074c-0.118,0-0.221-0.032-0.307-0.1
		c-0.087-0.066-0.147-0.156-0.182-0.267c-0.034-0.106-0.051-0.258-0.051-0.456v-0.944c0-0.069-0.005-0.125-0.017-0.169
		c-0.012-0.042-0.031-0.076-0.057-0.101c-0.026-0.021-0.061-0.037-0.103-0.044c-0.042-0.009-0.093-0.013-0.154-0.013h-0.027v-0.085
		h0.741v1.415c0,0.102,0.01,0.185,0.03,0.247c0.019,0.064,0.044,0.113,0.077,0.146c0.032,0.035,0.069,0.059,0.113,0.069
		s0.087,0.018,0.132,0.018c0.032,0,0.067-0.005,0.105-0.015c0.038-0.009,0.078-0.023,0.12-0.048
		c0.042-0.021,0.089-0.054,0.138-0.093c0.049-0.038,0.103-0.086,0.162-0.146V81.28c0-0.06-0.004-0.109-0.014-0.148
		s-0.027-0.071-0.052-0.096c-0.026-0.022-0.061-0.04-0.104-0.05c-0.043-0.011-0.1-0.017-0.169-0.019v-0.085H82.59z"/>
	<path fill="#FFFFFF" d="M84.896,82.194c-0.029,0.14-0.073,0.263-0.132,0.37c-0.059,0.109-0.127,0.199-0.205,0.273
		c-0.079,0.074-0.165,0.129-0.258,0.167c-0.093,0.037-0.191,0.056-0.291,0.056c-0.119,0-0.231-0.024-0.339-0.077
		c-0.107-0.053-0.203-0.126-0.286-0.224c-0.083-0.097-0.147-0.214-0.197-0.352s-0.074-0.295-0.074-0.465
		c0-0.167,0.027-0.319,0.082-0.457c0.053-0.138,0.125-0.255,0.218-0.354s0.199-0.175,0.321-0.229
		c0.123-0.055,0.252-0.082,0.39-0.082c0.103,0,0.198,0.015,0.285,0.046c0.087,0.03,0.162,0.07,0.226,0.12
		c0.063,0.049,0.113,0.104,0.149,0.162c0.035,0.062,0.054,0.12,0.054,0.179s-0.019,0.105-0.055,0.142
		c-0.037,0.036-0.09,0.055-0.16,0.055c-0.036,0-0.068-0.004-0.098-0.013c-0.03-0.007-0.056-0.021-0.078-0.04
		c-0.023-0.021-0.042-0.049-0.054-0.083c-0.014-0.035-0.022-0.081-0.027-0.138c-0.007-0.091-0.038-0.158-0.091-0.205
		c-0.053-0.047-0.127-0.07-0.226-0.07c-0.091,0-0.171,0.021-0.24,0.062c-0.068,0.042-0.128,0.097-0.176,0.166
		s-0.083,0.152-0.107,0.245c-0.024,0.094-0.036,0.191-0.036,0.297c0,0.123,0.016,0.242,0.048,0.355
		c0.031,0.114,0.077,0.216,0.135,0.307c0.059,0.089,0.131,0.159,0.216,0.214c0.084,0.054,0.181,0.081,0.289,0.081
		c0.065,0,0.126-0.008,0.184-0.024c0.059-0.017,0.115-0.044,0.169-0.083c0.053-0.041,0.105-0.097,0.156-0.166
		c0.05-0.069,0.098-0.158,0.144-0.266L84.896,82.194z"/>
	<path fill="#FFFFFF" d="M85.553,81.678c0,0.158,0.021,0.298,0.062,0.423c0.042,0.125,0.098,0.231,0.168,0.318
		c0.071,0.087,0.153,0.153,0.247,0.198c0.093,0.046,0.19,0.068,0.294,0.068c0.137,0,0.259-0.038,0.361-0.113
		c0.102-0.076,0.188-0.208,0.257-0.392l0.072,0.046c-0.018,0.103-0.049,0.205-0.097,0.305c-0.047,0.101-0.108,0.189-0.183,0.268
		c-0.075,0.077-0.162,0.142-0.261,0.19c-0.1,0.049-0.208,0.071-0.325,0.071c-0.125,0-0.245-0.024-0.357-0.075
		c-0.111-0.052-0.209-0.125-0.292-0.22s-0.15-0.209-0.199-0.343c-0.049-0.136-0.074-0.287-0.074-0.453
		c0-0.185,0.025-0.347,0.075-0.489s0.119-0.262,0.206-0.36c0.088-0.1,0.19-0.174,0.312-0.225c0.119-0.051,0.247-0.075,0.384-0.075
		c0.117,0,0.226,0.021,0.324,0.061c0.1,0.042,0.185,0.1,0.257,0.175c0.073,0.075,0.129,0.165,0.17,0.271
		c0.041,0.105,0.061,0.224,0.061,0.354h-1.46V81.678z M85.553,81.545h0.978c-0.005-0.136-0.023-0.231-0.048-0.286
		c-0.039-0.087-0.095-0.155-0.173-0.204c-0.076-0.05-0.155-0.074-0.238-0.074c-0.063,0-0.124,0.014-0.182,0.038
		c-0.059,0.025-0.111,0.063-0.159,0.112c-0.048,0.048-0.088,0.107-0.118,0.176C85.58,81.376,85.561,81.456,85.553,81.545z"/>
	<path fill="#FFFFFF" d="M88.788,82.759c-0.103,0.108-0.204,0.185-0.301,0.231c-0.098,0.047-0.204,0.07-0.319,0.07
		s-0.226-0.025-0.329-0.076c-0.104-0.052-0.195-0.124-0.274-0.215c-0.08-0.093-0.142-0.2-0.188-0.326
		c-0.047-0.128-0.071-0.266-0.071-0.417c0-0.303,0.096-0.579,0.287-0.83c0.193-0.252,0.438-0.379,0.737-0.379
		c0.184,0,0.338,0.059,0.46,0.177v-0.691c0-0.029,0.001-0.06,0.003-0.094c0.002-0.031,0-0.063-0.009-0.093
		c-0.007-0.027-0.022-0.053-0.045-0.071c-0.023-0.02-0.061-0.029-0.113-0.029c-0.042,0-0.094,0.014-0.159,0.037l-0.029-0.081
		l0.629-0.258h0.104v2.444c0,0.25,0.005,0.402,0.017,0.455c0.012,0.054,0.031,0.091,0.056,0.112
		c0.025,0.023,0.056,0.033,0.089,0.033c0.04,0,0.095-0.014,0.166-0.039l0.025,0.08l-0.628,0.261h-0.106L88.788,82.759L88.788,82.759
		z M88.788,82.599v-1.091c-0.007-0.087-0.027-0.165-0.058-0.233c-0.032-0.067-0.07-0.125-0.116-0.171
		c-0.045-0.048-0.095-0.083-0.149-0.107c-0.054-0.022-0.109-0.035-0.165-0.035c-0.082,0-0.157,0.021-0.226,0.063
		c-0.068,0.043-0.129,0.103-0.181,0.181c-0.051,0.078-0.091,0.171-0.122,0.279c-0.029,0.109-0.044,0.229-0.044,0.361
		c0,0.155,0.02,0.293,0.058,0.413c0.038,0.119,0.087,0.221,0.148,0.302c0.062,0.082,0.132,0.144,0.21,0.185
		c0.078,0.042,0.158,0.063,0.239,0.063C88.522,82.808,88.657,82.738,88.788,82.599z"/>
	<path fill="#FFFFFF" d="M92.876,81.399c0.128,0.027,0.236,0.065,0.326,0.112c0.09,0.049,0.164,0.104,0.22,0.169
		c0.058,0.066,0.099,0.137,0.125,0.214s0.039,0.159,0.039,0.245c0,0.077-0.013,0.154-0.038,0.23s-0.062,0.147-0.11,0.215
		c-0.047,0.066-0.106,0.127-0.175,0.182c-0.068,0.055-0.146,0.099-0.232,0.133c-0.171,0.065-0.433,0.098-0.785,0.098H90.77v-0.085
		h0.117c0.129,0,0.224-0.042,0.282-0.125c0.036-0.055,0.053-0.168,0.053-0.343v-2.022c0-0.192-0.022-0.314-0.067-0.367
		c-0.061-0.068-0.15-0.101-0.268-0.101H90.77v-0.086h1.353c0.251,0,0.455,0.02,0.607,0.055c0.115,0.028,0.217,0.068,0.306,0.118
		c0.089,0.051,0.163,0.11,0.224,0.178c0.061,0.066,0.105,0.143,0.135,0.224c0.03,0.082,0.046,0.169,0.046,0.261
		c0,0.157-0.048,0.296-0.143,0.421C93.201,81.249,93.061,81.338,92.876,81.399z M91.667,81.274c0.117,0.021,0.262,0.032,0.436,0.032
		c0.226,0,0.395-0.023,0.505-0.071c0.057-0.024,0.107-0.056,0.152-0.094c0.043-0.038,0.08-0.081,0.109-0.13s0.052-0.1,0.067-0.154
		c0.015-0.058,0.023-0.112,0.023-0.174c0-0.089-0.019-0.174-0.057-0.254c-0.038-0.081-0.093-0.151-0.167-0.211
		c-0.074-0.061-0.166-0.109-0.274-0.143c-0.109-0.036-0.235-0.054-0.378-0.054c-0.157,0-0.295,0.018-0.415,0.051L91.667,81.274
		L91.667,81.274z M91.667,82.771c0.176,0.041,0.353,0.063,0.528,0.063c0.14,0,0.264-0.019,0.37-0.051
		c0.106-0.034,0.196-0.081,0.269-0.141c0.072-0.06,0.127-0.129,0.163-0.207c0.036-0.079,0.054-0.164,0.054-0.255
		c0-0.1-0.02-0.194-0.059-0.281c-0.04-0.087-0.1-0.161-0.18-0.226c-0.081-0.064-0.182-0.113-0.304-0.151
		c-0.123-0.038-0.267-0.055-0.433-0.055c-0.097,0-0.179,0-0.247,0.004c-0.067,0.002-0.122,0.009-0.163,0.016v1.283H91.667z"/>
	<path fill="#FFFFFF" d="M93.873,80.883h0.986v0.085h-0.048c-0.069,0-0.122,0.015-0.156,0.046c-0.035,0.029-0.052,0.067-0.052,0.111
		c0,0.061,0.025,0.144,0.076,0.249l0.515,1.065l0.473-1.167c0.026-0.065,0.04-0.127,0.04-0.188c0-0.018-0.002-0.034-0.006-0.048
		c-0.004-0.015-0.015-0.025-0.029-0.037c-0.016-0.012-0.036-0.02-0.065-0.024c-0.029-0.004-0.066-0.008-0.112-0.008v-0.085h0.688
		v0.085c-0.04,0.004-0.072,0.011-0.099,0.019c-0.026,0.007-0.049,0.021-0.072,0.04c-0.023,0.021-0.044,0.053-0.065,0.094
		c-0.022,0.04-0.046,0.097-0.075,0.167l-0.863,2.107c-0.041,0.103-0.09,0.192-0.147,0.27c-0.058,0.078-0.117,0.143-0.18,0.193
		c-0.064,0.053-0.128,0.093-0.196,0.118c-0.067,0.027-0.131,0.041-0.192,0.041c-0.046,0-0.088-0.007-0.126-0.023
		c-0.038-0.015-0.07-0.032-0.097-0.058c-0.028-0.023-0.049-0.051-0.065-0.082c-0.017-0.03-0.023-0.063-0.023-0.097
		c0-0.065,0.021-0.116,0.064-0.156s0.1-0.06,0.175-0.06c0.017,0,0.042,0.004,0.075,0.015c0.032,0.01,0.067,0.02,0.102,0.028
		c0.035,0.01,0.066,0.021,0.093,0.028c0.027,0.01,0.045,0.015,0.054,0.015c0.022,0,0.046-0.005,0.072-0.017
		c0.025-0.012,0.052-0.029,0.08-0.057c0.026-0.025,0.054-0.062,0.081-0.106c0.027-0.046,0.056-0.102,0.083-0.171l0.149-0.366
		l-0.759-1.596c-0.007-0.017-0.021-0.039-0.038-0.067c-0.019-0.027-0.037-0.058-0.056-0.087c-0.021-0.027-0.041-0.055-0.06-0.079
		c-0.021-0.024-0.037-0.042-0.051-0.052c-0.033-0.023-0.09-0.045-0.171-0.064L93.873,80.883L93.873,80.883z"/>
	<path fill="#FFFFFF" d="M98.357,80.038v1.229h0.569c0.066,0,0.122-0.006,0.168-0.019c0.049-0.014,0.087-0.035,0.121-0.067
		c0.03-0.032,0.057-0.076,0.075-0.132c0.018-0.056,0.032-0.127,0.043-0.212h0.085v1.06h-0.084c-0.002-0.078-0.009-0.146-0.021-0.201
		c-0.016-0.057-0.036-0.101-0.068-0.136c-0.029-0.036-0.072-0.062-0.124-0.077c-0.051-0.016-0.115-0.024-0.195-0.024h-0.569v0.984
		c0,0.072,0.001,0.133,0.004,0.179c0.002,0.046,0.009,0.085,0.018,0.112c0.008,0.029,0.021,0.053,0.038,0.07
		c0.017,0.019,0.039,0.034,0.067,0.05c0.066,0.037,0.137,0.056,0.213,0.056h0.113v0.086h-1.343V82.91h0.111
		c0.131,0,0.225-0.038,0.282-0.112c0.037-0.048,0.055-0.166,0.055-0.354v-2.022c0-0.074-0.001-0.135-0.004-0.18
		c-0.003-0.047-0.009-0.085-0.018-0.113c-0.008-0.03-0.021-0.055-0.037-0.071c-0.016-0.017-0.037-0.031-0.065-0.048
		c-0.067-0.037-0.139-0.055-0.213-0.055h-0.111v-0.086h2.329v0.688h-0.051c-0.03-0.113-0.066-0.202-0.103-0.271
		c-0.038-0.066-0.085-0.118-0.14-0.156c-0.056-0.037-0.118-0.062-0.193-0.073c-0.073-0.011-0.161-0.017-0.263-0.017L98.357,80.038
		L98.357,80.038z"/>
	<path fill="#FFFFFF" d="M101.747,79.796c0.404,0,0.756,0.155,1.055,0.464c0.299,0.308,0.447,0.693,0.447,1.153
		c0,0.476-0.148,0.87-0.449,1.186c-0.3,0.313-0.662,0.47-1.089,0.47c-0.433,0-0.794-0.152-1.087-0.459s-0.438-0.702-0.438-1.188
		c0-0.498,0.17-0.902,0.508-1.216C100.986,79.932,101.338,79.796,101.747,79.796z M101.702,79.964c-0.157,0-0.299,0.033-0.421,0.102
		c-0.123,0.068-0.227,0.164-0.311,0.291c-0.084,0.124-0.148,0.276-0.191,0.455c-0.044,0.179-0.066,0.378-0.066,0.601
		c0,0.22,0.021,0.422,0.064,0.604c0.043,0.185,0.106,0.342,0.19,0.474s0.188,0.234,0.311,0.308s0.266,0.108,0.429,0.108
		c0.144,0,0.277-0.027,0.402-0.082c0.123-0.056,0.23-0.141,0.321-0.257c0.092-0.116,0.161-0.264,0.212-0.443
		c0.054-0.181,0.079-0.396,0.079-0.645c0-0.24-0.021-0.452-0.063-0.638c-0.043-0.187-0.108-0.346-0.193-0.476
		s-0.191-0.229-0.318-0.296C102.021,79.998,101.873,79.964,101.702,79.964z"/>
	<path fill="#FFFFFF" d="M106.625,82.997h-0.834l-1.062-1.464c-0.038,0.002-0.074,0.003-0.107,0.003
		c-0.03,0.001-0.06,0.001-0.083,0.001c-0.021,0-0.043,0-0.066-0.001c-0.021,0-0.046-0.001-0.07-0.003v0.91
		c0,0.197,0.022,0.318,0.064,0.366c0.06,0.066,0.147,0.103,0.263,0.103h0.123v0.085h-1.341v-0.085h0.117
		c0.13,0,0.226-0.045,0.285-0.129c0.031-0.049,0.049-0.161,0.049-0.339v-2.022c0-0.197-0.023-0.319-0.066-0.367
		c-0.061-0.068-0.15-0.101-0.268-0.101h-0.117v-0.086h1.14c0.33,0,0.573,0.023,0.734,0.072c0.079,0.023,0.152,0.059,0.221,0.105
		c0.067,0.046,0.129,0.101,0.18,0.163c0.052,0.063,0.093,0.134,0.123,0.212c0.028,0.078,0.045,0.162,0.045,0.251
		c0,0.098-0.017,0.188-0.047,0.271c-0.029,0.083-0.078,0.16-0.142,0.229c-0.065,0.068-0.145,0.129-0.242,0.181
		c-0.096,0.051-0.209,0.091-0.341,0.12l0.646,0.896c0.15,0.207,0.276,0.345,0.381,0.41c0.108,0.068,0.248,0.112,0.415,0.13V82.997z
		 M104.403,81.387c0.029,0,0.055,0,0.076,0.002c0.021,0,0.038,0,0.053,0c0.15,0,0.281-0.018,0.395-0.051
		c0.112-0.034,0.205-0.082,0.282-0.144c0.075-0.062,0.132-0.136,0.169-0.219c0.038-0.084,0.057-0.176,0.057-0.272
		c0-0.098-0.017-0.187-0.049-0.268c-0.031-0.08-0.078-0.151-0.137-0.208c-0.06-0.059-0.13-0.105-0.213-0.137
		c-0.082-0.032-0.171-0.049-0.271-0.049c-0.045,0-0.097,0.004-0.157,0.011c-0.062,0.007-0.128,0.019-0.205,0.033V81.387z"/>
	<path fill="#FFFFFF" d="M108.839,79.953v-0.086h1.107v0.086h-0.117c-0.122,0-0.217,0.051-0.284,0.153
		c-0.031,0.05-0.049,0.161-0.049,0.334v1.27c0,0.312-0.031,0.556-0.094,0.73c-0.04,0.113-0.098,0.209-0.171,0.289
		c-0.073,0.078-0.16,0.145-0.255,0.195c-0.099,0.051-0.204,0.087-0.321,0.111c-0.115,0.024-0.237,0.036-0.363,0.036
		c-0.339,0-0.6-0.061-0.778-0.177c-0.111-0.074-0.198-0.153-0.26-0.235c-0.06-0.083-0.104-0.173-0.133-0.272
		c-0.027-0.101-0.045-0.209-0.05-0.329c-0.005-0.122-0.007-0.259-0.007-0.413v-1.224c0-0.098-0.007-0.177-0.02-0.238
		s-0.034-0.11-0.062-0.143c-0.029-0.034-0.062-0.059-0.105-0.069c-0.042-0.013-0.092-0.018-0.152-0.018h-0.116v-0.086h1.353v0.086
		h-0.12c-0.074,0-0.133,0.01-0.178,0.03c-0.044,0.021-0.078,0.051-0.102,0.092c-0.023,0.04-0.038,0.089-0.045,0.146
		c-0.007,0.06-0.01,0.124-0.01,0.199v1.365c0,0.075,0.002,0.152,0.006,0.227c0.005,0.075,0.014,0.149,0.027,0.219
		c0.015,0.069,0.032,0.138,0.058,0.199c0.023,0.062,0.055,0.118,0.093,0.171c0.061,0.083,0.141,0.149,0.241,0.198
		c0.103,0.049,0.231,0.073,0.387,0.073c0.102,0,0.199-0.013,0.293-0.036c0.092-0.024,0.178-0.058,0.255-0.1
		c0.078-0.042,0.146-0.093,0.203-0.15c0.058-0.059,0.1-0.121,0.129-0.19c0.06-0.14,0.09-0.377,0.09-0.709v-1.267
		c0-0.197-0.021-0.319-0.064-0.367c-0.061-0.068-0.149-0.101-0.269-0.101L108.839,79.953L108.839,79.953z"/>
	<path fill="#FFFFFF" d="M113.347,79.796v1.083h-0.086c-0.026-0.208-0.077-0.374-0.149-0.496c-0.036-0.062-0.081-0.117-0.134-0.167
		c-0.053-0.049-0.11-0.092-0.173-0.125c-0.062-0.035-0.129-0.062-0.199-0.081c-0.069-0.021-0.141-0.029-0.21-0.029
		c-0.079,0-0.152,0.015-0.22,0.042c-0.066,0.025-0.126,0.062-0.177,0.107c-0.05,0.044-0.089,0.095-0.116,0.153
		c-0.026,0.058-0.04,0.118-0.04,0.179c0,0.086,0.02,0.16,0.06,0.225c0.04,0.065,0.095,0.123,0.165,0.177
		c0.069,0.055,0.152,0.106,0.247,0.157c0.096,0.051,0.197,0.106,0.309,0.164c0.124,0.066,0.242,0.13,0.354,0.194
		c0.112,0.063,0.21,0.133,0.297,0.208c0.085,0.075,0.153,0.162,0.203,0.261c0.05,0.098,0.076,0.215,0.076,0.353
		c0,0.115-0.024,0.227-0.073,0.333c-0.049,0.105-0.115,0.199-0.204,0.277c-0.087,0.079-0.19,0.142-0.312,0.19
		c-0.119,0.047-0.252,0.069-0.396,0.069c-0.055,0-0.102-0.002-0.14-0.003c-0.038-0.002-0.075-0.005-0.109-0.012
		c-0.036-0.004-0.072-0.014-0.11-0.024s-0.084-0.026-0.136-0.047c-0.037-0.015-0.074-0.025-0.112-0.037
		c-0.038-0.013-0.074-0.022-0.106-0.029c-0.031-0.008-0.061-0.015-0.082-0.019c-0.023-0.004-0.036-0.008-0.043-0.008
		c-0.037,0-0.069,0.012-0.092,0.035c-0.021,0.022-0.039,0.07-0.049,0.144h-0.085v-1.073h0.085c0.021,0.112,0.043,0.21,0.069,0.294
		c0.027,0.083,0.059,0.154,0.091,0.21c0.034,0.056,0.078,0.108,0.132,0.155c0.055,0.048,0.114,0.089,0.182,0.124
		c0.067,0.033,0.14,0.062,0.216,0.08c0.078,0.018,0.159,0.028,0.24,0.028c0.097,0,0.184-0.015,0.26-0.041s0.143-0.064,0.197-0.113
		c0.054-0.047,0.096-0.102,0.123-0.162c0.027-0.062,0.042-0.128,0.042-0.196c0-0.101-0.021-0.185-0.062-0.252
		c-0.041-0.067-0.098-0.13-0.166-0.185c-0.07-0.053-0.152-0.105-0.246-0.154c-0.093-0.049-0.19-0.104-0.294-0.166
		c-0.115-0.069-0.229-0.135-0.338-0.198c-0.109-0.062-0.204-0.129-0.287-0.204c-0.084-0.074-0.15-0.158-0.201-0.255
		c-0.05-0.095-0.074-0.208-0.074-0.342c0-0.111,0.023-0.215,0.069-0.315c0.046-0.1,0.11-0.188,0.191-0.263
		c0.081-0.075,0.178-0.135,0.29-0.179s0.234-0.067,0.365-0.067c0.162,0,0.34,0.043,0.528,0.123c0.083,0.038,0.145,0.058,0.183,0.058
		c0.04,0,0.072-0.012,0.098-0.036c0.025-0.022,0.046-0.07,0.062-0.145H113.347L113.347,79.796z"/>
	<path fill="#FFFFFF" d="M116.543,79.867v0.734h-0.053c-0.013-0.099-0.033-0.183-0.062-0.25c-0.029-0.068-0.067-0.124-0.113-0.167
		c-0.045-0.042-0.103-0.073-0.168-0.092c-0.065-0.02-0.143-0.027-0.23-0.027h-0.44v2.388c0,0.194,0.021,0.312,0.063,0.36
		c0.057,0.064,0.146,0.099,0.269,0.099h0.109v0.085h-1.327v-0.085h0.111c0.132,0,0.226-0.04,0.281-0.121
		c0.033-0.049,0.05-0.158,0.05-0.338v-2.39h-0.376c-0.095,0-0.178,0.008-0.249,0.021c-0.069,0.013-0.129,0.039-0.18,0.077
		c-0.049,0.039-0.089,0.094-0.118,0.165c-0.031,0.068-0.056,0.162-0.07,0.274h-0.087v-0.734H116.543z"/>
	<path fill="#FFFFFF" d="M118.947,79.867h1.092v0.086h-0.061c-0.02,0-0.043,0.004-0.075,0.013c-0.03,0.011-0.064,0.023-0.1,0.039
		c-0.036,0.018-0.071,0.039-0.109,0.066c-0.038,0.024-0.07,0.056-0.103,0.087c-0.03,0.033-0.066,0.077-0.104,0.132
		c-0.038,0.053-0.081,0.117-0.128,0.19l-0.754,1.19v0.782c0,0.194,0.021,0.312,0.065,0.36c0.056,0.064,0.149,0.099,0.276,0.099
		h0.102v0.085h-1.329v-0.085h0.111c0.131,0,0.227-0.04,0.281-0.121c0.033-0.049,0.051-0.158,0.051-0.338v-0.74l-0.857-1.311
		c-0.051-0.079-0.096-0.143-0.129-0.188c-0.034-0.047-0.062-0.08-0.079-0.1c-0.01-0.011-0.025-0.023-0.047-0.041
		c-0.023-0.019-0.049-0.035-0.08-0.055c-0.032-0.02-0.067-0.034-0.108-0.048c-0.04-0.013-0.08-0.019-0.122-0.019v-0.086h1.336v0.086
		h-0.067c-0.034,0-0.068,0.003-0.103,0.011c-0.035,0.008-0.067,0.02-0.094,0.036s-0.05,0.039-0.066,0.064
		c-0.019,0.026-0.026,0.057-0.026,0.091c0,0.057,0.046,0.156,0.141,0.3l0.652,1.009l0.614-0.965
		c0.092-0.145,0.139-0.251,0.139-0.322c-0.003-0.033-0.011-0.064-0.022-0.091c-0.011-0.027-0.026-0.052-0.051-0.071
		c-0.023-0.02-0.054-0.035-0.093-0.046c-0.04-0.012-0.091-0.016-0.151-0.016L118.947,79.867L118.947,79.867z"/>
	<path fill="#FFFFFF" d="M122.817,82.131l0.076,0.017l-0.27,0.85h-2.423v-0.085h0.118c0.131,0,0.225-0.045,0.284-0.129
		c0.031-0.049,0.049-0.162,0.049-0.343v-2.019c0-0.197-0.022-0.319-0.065-0.367c-0.061-0.068-0.149-0.101-0.268-0.101h-0.118v-0.086
		h1.418v0.086c-0.085,0-0.155,0.003-0.211,0.011c-0.056,0.009-0.103,0.02-0.138,0.034c-0.036,0.016-0.065,0.032-0.085,0.055
		c-0.021,0.022-0.038,0.043-0.053,0.066c-0.024,0.049-0.036,0.166-0.036,0.354v1.966c0,0.055,0,0.101,0.005,0.139
		c0.004,0.039,0.012,0.071,0.02,0.096c0.01,0.024,0.022,0.047,0.037,0.062c0.016,0.018,0.036,0.029,0.061,0.038
		c0.037,0.017,0.158,0.023,0.36,0.023h0.229c0.237,0,0.407-0.02,0.504-0.053c0.049-0.019,0.096-0.041,0.141-0.069
		c0.042-0.028,0.084-0.068,0.124-0.115c0.041-0.049,0.081-0.109,0.12-0.178C122.735,82.312,122.774,82.229,122.817,82.131z"/>
	<path fill="#FFFFFF" d="M123.982,80.038v1.236h0.688c0.102,0,0.183-0.008,0.245-0.025s0.111-0.046,0.147-0.082
		c0.035-0.038,0.06-0.086,0.073-0.145c0.014-0.055,0.021-0.123,0.026-0.202h0.087v1.089h-0.087c-0.011-0.077-0.021-0.14-0.032-0.188
		c-0.011-0.049-0.021-0.084-0.031-0.106c-0.014-0.027-0.032-0.051-0.054-0.071c-0.021-0.021-0.05-0.039-0.082-0.055
		c-0.034-0.016-0.074-0.027-0.123-0.034c-0.047-0.008-0.104-0.012-0.167-0.012h-0.688v1.03c0,0.138,0.006,0.223,0.019,0.254
		c0.007,0.015,0.014,0.026,0.023,0.039c0.009,0.012,0.022,0.022,0.039,0.031c0.019,0.007,0.04,0.015,0.069,0.02
		c0.027,0.006,0.064,0.008,0.106,0.008h0.532c0.091,0,0.166-0.002,0.227-0.009c0.062-0.006,0.113-0.015,0.16-0.027
		c0.044-0.013,0.084-0.03,0.118-0.055c0.035-0.023,0.07-0.056,0.11-0.092c0.049-0.046,0.095-0.105,0.146-0.178
		c0.048-0.071,0.098-0.157,0.146-0.253h0.094l-0.271,0.785h-2.411v-0.085h0.11c0.03,0,0.061-0.004,0.093-0.011
		c0.032-0.006,0.063-0.016,0.091-0.029c0.028-0.013,0.055-0.031,0.077-0.051c0.022-0.022,0.039-0.047,0.049-0.074
		c0.019-0.047,0.026-0.148,0.026-0.301v-2.034c0-0.196-0.02-0.318-0.059-0.366c-0.057-0.063-0.148-0.092-0.278-0.092h-0.112v-0.086
		h2.413v0.686h-0.055c-0.018-0.082-0.034-0.151-0.052-0.205c-0.017-0.053-0.035-0.1-0.057-0.133
		c-0.022-0.036-0.047-0.064-0.074-0.085c-0.027-0.021-0.062-0.039-0.1-0.058c-0.063-0.021-0.172-0.033-0.326-0.033h-0.857V80.038z"
		/>
</g>
<g>
	<circle fill="#FFFFFF" cx="108.942" cy="36.076" r="1.86"/>
	<circle fill="#FFFFFF" cx="98.756" cy="36.076" r="1.86"/>
	<circle fill="#FFFFFF" cx="88.569" cy="36.075" r="1.861"/>
</g>
<g>
	<g>
		<path fill="#FFFFFF" d="M73.908,28.973v0.765c0,0.165,0.018,0.268,0.054,0.308c0.049,0.057,0.123,0.085,0.223,0.085h0.101v0.072
			H73.16V30.13h0.099c0.054,0,0.102-0.009,0.142-0.027c0.041-0.019,0.072-0.046,0.095-0.082c0.026-0.042,0.039-0.136,0.039-0.285
			v-1.695c0-0.164-0.018-0.267-0.052-0.308c-0.05-0.057-0.126-0.086-0.225-0.086H73.16v-0.071h0.962
			c0.233,0,0.419,0.023,0.555,0.073c0.067,0.024,0.13,0.058,0.188,0.099c0.057,0.042,0.11,0.09,0.153,0.147
			c0.044,0.056,0.078,0.118,0.104,0.186c0.025,0.068,0.038,0.141,0.038,0.22c0,0.107-0.018,0.205-0.054,0.293
			c-0.036,0.089-0.089,0.165-0.158,0.228c-0.068,0.064-0.154,0.114-0.255,0.149c-0.1,0.036-0.214,0.054-0.344,0.054
			C74.219,29.027,74.072,29.009,73.908,28.973z M73.908,28.864c0.069,0.013,0.13,0.023,0.183,0.028
			c0.052,0.006,0.096,0.01,0.134,0.01c0.067,0,0.13-0.013,0.19-0.042c0.061-0.027,0.113-0.065,0.157-0.116
			c0.044-0.05,0.08-0.108,0.106-0.178c0.026-0.067,0.04-0.143,0.04-0.224c0-0.096-0.014-0.181-0.042-0.256
			c-0.028-0.076-0.067-0.139-0.119-0.192c-0.05-0.052-0.109-0.091-0.177-0.12c-0.067-0.026-0.141-0.04-0.22-0.04
			c-0.034,0-0.071,0.002-0.113,0.008s-0.089,0.016-0.14,0.028L73.908,28.864L73.908,28.864z"/>
		<path fill="#FFFFFF" d="M76.426,29.946c-0.181,0.142-0.295,0.223-0.342,0.244c-0.068,0.032-0.142,0.047-0.223,0.047
			c-0.061,0-0.116-0.01-0.167-0.032c-0.051-0.023-0.096-0.053-0.134-0.093c-0.038-0.04-0.067-0.088-0.088-0.144
			c-0.021-0.057-0.032-0.119-0.032-0.187c0-0.05,0.007-0.096,0.021-0.139c0.014-0.043,0.034-0.083,0.061-0.121
			c0.027-0.038,0.062-0.074,0.104-0.11c0.042-0.035,0.091-0.068,0.148-0.103c0.134-0.078,0.351-0.172,0.654-0.282v-0.069
			c0-0.09-0.007-0.164-0.023-0.223c-0.014-0.06-0.036-0.107-0.064-0.142c-0.028-0.035-0.062-0.061-0.103-0.075
			c-0.042-0.014-0.088-0.023-0.14-0.023c-0.041,0-0.078,0.005-0.111,0.019c-0.034,0.013-0.061,0.028-0.085,0.049
			c-0.023,0.02-0.042,0.043-0.053,0.069c-0.012,0.026-0.018,0.053-0.018,0.081l0.003,0.113c0,0.06-0.015,0.105-0.045,0.138
			c-0.031,0.032-0.069,0.047-0.12,0.047c-0.048,0-0.086-0.016-0.117-0.05c-0.03-0.034-0.045-0.079-0.045-0.136
			c0-0.055,0.015-0.108,0.044-0.161c0.029-0.054,0.07-0.101,0.126-0.144c0.055-0.042,0.123-0.077,0.204-0.102
			c0.08-0.026,0.172-0.039,0.275-0.039c0.136,0,0.252,0.021,0.348,0.061c0.096,0.041,0.164,0.11,0.208,0.207
			c0.023,0.057,0.035,0.17,0.035,0.341v0.602c0,0.085,0.001,0.153,0.003,0.205c0.001,0.051,0.004,0.087,0.007,0.106
			c0.006,0.037,0.017,0.063,0.031,0.075c0.016,0.013,0.031,0.02,0.051,0.02c0.014,0,0.025-0.003,0.037-0.006
			c0.012-0.004,0.025-0.012,0.042-0.023c0.015-0.012,0.033-0.027,0.054-0.046c0.021-0.021,0.046-0.047,0.079-0.079v0.108
			c-0.146,0.193-0.284,0.291-0.415,0.291c-0.062,0-0.113-0.022-0.15-0.066C76.447,30.129,76.426,30.052,76.426,29.946z
			 M76.426,29.821v-0.676c-0.098,0.039-0.178,0.071-0.241,0.099c-0.062,0.027-0.108,0.049-0.137,0.066
			c-0.102,0.059-0.174,0.119-0.218,0.179c-0.044,0.062-0.066,0.129-0.066,0.203c0,0.047,0.007,0.09,0.023,0.129
			c0.015,0.039,0.034,0.074,0.059,0.102c0.025,0.029,0.055,0.052,0.089,0.067c0.034,0.016,0.068,0.024,0.104,0.024
			C76.137,30.015,76.266,29.949,76.426,29.821z"/>
		<path fill="#FFFFFF" d="M77.79,27.45v2.351c0,0.056,0.002,0.103,0.006,0.138s0.01,0.064,0.017,0.085
			c0.008,0.022,0.018,0.038,0.03,0.049c0.011,0.011,0.027,0.023,0.045,0.031c0.031,0.018,0.093,0.027,0.188,0.027V30.2h-0.869V30.13
			c0.058,0,0.104-0.005,0.138-0.014c0.035-0.008,0.061-0.025,0.079-0.05c0.019-0.024,0.03-0.058,0.036-0.101
			c0.004-0.042,0.008-0.098,0.008-0.166V28.19c0-0.101,0-0.181-0.002-0.243c-0.002-0.062-0.005-0.103-0.011-0.125
			c-0.011-0.047-0.025-0.078-0.044-0.094c-0.02-0.017-0.044-0.025-0.076-0.025c-0.034,0-0.077,0.01-0.128,0.03l-0.032-0.067
			l0.528-0.217L77.79,27.45L77.79,27.45z"/>
		<path fill="#FFFFFF" d="M79.285,29.946c-0.182,0.142-0.296,0.223-0.342,0.244c-0.068,0.032-0.142,0.047-0.222,0.047
			c-0.061,0-0.118-0.01-0.168-0.032c-0.051-0.023-0.095-0.053-0.133-0.093c-0.038-0.04-0.067-0.088-0.088-0.144
			c-0.021-0.057-0.032-0.119-0.032-0.187c0-0.05,0.006-0.096,0.021-0.139c0.013-0.043,0.033-0.083,0.06-0.121
			c0.028-0.038,0.062-0.074,0.104-0.11s0.091-0.068,0.149-0.103c0.132-0.078,0.35-0.172,0.654-0.282v-0.069
			c0-0.09-0.008-0.164-0.023-0.223c-0.015-0.06-0.036-0.107-0.064-0.142c-0.028-0.036-0.063-0.061-0.104-0.075
			c-0.042-0.015-0.088-0.023-0.139-0.023c-0.041,0-0.078,0.005-0.111,0.019c-0.033,0.012-0.061,0.028-0.084,0.049
			c-0.022,0.02-0.041,0.043-0.053,0.069c-0.012,0.026-0.019,0.053-0.019,0.081l0.004,0.113c0,0.06-0.015,0.105-0.046,0.138
			c-0.03,0.032-0.069,0.047-0.119,0.047c-0.047,0-0.087-0.016-0.117-0.05s-0.045-0.079-0.045-0.136c0-0.055,0.015-0.108,0.043-0.161
			c0.029-0.054,0.07-0.101,0.125-0.144c0.056-0.042,0.123-0.077,0.204-0.102c0.081-0.026,0.172-0.039,0.276-0.039
			c0.137,0,0.252,0.021,0.348,0.061c0.096,0.041,0.164,0.11,0.206,0.207c0.023,0.057,0.035,0.17,0.035,0.341v0.602
			c0,0.085,0.001,0.153,0.003,0.205c0.001,0.051,0.004,0.087,0.006,0.106c0.006,0.037,0.018,0.063,0.033,0.075
			c0.014,0.013,0.032,0.02,0.051,0.02c0.013,0,0.025-0.003,0.037-0.006c0.012-0.004,0.024-0.012,0.041-0.023
			c0.016-0.012,0.034-0.027,0.055-0.046c0.02-0.021,0.046-0.047,0.079-0.079v0.108c-0.146,0.193-0.284,0.291-0.414,0.291
			c-0.062,0-0.113-0.022-0.151-0.066C79.305,30.129,79.285,30.052,79.285,29.946z M79.285,29.821v-0.676
			c-0.098,0.039-0.178,0.071-0.241,0.099s-0.107,0.049-0.135,0.066c-0.103,0.059-0.175,0.119-0.219,0.179
			c-0.043,0.062-0.066,0.129-0.066,0.203c0,0.047,0.008,0.09,0.023,0.129c0.015,0.039,0.035,0.074,0.06,0.102
			c0.025,0.029,0.054,0.052,0.089,0.067c0.033,0.016,0.068,0.024,0.104,0.024C78.996,30.015,79.125,29.949,79.285,29.821z"/>
		<path fill="#FFFFFF" d="M80.555,27.848v0.582h0.413v0.135h-0.413v1.15c0,0.058,0.004,0.106,0.013,0.145
			c0.009,0.038,0.021,0.068,0.037,0.09c0.016,0.022,0.033,0.037,0.055,0.046c0.022,0.007,0.044,0.011,0.071,0.011
			c0.042,0,0.083-0.013,0.124-0.039c0.041-0.026,0.071-0.066,0.092-0.118h0.076c-0.022,0.064-0.051,0.12-0.084,0.167
			c-0.034,0.048-0.068,0.088-0.107,0.118c-0.04,0.031-0.081,0.055-0.124,0.071c-0.044,0.017-0.087,0.024-0.131,0.024
			c-0.03,0-0.06-0.004-0.09-0.013c-0.031-0.008-0.059-0.02-0.086-0.037c-0.026-0.016-0.05-0.036-0.073-0.059
			c-0.021-0.023-0.039-0.051-0.052-0.081c-0.027-0.062-0.042-0.157-0.042-0.284v-1.192h-0.281v-0.064
			c0.071-0.028,0.143-0.076,0.218-0.144c0.075-0.068,0.14-0.147,0.198-0.24c0.014-0.025,0.032-0.06,0.053-0.104
			c0.022-0.044,0.045-0.1,0.071-0.165H80.555z"/>
		<path fill="#FFFFFF" d="M82.143,29.946c-0.181,0.142-0.296,0.223-0.341,0.244c-0.068,0.032-0.143,0.047-0.224,0.047
			c-0.061,0-0.116-0.01-0.168-0.032c-0.052-0.023-0.097-0.053-0.133-0.093c-0.038-0.04-0.067-0.088-0.088-0.144
			c-0.022-0.057-0.033-0.119-0.033-0.187c0-0.05,0.007-0.096,0.021-0.139c0.013-0.043,0.034-0.083,0.061-0.121
			c0.027-0.038,0.062-0.074,0.103-0.11c0.042-0.036,0.092-0.068,0.149-0.103c0.132-0.078,0.351-0.172,0.654-0.282v-0.069
			c0-0.09-0.007-0.164-0.022-0.223c-0.016-0.06-0.036-0.107-0.064-0.142c-0.028-0.036-0.063-0.061-0.104-0.075
			c-0.042-0.014-0.088-0.023-0.139-0.023c-0.041,0-0.078,0.005-0.112,0.019s-0.061,0.028-0.084,0.049
			c-0.022,0.02-0.041,0.043-0.053,0.069c-0.012,0.026-0.018,0.053-0.018,0.081l0.003,0.113c0,0.06-0.015,0.105-0.045,0.138
			c-0.031,0.032-0.07,0.047-0.12,0.047c-0.048,0-0.086-0.016-0.117-0.05c-0.03-0.034-0.045-0.079-0.045-0.136
			c0-0.055,0.014-0.108,0.043-0.161c0.029-0.054,0.07-0.101,0.126-0.144c0.054-0.042,0.123-0.077,0.203-0.102
			c0.08-0.026,0.172-0.039,0.275-0.039c0.137,0,0.253,0.021,0.348,0.061c0.095,0.041,0.165,0.11,0.207,0.207
			c0.023,0.057,0.035,0.17,0.035,0.341v0.602c0,0.085,0.001,0.153,0.002,0.205c0.002,0.051,0.004,0.087,0.006,0.106
			c0.007,0.037,0.018,0.063,0.032,0.075c0.015,0.013,0.032,0.02,0.051,0.02c0.013,0,0.025-0.003,0.037-0.006
			c0.012-0.004,0.025-0.012,0.04-0.023c0.017-0.012,0.034-0.027,0.055-0.046c0.021-0.021,0.047-0.047,0.079-0.079v0.108
			c-0.145,0.193-0.284,0.291-0.413,0.291c-0.062,0-0.113-0.022-0.151-0.066C82.159,30.129,82.143,30.052,82.143,29.946z
			 M82.143,29.821v-0.676c-0.097,0.039-0.179,0.071-0.241,0.099c-0.062,0.027-0.107,0.049-0.136,0.066
			c-0.102,0.059-0.174,0.119-0.219,0.179c-0.044,0.062-0.066,0.129-0.066,0.203c0,0.047,0.007,0.09,0.022,0.129
			s0.035,0.074,0.06,0.102c0.025,0.029,0.054,0.052,0.088,0.067c0.034,0.016,0.068,0.024,0.105,0.024
			C81.854,30.015,81.984,29.949,82.143,29.821z"/>
		<path fill="#FFFFFF" d="M83.384,28.735c0.173-0.239,0.358-0.359,0.556-0.359c0.088,0,0.174,0.021,0.256,0.061
			c0.081,0.04,0.154,0.098,0.216,0.173c0.063,0.075,0.113,0.167,0.15,0.273c0.037,0.106,0.057,0.228,0.057,0.363
			c0,0.317-0.104,0.569-0.313,0.76c-0.181,0.165-0.381,0.248-0.6,0.248c-0.204,0-0.417-0.075-0.64-0.225v-1.836
			c0-0.198-0.005-0.322-0.015-0.371c-0.008-0.047-0.024-0.078-0.044-0.095c-0.022-0.017-0.047-0.025-0.077-0.025
			c-0.038,0-0.083,0.01-0.136,0.031l-0.027-0.067l0.532-0.217h0.088v1.284H83.384z M83.384,28.859v1.061
			c0.132,0.13,0.272,0.195,0.42,0.195c0.059,0,0.115-0.017,0.172-0.049c0.058-0.033,0.108-0.082,0.154-0.146
			c0.046-0.064,0.083-0.143,0.112-0.237c0.028-0.093,0.042-0.203,0.042-0.325c0-0.112-0.014-0.212-0.042-0.3
			c-0.028-0.088-0.065-0.161-0.111-0.221c-0.047-0.06-0.1-0.105-0.16-0.137c-0.06-0.031-0.121-0.048-0.184-0.048
			c-0.031,0-0.061,0.002-0.09,0.008c-0.029,0.005-0.061,0.015-0.091,0.03c-0.032,0.015-0.065,0.036-0.101,0.063
			S83.427,28.815,83.384,28.859z"/>
		<path fill="#FFFFFF" d="M85.49,28.376v1.424c0,0.056,0.001,0.103,0.005,0.138c0.005,0.036,0.01,0.065,0.018,0.086
			c0.008,0.022,0.019,0.038,0.03,0.049c0.012,0.011,0.026,0.022,0.042,0.03c0.034,0.018,0.091,0.027,0.173,0.027V30.2h-0.86V30.13
			c0.044,0,0.08-0.002,0.107-0.006c0.027-0.003,0.05-0.009,0.067-0.019c0.017-0.009,0.031-0.021,0.042-0.034
			c0.009-0.013,0.019-0.029,0.028-0.049c0.019-0.04,0.027-0.114,0.027-0.222v-0.682c0-0.113-0.001-0.201-0.005-0.266
			c-0.003-0.065-0.011-0.113-0.021-0.145c-0.01-0.032-0.024-0.052-0.042-0.061c-0.02-0.008-0.042-0.013-0.071-0.013
			c-0.036,0-0.081,0.01-0.131,0.03l-0.027-0.069l0.533-0.217H85.49z M85.33,27.45c0.027,0,0.052,0.005,0.076,0.016
			c0.024,0.011,0.044,0.024,0.062,0.042c0.018,0.017,0.032,0.038,0.041,0.061c0.011,0.024,0.016,0.049,0.016,0.077
			c0,0.027-0.005,0.052-0.016,0.076c-0.009,0.023-0.023,0.045-0.041,0.063c-0.018,0.019-0.038,0.032-0.062,0.042
			c-0.024,0.011-0.049,0.015-0.076,0.015s-0.053-0.004-0.077-0.015c-0.024-0.01-0.046-0.023-0.063-0.042
			c-0.018-0.019-0.032-0.04-0.042-0.063c-0.01-0.024-0.016-0.049-0.016-0.076c0-0.027,0.006-0.053,0.016-0.077
			c0.011-0.023,0.024-0.044,0.042-0.061c0.017-0.018,0.038-0.032,0.063-0.042C85.278,27.456,85.303,27.45,85.33,27.45z"/>
		<path fill="#FFFFFF" d="M86.589,27.45v2.351c0,0.056,0.002,0.103,0.006,0.138c0.003,0.036,0.01,0.064,0.018,0.085
			c0.007,0.022,0.019,0.038,0.03,0.049c0.012,0.011,0.027,0.023,0.045,0.031c0.031,0.018,0.093,0.027,0.188,0.027V30.2h-0.87V30.13
			c0.058,0,0.104-0.005,0.138-0.014c0.035-0.008,0.061-0.025,0.08-0.05c0.018-0.024,0.03-0.058,0.035-0.101
			c0.004-0.042,0.008-0.098,0.008-0.166V28.19c0-0.101-0.001-0.181-0.003-0.243c-0.001-0.062-0.005-0.103-0.011-0.125
			c-0.01-0.047-0.025-0.078-0.044-0.094c-0.02-0.017-0.044-0.025-0.075-0.025c-0.035,0-0.077,0.01-0.128,0.03l-0.032-0.067
			l0.528-0.217L86.589,27.45L86.589,27.45z"/>
		<path fill="#FFFFFF" d="M87.692,28.376v1.424c0,0.056,0.001,0.103,0.005,0.138c0.004,0.036,0.009,0.065,0.018,0.086
			c0.007,0.022,0.018,0.038,0.03,0.049c0.012,0.011,0.026,0.022,0.042,0.03c0.034,0.018,0.091,0.027,0.174,0.027V30.2h-0.86V30.13
			c0.044,0,0.079-0.002,0.107-0.006c0.027-0.003,0.05-0.009,0.067-0.019c0.017-0.009,0.032-0.021,0.041-0.034
			c0.01-0.013,0.02-0.029,0.028-0.049c0.019-0.04,0.027-0.114,0.027-0.222v-0.682c0-0.113-0.002-0.201-0.005-0.266
			c-0.003-0.065-0.011-0.113-0.021-0.145c-0.01-0.032-0.024-0.052-0.042-0.061c-0.019-0.008-0.042-0.013-0.07-0.013
			c-0.036,0-0.08,0.01-0.131,0.03l-0.027-0.069l0.534-0.217H87.692z M87.531,27.45c0.027,0,0.053,0.005,0.077,0.016
			c0.023,0.011,0.044,0.024,0.062,0.042c0.017,0.017,0.031,0.038,0.041,0.061c0.011,0.024,0.015,0.049,0.015,0.077
			c0,0.027-0.004,0.052-0.015,0.076c-0.01,0.023-0.024,0.045-0.041,0.063c-0.017,0.019-0.038,0.032-0.062,0.042
			c-0.024,0.011-0.05,0.015-0.077,0.015s-0.053-0.004-0.077-0.015c-0.024-0.01-0.045-0.023-0.063-0.042
			c-0.017-0.019-0.031-0.04-0.042-0.063c-0.009-0.024-0.015-0.049-0.015-0.076c0-0.027,0.005-0.053,0.015-0.077
			c0.011-0.023,0.024-0.044,0.042-0.061c0.018-0.018,0.039-0.032,0.063-0.042C87.478,27.456,87.504,27.45,87.531,27.45z"/>
		<path fill="#FFFFFF" d="M88.695,27.848v0.582h0.414v0.135h-0.414v1.15c0,0.058,0.004,0.106,0.014,0.145
			c0.01,0.038,0.022,0.068,0.037,0.09c0.016,0.022,0.034,0.037,0.056,0.046c0.022,0.007,0.045,0.011,0.07,0.011
			c0.042,0,0.084-0.013,0.124-0.039c0.04-0.026,0.071-0.066,0.093-0.118h0.075c-0.023,0.064-0.051,0.12-0.083,0.167
			c-0.034,0.048-0.068,0.088-0.108,0.118c-0.039,0.031-0.08,0.055-0.123,0.071c-0.044,0.017-0.088,0.024-0.131,0.024
			c-0.029,0-0.06-0.004-0.09-0.013c-0.03-0.008-0.059-0.02-0.085-0.037c-0.026-0.016-0.051-0.036-0.073-0.059
			c-0.021-0.023-0.039-0.051-0.052-0.081c-0.028-0.062-0.041-0.157-0.041-0.284v-1.192h-0.281v-0.064
			c0.071-0.028,0.144-0.076,0.218-0.144s0.14-0.147,0.199-0.24c0.014-0.025,0.032-0.06,0.053-0.104
			c0.021-0.044,0.045-0.1,0.071-0.165H88.695z"/>
		<path fill="#FFFFFF" d="M89.181,28.43h0.826v0.071h-0.042c-0.057,0-0.102,0.013-0.13,0.038s-0.043,0.057-0.043,0.093
			c0,0.05,0.022,0.12,0.064,0.208l0.431,0.894l0.397-0.979c0.021-0.055,0.033-0.106,0.033-0.156c0-0.016-0.002-0.029-0.006-0.042
			c-0.004-0.012-0.012-0.022-0.024-0.03c-0.012-0.009-0.03-0.016-0.054-0.021S90.579,28.5,90.541,28.5v-0.071h0.576V28.5
			c-0.034,0.005-0.062,0.009-0.084,0.015c-0.021,0.007-0.042,0.018-0.06,0.035c-0.02,0.018-0.037,0.043-0.055,0.077
			c-0.017,0.034-0.039,0.082-0.062,0.14l-0.721,1.768c-0.035,0.085-0.076,0.161-0.124,0.226c-0.047,0.065-0.097,0.12-0.15,0.163
			s-0.107,0.076-0.164,0.098c-0.056,0.023-0.111,0.034-0.162,0.034c-0.039,0-0.074-0.007-0.105-0.019
			c-0.031-0.012-0.058-0.028-0.082-0.048s-0.041-0.043-0.055-0.068c-0.013-0.026-0.019-0.053-0.019-0.082
			c0-0.054,0.017-0.097,0.053-0.131c0.036-0.033,0.084-0.048,0.146-0.048c0.014,0,0.036,0.003,0.063,0.012
			c0.027,0.008,0.057,0.016,0.086,0.023s0.055,0.016,0.078,0.024c0.023,0.007,0.039,0.012,0.044,0.012
			c0.02,0,0.041-0.004,0.062-0.013c0.022-0.009,0.043-0.025,0.066-0.046c0.023-0.022,0.045-0.053,0.068-0.09
			c0.023-0.038,0.045-0.085,0.069-0.143l0.126-0.306l-0.637-1.336c-0.007-0.014-0.017-0.034-0.033-0.058
			c-0.015-0.024-0.03-0.048-0.046-0.073c-0.017-0.025-0.034-0.046-0.05-0.067c-0.017-0.021-0.031-0.035-0.042-0.042
			c-0.027-0.021-0.075-0.039-0.143-0.054V28.43H89.181z"/>
		<path fill="#FFFFFF" d="M94.151,28.512h0.812v0.071c-0.113,0.01-0.195,0.035-0.25,0.075c-0.053,0.041-0.136,0.164-0.25,0.368
			c-0.115,0.205-0.243,0.396-0.384,0.575c0.059,0.067,0.113,0.124,0.163,0.17c0.05,0.046,0.099,0.084,0.145,0.113
			c0.047,0.028,0.091,0.049,0.136,0.06c0.045,0.012,0.09,0.019,0.137,0.019c0.089,0,0.164-0.023,0.226-0.072
			c0.062-0.049,0.106-0.119,0.132-0.213l0.071,0.052c-0.048,0.181-0.125,0.317-0.23,0.402c-0.105,0.085-0.229,0.129-0.37,0.129
			c-0.053,0-0.105-0.006-0.158-0.02c-0.053-0.013-0.107-0.036-0.164-0.067c-0.056-0.03-0.113-0.069-0.172-0.117
			c-0.06-0.047-0.121-0.106-0.185-0.174c-0.161,0.142-0.306,0.241-0.433,0.296c-0.128,0.054-0.264,0.081-0.41,0.081
			c-0.107,0-0.204-0.015-0.289-0.046c-0.084-0.031-0.158-0.072-0.217-0.124c-0.061-0.053-0.108-0.113-0.139-0.184
			c-0.033-0.069-0.049-0.145-0.049-0.221c0-0.156,0.057-0.312,0.168-0.467c0.112-0.156,0.322-0.317,0.632-0.483
			c-0.032-0.068-0.057-0.13-0.077-0.183c-0.019-0.053-0.036-0.102-0.048-0.146c-0.011-0.044-0.021-0.087-0.025-0.125
			c-0.004-0.04-0.006-0.08-0.006-0.121c0-0.096,0.018-0.184,0.052-0.263c0.035-0.078,0.083-0.146,0.145-0.203
			c0.062-0.057,0.133-0.099,0.214-0.129c0.083-0.03,0.17-0.045,0.265-0.045c0.075,0,0.144,0.012,0.207,0.037
			c0.064,0.025,0.119,0.058,0.166,0.101c0.045,0.042,0.083,0.092,0.108,0.15c0.026,0.057,0.039,0.119,0.039,0.184
			c0,0.138-0.046,0.258-0.141,0.36c-0.047,0.051-0.111,0.105-0.193,0.16c-0.082,0.056-0.182,0.115-0.302,0.178
			c0.082,0.146,0.167,0.288,0.251,0.419c0.086,0.133,0.173,0.26,0.261,0.382c0.227-0.272,0.34-0.5,0.34-0.684
			c0-0.024-0.004-0.049-0.011-0.075c-0.007-0.025-0.02-0.048-0.033-0.067c-0.016-0.021-0.034-0.037-0.057-0.051
			c-0.023-0.014-0.049-0.023-0.078-0.027v-0.072H94.151z M93.711,29.772c-0.085-0.117-0.157-0.218-0.216-0.301
			c-0.058-0.083-0.104-0.153-0.138-0.207c-0.032-0.053-0.068-0.114-0.103-0.18c-0.036-0.065-0.074-0.139-0.113-0.219
			c-0.312,0.18-0.467,0.394-0.467,0.642c0,0.068,0.011,0.134,0.035,0.196c0.024,0.062,0.056,0.117,0.099,0.165
			c0.043,0.048,0.094,0.087,0.155,0.115c0.061,0.03,0.129,0.043,0.205,0.043c0.042,0,0.081-0.003,0.118-0.01
			c0.038-0.007,0.077-0.019,0.118-0.037c0.042-0.019,0.087-0.044,0.136-0.077C93.588,29.87,93.646,29.827,93.711,29.772z
			 M93.412,28.563c0.319-0.152,0.477-0.346,0.477-0.582c0-0.045-0.007-0.088-0.022-0.127c-0.017-0.041-0.037-0.074-0.063-0.104
			c-0.026-0.029-0.059-0.051-0.094-0.067c-0.037-0.016-0.076-0.024-0.119-0.024c-0.057,0-0.106,0.011-0.149,0.034
			c-0.042,0.023-0.078,0.051-0.106,0.086c-0.028,0.034-0.05,0.071-0.063,0.113c-0.015,0.041-0.022,0.079-0.022,0.115
			c0,0.033,0.002,0.066,0.006,0.1c0.004,0.032,0.013,0.069,0.025,0.111c0.012,0.042,0.028,0.09,0.049,0.145
			C93.351,28.418,93.378,28.485,93.412,28.563z"/>
		<path fill="#FFFFFF" d="M98.494,27.579v0.615h-0.044c-0.011-0.083-0.027-0.153-0.051-0.21c-0.024-0.058-0.055-0.104-0.094-0.139
			c-0.039-0.035-0.086-0.061-0.141-0.077c-0.055-0.017-0.121-0.024-0.193-0.024H97.6v2.004c0,0.161,0.017,0.261,0.052,0.301
			c0.048,0.055,0.123,0.082,0.226,0.082h0.091v0.072h-1.113V30.13h0.092c0.111,0,0.19-0.034,0.236-0.101
			c0.028-0.04,0.043-0.134,0.043-0.282v-2.004h-0.315c-0.081,0-0.15,0.006-0.208,0.018c-0.06,0.012-0.109,0.033-0.15,0.066
			c-0.042,0.031-0.075,0.078-0.102,0.137c-0.026,0.06-0.045,0.136-0.058,0.23H96.32v-0.615H98.494z"/>
		<path fill="#FFFFFF" d="M99.749,29.946c-0.182,0.142-0.296,0.223-0.341,0.244c-0.068,0.032-0.144,0.047-0.225,0.047
			c-0.059,0-0.115-0.01-0.167-0.032c-0.053-0.023-0.097-0.053-0.134-0.093c-0.038-0.04-0.067-0.088-0.088-0.144
			c-0.021-0.057-0.032-0.119-0.032-0.187c0-0.05,0.006-0.096,0.021-0.139c0.014-0.043,0.035-0.083,0.062-0.121
			c0.027-0.038,0.062-0.074,0.104-0.11c0.041-0.036,0.09-0.068,0.146-0.103c0.134-0.078,0.352-0.172,0.655-0.282v-0.069
			c0-0.09-0.007-0.164-0.021-0.223c-0.015-0.06-0.037-0.107-0.066-0.142c-0.027-0.035-0.061-0.061-0.103-0.075
			c-0.041-0.014-0.088-0.023-0.14-0.023c-0.041,0-0.078,0.005-0.111,0.019s-0.062,0.028-0.085,0.049
			c-0.021,0.02-0.04,0.043-0.053,0.069c-0.013,0.026-0.019,0.053-0.019,0.081l0.004,0.113c0,0.06-0.017,0.105-0.046,0.138
			c-0.03,0.032-0.068,0.047-0.119,0.047c-0.048,0-0.087-0.016-0.118-0.05c-0.03-0.034-0.045-0.079-0.045-0.136
			c0-0.055,0.014-0.108,0.043-0.161c0.029-0.054,0.071-0.101,0.126-0.144c0.055-0.042,0.122-0.077,0.204-0.102
			c0.08-0.026,0.171-0.039,0.275-0.039c0.137,0,0.253,0.021,0.348,0.061c0.096,0.041,0.163,0.11,0.206,0.207
			c0.023,0.057,0.035,0.17,0.035,0.341v0.602c0,0.085,0.001,0.153,0.003,0.205c0.002,0.051,0.004,0.087,0.006,0.106
			c0.007,0.037,0.018,0.063,0.032,0.075c0.015,0.013,0.031,0.02,0.052,0.02c0.014,0,0.024-0.003,0.036-0.006
			c0.012-0.004,0.024-0.012,0.041-0.023c0.015-0.012,0.032-0.027,0.055-0.046c0.02-0.021,0.046-0.047,0.079-0.079v0.108
			c-0.146,0.193-0.284,0.291-0.415,0.291c-0.062,0-0.112-0.022-0.15-0.066C99.769,30.127,99.749,30.052,99.749,29.946z
			 M99.749,29.821v-0.676c-0.098,0.039-0.179,0.071-0.241,0.099c-0.063,0.027-0.107,0.049-0.138,0.066
			c-0.102,0.059-0.174,0.119-0.217,0.179c-0.044,0.062-0.067,0.129-0.067,0.203c0,0.047,0.009,0.09,0.023,0.129
			c0.016,0.039,0.034,0.074,0.062,0.102c0.023,0.029,0.053,0.052,0.087,0.067c0.034,0.016,0.068,0.024,0.104,0.024
			C99.459,30.015,99.589,29.949,99.749,29.821z"/>
		<path fill="#FFFFFF" d="M101.648,28.376v0.604h-0.064c-0.023-0.096-0.051-0.175-0.083-0.237c-0.03-0.063-0.065-0.113-0.105-0.149
			c-0.038-0.038-0.083-0.064-0.132-0.08c-0.049-0.015-0.102-0.022-0.161-0.022c-0.044,0-0.085,0.006-0.122,0.021
			c-0.036,0.014-0.068,0.031-0.094,0.052c-0.027,0.022-0.049,0.046-0.063,0.074s-0.023,0.055-0.023,0.084
			c0,0.036,0.007,0.07,0.018,0.101c0.01,0.03,0.031,0.063,0.064,0.095s0.08,0.067,0.141,0.105c0.062,0.037,0.144,0.081,0.248,0.131
			c0.095,0.046,0.176,0.092,0.241,0.138c0.065,0.045,0.116,0.09,0.159,0.135c0.04,0.046,0.068,0.092,0.087,0.14
			c0.018,0.047,0.025,0.098,0.025,0.149c0,0.082-0.018,0.155-0.051,0.222c-0.035,0.067-0.08,0.123-0.135,0.169
			c-0.057,0.046-0.117,0.082-0.189,0.108c-0.07,0.026-0.145,0.039-0.218,0.039c-0.054,0-0.113-0.004-0.173-0.014
			c-0.061-0.01-0.129-0.024-0.198-0.044c-0.021-0.007-0.04-0.011-0.058-0.014c-0.018-0.003-0.032-0.004-0.047-0.004
			c-0.028,0-0.053,0.017-0.069,0.05h-0.063v-0.632h0.063c0.019,0.09,0.046,0.169,0.08,0.238c0.036,0.068,0.079,0.125,0.127,0.17
			c0.049,0.045,0.104,0.08,0.16,0.103c0.061,0.022,0.12,0.034,0.182,0.034c0.043,0,0.083-0.006,0.12-0.021
			c0.036-0.015,0.068-0.034,0.096-0.058c0.027-0.023,0.049-0.052,0.063-0.084c0.015-0.033,0.023-0.067,0.023-0.104
			c0-0.044-0.007-0.083-0.02-0.119c-0.015-0.036-0.038-0.069-0.071-0.103c-0.035-0.034-0.083-0.069-0.145-0.105
			c-0.062-0.037-0.138-0.08-0.232-0.127c-0.096-0.047-0.174-0.09-0.233-0.13c-0.059-0.04-0.104-0.08-0.138-0.12
			c-0.034-0.042-0.057-0.084-0.068-0.128c-0.01-0.044-0.017-0.095-0.017-0.151c0-0.073,0.013-0.14,0.039-0.203
			s0.064-0.116,0.111-0.163c0.049-0.046,0.106-0.082,0.172-0.109c0.064-0.027,0.138-0.04,0.215-0.04
			c0.024,0,0.056,0.004,0.097,0.012c0.037,0.007,0.076,0.016,0.115,0.025c0.039,0.008,0.075,0.017,0.109,0.025
			c0.03,0.007,0.053,0.012,0.065,0.012c0.02,0,0.036-0.004,0.048-0.014s0.024-0.03,0.041-0.061h0.062V28.376z"/>
		<path fill="#FFFFFF" d="M102.561,27.848v0.582h0.413v0.135h-0.413v1.15c0,0.058,0.004,0.106,0.013,0.145
			c0.011,0.038,0.022,0.068,0.038,0.09c0.015,0.022,0.032,0.037,0.055,0.046c0.021,0.007,0.045,0.011,0.07,0.011
			c0.042,0,0.083-0.013,0.123-0.039c0.04-0.026,0.069-0.066,0.093-0.118h0.074c-0.022,0.064-0.051,0.12-0.083,0.167
			c-0.032,0.048-0.067,0.088-0.107,0.118c-0.038,0.031-0.081,0.055-0.123,0.071c-0.045,0.017-0.089,0.024-0.133,0.024
			c-0.029,0-0.06-0.004-0.09-0.013c-0.029-0.008-0.06-0.02-0.085-0.037c-0.025-0.016-0.051-0.036-0.071-0.059
			c-0.022-0.023-0.041-0.051-0.054-0.081c-0.025-0.062-0.04-0.157-0.04-0.284v-1.192h-0.28v-0.064
			c0.07-0.028,0.144-0.076,0.218-0.144c0.073-0.068,0.14-0.147,0.198-0.24c0.015-0.025,0.032-0.06,0.053-0.104
			c0.022-0.044,0.045-0.1,0.071-0.165H102.561z"/>
		<path fill="#FFFFFF" d="M103.443,29.098c0,0.131,0.018,0.25,0.052,0.354c0.035,0.104,0.083,0.193,0.143,0.265
			c0.058,0.073,0.128,0.128,0.204,0.167c0.078,0.038,0.161,0.057,0.248,0.057c0.116,0,0.217-0.031,0.303-0.095
			c0.086-0.064,0.159-0.173,0.216-0.328l0.06,0.039c-0.015,0.086-0.041,0.171-0.08,0.256c-0.041,0.083-0.093,0.159-0.155,0.224
			c-0.063,0.067-0.136,0.12-0.218,0.16c-0.084,0.041-0.174,0.062-0.272,0.062c-0.106,0-0.204-0.022-0.298-0.065
			c-0.093-0.043-0.176-0.104-0.246-0.183c-0.071-0.079-0.126-0.175-0.168-0.289c-0.041-0.112-0.062-0.239-0.062-0.38
			c0-0.154,0.021-0.29,0.062-0.409c0.042-0.12,0.1-0.22,0.174-0.303c0.072-0.083,0.159-0.145,0.26-0.187
			c0.101-0.042,0.206-0.064,0.322-0.064c0.098,0,0.188,0.018,0.271,0.051s0.155,0.083,0.214,0.146
			c0.062,0.063,0.109,0.139,0.145,0.227c0.034,0.089,0.051,0.188,0.051,0.297L103.443,29.098L103.443,29.098z M103.443,28.985h0.82
			c-0.005-0.114-0.02-0.194-0.041-0.24c-0.031-0.073-0.08-0.129-0.144-0.17c-0.063-0.042-0.13-0.062-0.201-0.062
			c-0.053,0-0.104,0.011-0.152,0.031c-0.05,0.021-0.095,0.052-0.134,0.094c-0.04,0.041-0.074,0.09-0.1,0.147
			C103.467,28.844,103.45,28.91,103.443,28.985z"/>
		<path fill="#FFFFFF" d="M107.792,28.512h0.812v0.071c-0.113,0.01-0.195,0.035-0.249,0.075c-0.053,0.041-0.135,0.164-0.249,0.368
			c-0.115,0.205-0.242,0.396-0.384,0.575c0.059,0.067,0.113,0.124,0.162,0.17c0.052,0.046,0.101,0.084,0.145,0.113
			c0.047,0.028,0.094,0.049,0.138,0.06c0.045,0.012,0.089,0.019,0.136,0.019c0.089,0,0.164-0.023,0.227-0.072
			c0.062-0.048,0.107-0.119,0.132-0.213l0.07,0.052c-0.047,0.181-0.124,0.317-0.229,0.402s-0.229,0.129-0.371,0.129
			c-0.053,0-0.104-0.006-0.157-0.02c-0.052-0.013-0.107-0.036-0.162-0.067c-0.056-0.03-0.113-0.069-0.174-0.117
			c-0.058-0.047-0.118-0.106-0.185-0.174c-0.159,0.142-0.304,0.241-0.432,0.296c-0.128,0.054-0.265,0.081-0.41,0.081
			c-0.106,0-0.204-0.015-0.289-0.046c-0.085-0.031-0.158-0.072-0.218-0.124c-0.062-0.053-0.108-0.113-0.141-0.184
			c-0.031-0.069-0.048-0.145-0.048-0.221c0-0.156,0.057-0.312,0.169-0.467c0.111-0.156,0.322-0.317,0.631-0.483
			c-0.029-0.068-0.056-0.13-0.076-0.183c-0.019-0.053-0.034-0.102-0.046-0.146c-0.013-0.044-0.022-0.087-0.025-0.125
			c-0.005-0.04-0.008-0.08-0.008-0.121c0-0.096,0.018-0.184,0.053-0.263c0.034-0.078,0.083-0.146,0.145-0.203
			c0.062-0.057,0.132-0.099,0.215-0.129c0.081-0.03,0.169-0.045,0.264-0.045c0.073,0,0.144,0.012,0.206,0.037
			c0.065,0.025,0.119,0.058,0.166,0.101c0.046,0.042,0.082,0.092,0.109,0.15c0.024,0.057,0.038,0.119,0.038,0.184
			c0,0.138-0.046,0.258-0.142,0.36c-0.047,0.051-0.112,0.105-0.192,0.16c-0.082,0.056-0.184,0.115-0.303,0.178
			c0.082,0.146,0.166,0.288,0.251,0.419c0.085,0.133,0.172,0.26,0.261,0.382c0.228-0.272,0.341-0.5,0.341-0.684
			c0-0.024-0.005-0.049-0.012-0.075c-0.009-0.025-0.02-0.048-0.034-0.067c-0.015-0.021-0.034-0.037-0.056-0.051
			c-0.022-0.014-0.05-0.023-0.079-0.027L107.792,28.512L107.792,28.512z M107.354,29.772c-0.084-0.117-0.157-0.218-0.216-0.301
			c-0.06-0.083-0.104-0.153-0.138-0.207c-0.034-0.053-0.067-0.114-0.104-0.18c-0.036-0.065-0.074-0.139-0.113-0.219
			c-0.311,0.18-0.467,0.394-0.467,0.642c0,0.068,0.013,0.134,0.034,0.196c0.022,0.062,0.057,0.117,0.099,0.165
			c0.043,0.048,0.096,0.087,0.156,0.115c0.061,0.03,0.128,0.043,0.204,0.043c0.042,0,0.08-0.003,0.117-0.01
			c0.038-0.007,0.077-0.019,0.118-0.037c0.042-0.019,0.087-0.044,0.135-0.077C107.229,29.87,107.287,29.827,107.354,29.772z
			 M107.053,28.563c0.319-0.152,0.477-0.346,0.477-0.582c0-0.045-0.007-0.088-0.021-0.127c-0.017-0.041-0.036-0.074-0.062-0.104
			c-0.028-0.029-0.06-0.051-0.096-0.067s-0.076-0.024-0.118-0.024c-0.058,0-0.106,0.011-0.148,0.034
			c-0.045,0.023-0.079,0.051-0.108,0.086c-0.027,0.034-0.05,0.071-0.063,0.113c-0.015,0.041-0.022,0.079-0.022,0.115
			c0,0.033,0.002,0.066,0.008,0.1c0.004,0.032,0.013,0.069,0.024,0.111c0.012,0.042,0.028,0.09,0.049,0.145
			C106.994,28.418,107.02,28.485,107.053,28.563z"/>
		<path fill="#FFFFFF" d="M109.792,27.579h0.711l1.604,1.967v-1.513c0-0.16-0.02-0.261-0.056-0.302
			c-0.049-0.054-0.125-0.081-0.227-0.081h-0.091v-0.071h0.913v0.071h-0.094c-0.109,0-0.188,0.034-0.234,0.101
			c-0.028,0.041-0.043,0.135-0.043,0.282v2.211h-0.068l-1.729-2.113v1.615c0,0.161,0.017,0.261,0.051,0.301
			c0.049,0.054,0.125,0.082,0.227,0.082h0.093v0.071h-0.913v-0.071h0.092c0.112,0,0.191-0.034,0.238-0.101
			c0.028-0.041,0.041-0.135,0.041-0.282v-1.823c-0.037-0.045-0.07-0.082-0.096-0.109c-0.026-0.027-0.051-0.049-0.073-0.067
			c-0.023-0.018-0.048-0.031-0.074-0.043c-0.028-0.011-0.062-0.023-0.103-0.038c-0.035-0.012-0.094-0.018-0.169-0.018V27.579
			L109.792,27.579z"/>
		<path fill="#FFFFFF" d="M114.381,28.43v1.074c0,0.208,0.005,0.334,0.014,0.377c0.011,0.046,0.025,0.077,0.047,0.094
			s0.047,0.027,0.075,0.027c0.038,0,0.084-0.011,0.135-0.032l0.027,0.066l-0.529,0.219h-0.088v-0.375
			c-0.154,0.165-0.27,0.269-0.348,0.311c-0.079,0.042-0.164,0.064-0.253,0.064c-0.1,0-0.185-0.028-0.258-0.084
			c-0.07-0.056-0.123-0.131-0.153-0.223c-0.026-0.089-0.042-0.217-0.042-0.384v-0.791c0-0.058-0.005-0.105-0.016-0.142
			c-0.009-0.036-0.025-0.063-0.046-0.083c-0.023-0.02-0.051-0.033-0.087-0.04c-0.034-0.006-0.078-0.01-0.127-0.01h-0.023v-0.071
			h0.62v1.186c0,0.085,0.009,0.155,0.023,0.207c0.018,0.053,0.038,0.094,0.065,0.122c0.027,0.03,0.059,0.049,0.094,0.059
			c0.036,0.009,0.072,0.014,0.112,0.014c0.025,0,0.057-0.003,0.088-0.012c0.031-0.007,0.064-0.021,0.101-0.04
			c0.035-0.02,0.074-0.046,0.115-0.077c0.04-0.033,0.086-0.072,0.135-0.122v-1.004c0-0.051-0.003-0.092-0.011-0.125
			c-0.009-0.032-0.023-0.06-0.045-0.079s-0.051-0.033-0.087-0.042c-0.035-0.008-0.083-0.013-0.142-0.015v-0.071L114.381,28.43
			L114.381,28.43z"/>
		<path fill="#FFFFFF" d="M115.322,27.848v0.582h0.414v0.135h-0.414v1.15c0,0.058,0.006,0.106,0.014,0.145
			c0.01,0.038,0.022,0.068,0.037,0.09c0.016,0.022,0.034,0.037,0.056,0.046c0.021,0.007,0.044,0.011,0.069,0.011
			c0.043,0,0.085-0.013,0.125-0.039c0.038-0.026,0.069-0.066,0.092-0.118h0.075c-0.022,0.064-0.051,0.12-0.084,0.167
			c-0.032,0.048-0.067,0.088-0.107,0.118c-0.039,0.031-0.08,0.055-0.123,0.071c-0.045,0.017-0.088,0.024-0.133,0.024
			c-0.028,0-0.06-0.004-0.089-0.013c-0.031-0.008-0.06-0.02-0.086-0.037c-0.025-0.016-0.05-0.036-0.072-0.059
			c-0.021-0.023-0.038-0.051-0.053-0.081c-0.025-0.062-0.04-0.157-0.04-0.284v-1.192h-0.279v-0.064
			c0.069-0.028,0.144-0.076,0.218-0.144c0.073-0.068,0.14-0.147,0.197-0.24c0.015-0.025,0.031-0.06,0.054-0.104
			s0.045-0.1,0.071-0.165H115.322z"/>
		<path fill="#FFFFFF" d="M116.428,28.376v0.399c0.151-0.266,0.302-0.399,0.456-0.399c0.035,0,0.067,0.006,0.098,0.019
			c0.029,0.011,0.055,0.027,0.078,0.047c0.023,0.021,0.039,0.043,0.053,0.068c0.013,0.025,0.018,0.053,0.018,0.081
			c0,0.05-0.018,0.094-0.049,0.128c-0.034,0.035-0.074,0.052-0.12,0.052c-0.022,0-0.047-0.007-0.073-0.021
			c-0.027-0.015-0.055-0.03-0.08-0.046c-0.026-0.016-0.051-0.032-0.072-0.045c-0.023-0.014-0.039-0.022-0.051-0.022
			c-0.017,0-0.035,0.008-0.057,0.023c-0.021,0.015-0.041,0.036-0.064,0.062c-0.022,0.026-0.044,0.058-0.067,0.094
			c-0.022,0.037-0.044,0.078-0.065,0.121v0.849c0,0.054,0.002,0.101,0.009,0.144c0.006,0.042,0.021,0.078,0.042,0.108
			c0.022,0.031,0.053,0.054,0.093,0.069c0.043,0.016,0.098,0.024,0.166,0.024v0.069h-0.908v-0.069c0.057,0,0.103-0.004,0.139-0.012
			s0.065-0.023,0.086-0.046c0.021-0.023,0.035-0.056,0.042-0.1c0.008-0.043,0.012-0.1,0.012-0.172v-0.683
			c0-0.208-0.004-0.332-0.014-0.367c-0.018-0.077-0.061-0.115-0.129-0.115c-0.04,0-0.086,0.01-0.136,0.03l-0.021-0.069l0.536-0.217
			L116.428,28.376L116.428,28.376z"/>
		<path fill="#FFFFFF" d="M117.841,28.376v1.424c0,0.056,0,0.103,0.005,0.138c0.004,0.035,0.011,0.065,0.018,0.086
			c0.009,0.022,0.019,0.038,0.031,0.049c0.012,0.011,0.025,0.022,0.04,0.03c0.034,0.018,0.091,0.027,0.174,0.027V30.2h-0.86V30.13
			c0.045,0,0.079-0.002,0.108-0.006c0.027-0.003,0.05-0.009,0.066-0.019c0.018-0.009,0.03-0.021,0.04-0.034
			c0.012-0.013,0.021-0.029,0.029-0.049c0.018-0.04,0.025-0.114,0.025-0.222v-0.682c0-0.113,0-0.201-0.006-0.266
			c-0.004-0.065-0.011-0.113-0.02-0.145c-0.011-0.032-0.024-0.052-0.044-0.061c-0.018-0.008-0.041-0.013-0.068-0.013
			c-0.036,0-0.081,0.01-0.132,0.03l-0.027-0.069l0.533-0.217H117.841z M117.68,27.45c0.026,0,0.053,0.005,0.074,0.016
			c0.024,0.011,0.045,0.024,0.064,0.042c0.017,0.017,0.029,0.038,0.041,0.061c0.011,0.024,0.016,0.049,0.016,0.077
			c0,0.027-0.005,0.052-0.016,0.076c-0.012,0.023-0.024,0.045-0.041,0.063c-0.02,0.019-0.038,0.032-0.064,0.042
			c-0.021,0.011-0.048,0.015-0.074,0.015c-0.027,0-0.055-0.004-0.077-0.015c-0.024-0.01-0.045-0.023-0.062-0.042
			c-0.019-0.019-0.032-0.04-0.043-0.063c-0.012-0.024-0.016-0.049-0.016-0.076c0-0.027,0.004-0.053,0.016-0.077
			c0.011-0.023,0.024-0.044,0.042-0.061c0.018-0.018,0.037-0.032,0.062-0.042C117.625,27.456,117.652,27.45,117.68,27.45z"/>
		<path fill="#FFFFFF" d="M118.843,27.848v0.582h0.414v0.135h-0.414v1.15c0,0.058,0.006,0.106,0.015,0.145
			c0.009,0.038,0.021,0.068,0.036,0.09c0.016,0.022,0.034,0.037,0.056,0.046c0.021,0.007,0.044,0.011,0.069,0.011
			c0.043,0,0.085-0.013,0.125-0.039c0.038-0.026,0.069-0.066,0.092-0.118h0.075c-0.022,0.064-0.051,0.12-0.084,0.167
			c-0.032,0.048-0.067,0.088-0.107,0.118c-0.039,0.031-0.08,0.055-0.123,0.071c-0.045,0.017-0.088,0.024-0.133,0.024
			c-0.028,0-0.06-0.004-0.089-0.013c-0.031-0.008-0.06-0.02-0.086-0.037c-0.025-0.016-0.05-0.036-0.072-0.059
			c-0.021-0.023-0.038-0.051-0.053-0.081c-0.025-0.062-0.04-0.157-0.04-0.284v-1.192h-0.279v-0.064
			c0.069-0.028,0.144-0.076,0.217-0.144c0.074-0.068,0.141-0.147,0.198-0.24c0.015-0.025,0.031-0.06,0.053-0.104
			c0.022-0.044,0.047-0.1,0.072-0.165H118.843z"/>
		<path fill="#FFFFFF" d="M120.041,28.376v1.424c0,0.056,0.002,0.103,0.008,0.138c0.002,0.036,0.008,0.065,0.017,0.086
			c0.008,0.022,0.018,0.038,0.029,0.049c0.013,0.011,0.025,0.022,0.043,0.03c0.031,0.018,0.091,0.027,0.172,0.027V30.2h-0.86V30.13
			c0.044,0,0.079-0.002,0.107-0.006c0.028-0.003,0.051-0.009,0.068-0.019c0.017-0.009,0.029-0.021,0.04-0.034
			c0.01-0.013,0.02-0.029,0.027-0.049c0.019-0.04,0.026-0.114,0.026-0.222v-0.682c0-0.113-0.002-0.201-0.006-0.266
			c-0.003-0.065-0.012-0.113-0.021-0.145c-0.011-0.032-0.023-0.052-0.042-0.061c-0.021-0.008-0.043-0.013-0.071-0.013
			c-0.036,0-0.079,0.01-0.131,0.03l-0.026-0.069l0.533-0.217H120.041z M119.879,27.45c0.027,0,0.054,0.005,0.076,0.016
			c0.024,0.011,0.045,0.024,0.063,0.042c0.018,0.017,0.032,0.038,0.04,0.061c0.012,0.024,0.018,0.049,0.018,0.077
			c0,0.027-0.006,0.052-0.018,0.076c-0.008,0.023-0.022,0.045-0.04,0.063c-0.019,0.019-0.038,0.032-0.063,0.042
			c-0.022,0.011-0.049,0.015-0.076,0.015c-0.025,0-0.051-0.004-0.075-0.015c-0.022-0.01-0.044-0.023-0.062-0.042
			s-0.033-0.04-0.042-0.063c-0.011-0.024-0.018-0.049-0.018-0.076c0-0.027,0.007-0.053,0.018-0.077
			c0.009-0.023,0.021-0.044,0.04-0.061c0.018-0.018,0.038-0.032,0.063-0.042C119.828,27.456,119.854,27.45,119.879,27.45z"/>
		<path fill="#FFFFFF" d="M121.396,28.376c0.125,0,0.24,0.025,0.345,0.074s0.194,0.114,0.27,0.197
			c0.075,0.084,0.135,0.179,0.175,0.289c0.043,0.109,0.064,0.226,0.064,0.346c0,0.128-0.021,0.25-0.064,0.366
			c-0.044,0.117-0.104,0.22-0.182,0.312c-0.076,0.09-0.169,0.162-0.275,0.216c-0.108,0.054-0.225,0.08-0.354,0.08
			c-0.123,0-0.237-0.026-0.34-0.077c-0.103-0.052-0.19-0.12-0.264-0.206c-0.074-0.086-0.129-0.183-0.169-0.295
			c-0.04-0.111-0.062-0.226-0.062-0.344c0-0.119,0.021-0.237,0.063-0.352c0.04-0.114,0.1-0.217,0.174-0.307
			c0.075-0.09,0.165-0.162,0.271-0.216S121.271,28.376,121.396,28.376z M121.337,28.504c-0.058,0-0.11,0.011-0.164,0.035
			c-0.052,0.024-0.099,0.063-0.139,0.116c-0.039,0.053-0.073,0.123-0.097,0.207c-0.024,0.084-0.037,0.188-0.037,0.308
			c0,0.125,0.013,0.245,0.039,0.36c0.026,0.114,0.064,0.216,0.113,0.303c0.049,0.086,0.106,0.156,0.176,0.207
			c0.068,0.052,0.146,0.077,0.23,0.077c0.062,0,0.119-0.012,0.172-0.036c0.053-0.023,0.098-0.062,0.136-0.116
			c0.039-0.054,0.068-0.125,0.091-0.212c0.023-0.088,0.033-0.195,0.033-0.322c0-0.128-0.012-0.248-0.037-0.36
			c-0.023-0.113-0.061-0.211-0.107-0.295c-0.048-0.085-0.104-0.151-0.174-0.201C121.502,28.527,121.426,28.504,121.337,28.504z"/>
		<path fill="#FFFFFF" d="M123.028,28.753c0.207-0.249,0.405-0.375,0.594-0.375c0.066,0,0.126,0.012,0.182,0.034
			c0.056,0.022,0.104,0.059,0.145,0.111c0.042,0.052,0.074,0.121,0.099,0.205c0.021,0.086,0.035,0.192,0.035,0.319v0.756
			c0,0.076,0.004,0.135,0.013,0.18c0.007,0.045,0.022,0.078,0.043,0.1c0.021,0.023,0.048,0.037,0.081,0.043
			c0.036,0.006,0.079,0.009,0.132,0.009v0.069h-0.876v-0.069h0.037c0.058,0,0.103-0.006,0.136-0.016
			c0.031-0.01,0.06-0.028,0.074-0.053c0.017-0.025,0.027-0.059,0.031-0.103c0.005-0.042,0.007-0.095,0.007-0.16v-0.726
			c0-0.161-0.021-0.277-0.062-0.352c-0.043-0.073-0.113-0.109-0.211-0.109c-0.154,0-0.307,0.083-0.46,0.252v0.934
			c0,0.117,0.009,0.192,0.021,0.222c0.011,0.02,0.021,0.036,0.032,0.05c0.01,0.014,0.023,0.025,0.044,0.034
			c0.019,0.008,0.042,0.015,0.072,0.018c0.029,0.004,0.069,0.006,0.118,0.006v0.069h-0.877v-0.069h0.038
			c0.047,0,0.085-0.006,0.114-0.015c0.029-0.011,0.054-0.028,0.07-0.054c0.017-0.025,0.029-0.06,0.036-0.101
			c0.006-0.041,0.01-0.095,0.01-0.159v-0.657c0-0.21-0.006-0.339-0.017-0.388c-0.008-0.047-0.022-0.079-0.043-0.094
			c-0.021-0.017-0.047-0.025-0.08-0.025c-0.035,0-0.08,0.01-0.13,0.029l-0.028-0.069l0.534-0.217h0.082v0.373H123.028z"/>
	</g>
</g>
<g>
	<path fill="#FFFFFF" stroke="#FFFFFF" d="M76.137,48.291h7.661l0.271,2.571h-0.214c-0.17-0.534-0.384-0.972-0.643-1.312
		c-0.253-0.332-0.568-0.583-0.947-0.752c-0.377-0.162-0.82-0.242-1.326-0.242h-0.193c-0.603,0-1.029,0.111-1.277,0.332
		c-0.254,0.226-0.381,0.617-0.381,1.175v2.349h0.685c0.695,0,1.201-0.111,1.519-0.332c0.323-0.217,0.542-0.611,0.656-1.181h0.208
		v3.682h-0.208c-0.088-0.521-0.211-0.915-0.373-1.182c-0.157-0.262-0.371-0.449-0.643-0.559c-0.281-0.106-0.67-0.158-1.167-0.158
		h-0.677v2.936c0,0.409,0.027,0.709,0.083,0.897c0.055,0.193,0.161,0.362,0.318,0.505c0.281,0.252,0.693,0.418,1.236,0.489v0.215
		h-4.588v-0.215c0.494-0.082,0.855-0.273,1.085-0.571c0.174-0.227,0.263-0.665,0.263-1.32v-5.217c0-0.429-0.023-0.732-0.068-0.912
		c-0.051-0.198-0.136-0.359-0.256-0.483c-0.226-0.252-0.566-0.418-1.023-0.497V48.291z M77.375,57.169l-0.27,0.2h2.017l-0.27-0.2
		c-0.156-0.115-0.255-0.207-0.296-0.277c-0.047-0.064-0.07-0.167-0.07-0.312v-0.15c-0.004-0.015-0.006-0.04-0.006-0.076v-0.117
		v-6.46V49.66c0-0.037,0.002-0.064,0.006-0.083v-0.146c0-0.138,0.025-0.246,0.077-0.324c0.041-0.068,0.138-0.157,0.289-0.262
		l0.394-0.291h-2.266l0.394,0.291c0.16,0.12,0.263,0.209,0.303,0.27c0.042,0.061,0.062,0.166,0.062,0.317
		c0.004,0.051,0.006,0.127,0.006,0.228v0.117v6.46v0.116c0,0.103-0.002,0.178-0.006,0.229c0,0.144-0.021,0.247-0.062,0.312
		C77.642,56.952,77.539,57.044,77.375,57.169z M81.637,53.003v-0.891c-0.101,0.101-0.201,0.182-0.297,0.242
		c-0.106,0.061-0.256,0.127-0.449,0.201C81.148,52.628,81.397,52.777,81.637,53.003z M83.439,49.465l-0.151-0.918h-0.988
		c0.268,0.115,0.479,0.235,0.636,0.359C83.088,49.026,83.255,49.212,83.439,49.465z"/>
	<path fill="#FFFFFF" stroke="#FFFFFF" d="M84.607,53.018c0-0.664,0.129-1.302,0.386-1.915c0.254-0.603,0.613-1.138,1.078-1.603
		c0.451-0.451,0.98-0.806,1.589-1.064c0.604-0.248,1.236-0.373,1.9-0.373c0.894,0,1.72,0.221,2.48,0.663
		c0.755,0.452,1.357,1.055,1.804,1.81c0.442,0.76,0.664,1.586,0.664,2.48c0,0.658-0.125,1.289-0.373,1.893
		c-0.259,0.608-0.615,1.14-1.071,1.596s-0.983,0.812-1.582,1.07s-1.231,0.387-1.9,0.387c-0.907,0-1.741-0.222-2.5-0.662
		c-0.765-0.443-1.368-1.045-1.81-1.805C84.829,54.742,84.607,53.915,84.607,53.018z M87.475,57.266
		c-0.405-0.304-0.744-0.663-1.016-1.078c-0.276-0.419-0.478-0.895-0.608-1.429c-0.138-0.548-0.207-1.145-0.207-1.789
		c0-0.963,0.147-1.781,0.442-2.454c0.295-0.677,0.757-1.252,1.389-1.727c-0.547,0.294-1.016,0.654-1.402,1.078
		c-0.396,0.428-0.693,0.907-0.892,1.437c-0.207,0.529-0.311,1.099-0.311,1.706c0,0.599,0.103,1.165,0.311,1.699
		c0.199,0.535,0.496,1.021,0.892,1.457C86.458,56.601,86.926,56.967,87.475,57.266z M86.348,52.968c0,0.677,0.076,1.304,0.228,1.878
		c0.147,0.572,0.365,1.064,0.656,1.479c0.291,0.419,0.631,0.731,1.023,0.939c0.396,0.216,0.836,0.325,1.319,0.325
		c0.792,0,1.48-0.313,2.066-0.939c0.355-0.384,0.632-0.892,0.836-1.527c0.193-0.631,0.291-1.352,0.291-2.163
		c0-0.7-0.074-1.339-0.221-1.921c-0.151-0.57-0.367-1.058-0.643-1.458c-0.291-0.41-0.626-0.719-1.009-0.926
		c-0.396-0.217-0.84-0.324-1.333-0.324c-0.483,0-0.924,0.108-1.319,0.324c-0.396,0.221-0.735,0.535-1.016,0.939
		c-0.277,0.402-0.493,0.894-0.65,1.479C86.424,51.656,86.348,52.287,86.348,52.968z M91.268,57.273
		c1.685-0.977,2.529-2.395,2.529-4.256c0-0.608-0.092-1.182-0.277-1.72c-0.18-0.529-0.445-1.016-0.794-1.458
		c-0.345-0.424-0.749-0.762-1.209-1.016c1.009,0.884,1.513,2.261,1.513,4.132c0,0.547-0.047,1.07-0.146,1.568
		c-0.101,0.502-0.239,0.94-0.414,1.312c-0.106,0.221-0.201,0.389-0.283,0.505c-0.116,0.16-0.24,0.308-0.374,0.441
		C91.675,56.93,91.493,57.093,91.268,57.273z"/>
	<path fill="#FFFFFF" stroke="#FFFFFF" d="M99.495,52.775h-1.201v2.839c0,0.387,0.025,0.683,0.076,0.885
		c0.051,0.198,0.144,0.37,0.276,0.518c0.234,0.249,0.599,0.413,1.091,0.49v0.215h-4.393v-0.215c0.493-0.081,0.854-0.273,1.084-0.573
		c0.175-0.224,0.263-0.664,0.263-1.319v-5.216c0-0.429-0.023-0.732-0.068-0.912c-0.051-0.199-0.136-0.36-0.256-0.483
		c-0.222-0.244-0.562-0.41-1.023-0.497v-0.216c0.042,0.005,0.099,0.007,0.172,0.007l0.608,0.035c0.244,0.014,0.527,0.021,0.85,0.021
		c0.512,0,0.974-0.021,1.389-0.063l0.967-0.082c0.304-0.027,0.604-0.042,0.897-0.042c0.544,0,1.029,0.055,1.459,0.166
		c0.424,0.11,0.786,0.269,1.085,0.476c0.294,0.207,0.521,0.461,0.683,0.76c0.162,0.31,0.243,0.647,0.243,1.016
		c0,0.622-0.211,1.105-0.636,1.45c-0.425,0.346-1.055,0.551-1.894,0.615c0.517,0.199,0.953,0.475,1.313,0.83
		c0.359,0.355,0.783,0.931,1.271,1.727c0.572,0.909,1.012,1.53,1.32,1.866c0.326,0.356,0.684,0.604,1.071,0.746v0.195
		c-0.488-0.007-0.915-0.053-1.279-0.141c-0.358-0.082-0.712-0.229-1.058-0.44c-0.441-0.273-0.854-0.64-1.236-1.101
		c-0.392-0.465-0.731-0.992-1.016-1.581l-0.367-0.767c-0.166-0.345-0.319-0.608-0.463-0.787c-0.129-0.161-0.288-0.271-0.477-0.332
		C100.068,52.805,99.817,52.775,99.495,52.775z M96.58,57.169l-0.269,0.2h2.017l-0.27-0.2c-0.156-0.115-0.256-0.207-0.297-0.277
		c-0.045-0.064-0.068-0.167-0.068-0.312v-0.15c-0.004-0.015-0.006-0.04-0.006-0.076v-0.117v-6.46V49.66
		c0-0.037,0.002-0.064,0.006-0.083v-0.146c0-0.129,0.021-0.228,0.062-0.297c0.027-0.06,0.113-0.146,0.256-0.256l0.048-0.035
		l0.388-0.297l-0.249,0.014c-0.419,0.028-0.797,0.042-1.133,0.042c-0.207,0-0.491-0.006-0.85-0.021l0.366,0.262
		c0.153,0.106,0.25,0.194,0.297,0.262c0.045,0.074,0.068,0.182,0.068,0.325c0.004,0.051,0.006,0.126,0.006,0.228v0.117v6.46v0.116
		c0,0.103-0.002,0.178-0.006,0.229c0,0.144-0.021,0.247-0.063,0.312C96.848,56.952,96.745,57.044,96.58,57.169z M98.293,50.102
		v2.397h1.238c0.713,0,1.227-0.081,1.54-0.242c0.286-0.147,0.506-0.371,0.662-0.67c0.157-0.294,0.235-0.64,0.235-1.036
		c0-0.406-0.093-0.769-0.277-1.092c-0.184-0.318-0.442-0.568-0.78-0.753c-0.34-0.174-0.724-0.262-1.146-0.262
		c-0.636,0-1.065,0.198-1.286,0.594C98.355,49.264,98.293,49.617,98.293,50.102z M105.347,57.729
		c-0.24-0.129-0.438-0.25-0.594-0.366c-0.171-0.124-0.349-0.279-0.532-0.464c-0.23-0.244-0.417-0.467-0.561-0.67
		c-0.15-0.203-0.378-0.554-0.676-1.056c-0.313-0.517-0.579-0.915-0.795-1.196c-0.245-0.308-0.482-0.552-0.719-0.732
		c-0.244-0.189-0.509-0.341-0.794-0.456c0.19,0.185,0.341,0.371,0.456,0.559c0.078,0.129,0.193,0.343,0.345,0.643
		c0.028,0.045,0.06,0.102,0.094,0.166c0.034,0.065,0.055,0.103,0.06,0.117c0.014,0.027,0.06,0.125,0.139,0.291
		c0.492,0.963,1.021,1.692,1.588,2.19C103.925,57.256,104.586,57.581,105.347,57.729z M100.986,52.527
		c0.318-0.069,0.602-0.168,0.85-0.297c0.257-0.133,0.468-0.281,0.629-0.443c0.17-0.17,0.299-0.36,0.387-0.566s0.13-0.428,0.13-0.664
		c0-0.501-0.18-0.939-0.538-1.312c-0.358-0.374-0.834-0.613-1.423-0.719c0.273,0.147,0.493,0.317,0.664,0.512
		c0.183,0.208,0.319,0.43,0.406,0.67c0.093,0.263,0.139,0.535,0.139,0.816c0,0.507-0.1,0.917-0.296,1.23
		C101.735,52.075,101.421,52.333,100.986,52.527z"/>
	<path fill="#FFFFFF" stroke="#FFFFFF" d="M106.375,48.291h4.395v0.215c-0.534,0.083-0.923,0.271-1.16,0.566
		c-0.115,0.152-0.189,0.32-0.222,0.504c-0.041,0.193-0.062,0.468-0.062,0.823v3.813v0.242c0,0.299,0.025,0.577,0.076,0.833
		c0.05,0.256,0.127,0.495,0.23,0.715c0.104,0.222,0.23,0.413,0.377,0.574c0.244,0.271,0.556,0.481,0.933,0.636
		c0.373,0.156,0.767,0.234,1.182,0.234c0.599,0,1.116-0.15,1.555-0.448c0.433-0.295,0.76-0.717,0.98-1.265
		c0.175-0.441,0.263-1.041,0.263-1.796v-3.212c0-0.788-0.18-1.351-0.539-1.685c-0.299-0.287-0.674-0.463-1.127-0.533v-0.216h3.214
		v0.215c-0.304,0.083-0.551,0.207-0.74,0.373c-0.188,0.167-0.324,0.385-0.407,0.657c-0.082,0.266-0.125,0.608-0.125,1.021v3.372
		c0,0.562-0.033,1.014-0.104,1.354c-0.068,0.345-0.182,0.656-0.339,0.933c-0.212,0.377-0.477,0.69-0.794,0.938
		c-0.331,0.263-0.707,0.46-1.125,0.587c-0.43,0.134-0.885,0.201-1.368,0.201c-0.518,0-0.994-0.075-1.43-0.228
		c-0.434-0.144-0.816-0.359-1.148-0.649c-0.332-0.291-0.591-0.631-0.78-1.023c-0.258-0.543-0.387-1.317-0.387-2.321v-3.323
		c0-0.396-0.021-0.693-0.062-0.891c-0.051-0.198-0.139-0.366-0.262-0.504c-0.227-0.252-0.566-0.419-1.023-0.497V48.291
		L106.375,48.291z M109.513,48.553h-2.322l0.422,0.291c0.139,0.088,0.235,0.172,0.29,0.256c0.051,0.088,0.076,0.199,0.076,0.332
		c0,0.138,0.002,0.213,0.007,0.228v0.117v3.862c0,0.328,0.027,0.726,0.083,1.195c0.107,0.888,0.459,1.594,1.059,2.114
		c0.589,0.511,1.35,0.771,2.279,0.78c-0.935-0.203-1.638-0.616-2.105-1.243c-0.219-0.286-0.367-0.615-0.449-0.988
		c-0.089-0.354-0.132-0.837-0.132-1.45v-4.271V49.66v-0.228c0.01-0.142,0.036-0.25,0.083-0.324c0.051-0.078,0.146-0.166,0.29-0.262
		L109.513,48.553z M115.398,48.553h-1.216c0.185,0.106,0.33,0.212,0.435,0.318c0.114,0.124,0.215,0.271,0.297,0.441
		C115.043,49.01,115.205,48.756,115.398,48.553z"/>
	<path fill="#FFFFFF" stroke="#FFFFFF" d="M70.158,60.205l0.794,2.494h-0.207c-0.23-0.442-0.475-0.827-0.732-1.156
		c-0.257-0.329-0.517-0.586-0.773-0.771c-0.535-0.396-1.17-0.596-1.906-0.596c-0.544,0-1.054,0.113-1.534,0.339
		c-0.494,0.231-0.921,0.558-1.285,0.981c-0.678,0.777-1.016,1.765-1.016,2.957c0,0.916,0.175,1.741,0.525,2.472
		c0.351,0.734,0.834,1.312,1.451,1.736c0.612,0.418,1.296,0.628,2.052,0.628c0.47,0,0.884-0.079,1.243-0.235
		c0.363-0.152,0.622-0.359,0.773-0.622c0.144-0.24,0.214-0.635,0.214-1.187v-0.235c0-0.411-0.027-0.716-0.083-0.913
		c-0.06-0.203-0.164-0.376-0.312-0.52c-0.281-0.263-0.693-0.417-1.236-0.464v-0.213h4.255v0.213c-0.363,0.085-0.64,0.275-0.83,0.574
		c-0.128,0.226-0.192,0.665-0.192,1.32v1.257l0.421,0.637c-0.042-0.006-0.115-0.009-0.221-0.009c-0.368,0-0.71,0.03-1.023,0.09
		c-0.354,0.069-0.777,0.183-1.271,0.338c-0.517,0.165-0.939,0.273-1.271,0.325c-0.341,0.061-0.717,0.09-1.127,0.09
		c-1.501,0-2.678-0.419-3.53-1.257c-0.465-0.469-0.828-1.018-1.084-1.645c-0.263-0.632-0.394-1.273-0.394-1.927
		c0-0.687,0.133-1.334,0.401-1.941c0.267-0.612,0.638-1.15,1.112-1.609c0.474-0.46,1.027-0.822,1.658-1.085
		c0.636-0.259,1.304-0.386,2.003-0.386c0.419,0,0.9,0.044,1.445,0.129c0.078,0.007,0.177,0.021,0.297,0.043
		c0.281,0.051,0.496,0.089,0.643,0.116c0.157,0.033,0.292,0.049,0.408,0.049c0.031,0,0.064-0.002,0.096-0.006
		c0.033-0.006,0.084-0.008,0.153-0.008C70.117,60.212,70.144,60.21,70.158,60.205z M66.234,69.491
		c-0.517-0.181-0.935-0.37-1.257-0.567c-0.322-0.197-0.629-0.455-0.919-0.773c-0.392-0.446-0.691-0.96-0.898-1.54
		c-0.212-0.575-0.318-1.187-0.318-1.831c0-0.549,0.076-1.085,0.228-1.609c0.152-0.525,0.373-0.989,0.663-1.389
		c0.313-0.446,0.8-0.903,1.458-1.369c-0.654,0.317-1.211,0.702-1.672,1.153c-0.461,0.448-0.806,0.956-1.037,1.527
		c-0.235,0.565-0.353,1.175-0.353,1.824c0,0.797,0.173,1.531,0.519,2.204c0.336,0.667,0.82,1.209,1.451,1.623
		C64.729,69.158,65.441,69.408,66.234,69.491z M71.532,65.152h-2.292l0.408,0.304c0.152,0.114,0.253,0.207,0.304,0.276
		c0.042,0.068,0.063,0.172,0.063,0.31c0,0.062,0.002,0.103,0.006,0.125v0.104v0.116v1.051c0,0.368-0.039,0.656-0.117,0.864
		c-0.082,0.203-0.239,0.419-0.469,0.648c0.433-0.179,0.873-0.296,1.32-0.352v-2.21v-0.117c0-0.102,0.002-0.178,0.006-0.229
		c0-0.138,0.025-0.247,0.076-0.324c0.041-0.069,0.138-0.158,0.289-0.263L71.532,65.152z"/>
	<path fill="#FFFFFF" stroke="#FFFFFF" d="M76.942,64.572H75.74v2.839c0,0.387,0.025,0.682,0.076,0.884
		c0.051,0.198,0.143,0.371,0.276,0.519c0.236,0.249,0.599,0.413,1.093,0.49v0.215H72.79v-0.215c0.494-0.082,0.855-0.274,1.084-0.573
		c0.175-0.225,0.263-0.665,0.263-1.319v-5.217c0-0.429-0.022-0.731-0.068-0.911c-0.051-0.199-0.135-0.359-0.256-0.484
		c-0.221-0.245-0.562-0.409-1.022-0.497v-0.214c0.042,0.005,0.099,0.007,0.173,0.007l0.608,0.034
		c0.245,0.015,0.527,0.021,0.85,0.021c0.512,0,0.974-0.021,1.388-0.062l0.967-0.082c0.304-0.028,0.603-0.043,0.898-0.043
		c0.543,0,1.029,0.057,1.458,0.166c0.424,0.111,0.785,0.27,1.084,0.478c0.294,0.206,0.522,0.46,0.683,0.759
		c0.162,0.31,0.242,0.648,0.242,1.016c0,0.622-0.211,1.107-0.635,1.451c-0.424,0.346-1.055,0.552-1.894,0.615
		c0.516,0.198,0.953,0.475,1.312,0.828c0.359,0.356,0.783,0.93,1.271,1.729c0.571,0.907,1.011,1.528,1.32,1.864
		c0.327,0.355,0.685,0.604,1.071,0.747v0.193c-0.488-0.004-0.915-0.051-1.278-0.138c-0.36-0.083-0.711-0.23-1.057-0.442
		c-0.443-0.271-0.854-0.638-1.238-1.1c-0.392-0.465-0.73-0.991-1.015-1.581l-0.366-0.767c-0.167-0.347-0.32-0.609-0.463-0.788
		c-0.129-0.161-0.288-0.272-0.476-0.332C77.516,64.601,77.264,64.572,76.942,64.572z M74.027,68.966l-0.271,0.2h2.017l-0.27-0.2
		c-0.156-0.115-0.254-0.208-0.297-0.277c-0.045-0.065-0.068-0.168-0.068-0.312v-0.15c-0.004-0.015-0.006-0.04-0.006-0.076v-0.118
		v-6.459v-0.117c0-0.038,0.002-0.065,0.006-0.082v-0.146c0-0.129,0.021-0.227,0.062-0.295c0.028-0.061,0.113-0.146,0.256-0.257
		l0.047-0.033l0.387-0.297l-0.248,0.014c-0.418,0.027-0.796,0.041-1.132,0.041c-0.207,0-0.492-0.006-0.85-0.02l0.367,0.262
		c0.152,0.106,0.25,0.193,0.297,0.261c0.045,0.074,0.068,0.183,0.068,0.326c0.004,0.051,0.006,0.128,0.006,0.227v0.118v6.459v0.117
		c0,0.103-0.002,0.178-0.006,0.229c0,0.143-0.021,0.247-0.062,0.312C74.293,68.748,74.192,68.841,74.027,68.966z M75.74,61.899
		v2.396h1.236c0.714,0,1.228-0.08,1.542-0.241c0.285-0.147,0.506-0.371,0.663-0.671c0.157-0.293,0.234-0.64,0.234-1.035
		c0-0.406-0.092-0.77-0.275-1.093c-0.185-0.317-0.445-0.567-0.781-0.752c-0.34-0.176-0.723-0.263-1.146-0.263
		c-0.635,0-1.064,0.198-1.285,0.595C75.802,61.06,75.74,61.414,75.74,61.899z M82.794,69.524c-0.24-0.129-0.438-0.25-0.594-0.366
		c-0.17-0.124-0.348-0.278-0.533-0.463c-0.229-0.244-0.416-0.467-0.56-0.67c-0.152-0.203-0.379-0.556-0.678-1.058
		c-0.313-0.516-0.578-0.915-0.794-1.195c-0.244-0.309-0.483-0.553-0.719-0.731c-0.244-0.191-0.508-0.342-0.794-0.457
		c0.189,0.185,0.341,0.371,0.456,0.56c0.079,0.129,0.193,0.343,0.345,0.643c0.027,0.047,0.059,0.102,0.093,0.166
		s0.054,0.105,0.058,0.118c0.015,0.026,0.06,0.122,0.138,0.29c0.494,0.964,1.023,1.692,1.589,2.19
		C81.37,69.053,82.034,69.378,82.794,69.524z M78.434,64.322c0.318-0.067,0.601-0.167,0.85-0.296
		c0.258-0.134,0.468-0.282,0.629-0.443c0.171-0.169,0.3-0.357,0.386-0.564c0.088-0.206,0.131-0.429,0.131-0.664
		c0-0.502-0.18-0.938-0.539-1.312c-0.36-0.373-0.834-0.611-1.423-0.72c0.271,0.149,0.493,0.319,0.664,0.513
		c0.183,0.207,0.32,0.43,0.407,0.669c0.092,0.263,0.138,0.536,0.138,0.815c0,0.508-0.099,0.918-0.297,1.231
		C79.183,63.871,78.867,64.13,78.434,64.322z"/>
	<path fill="#FFFFFF" stroke="#FFFFFF" d="M90.73,67.777l-0.767-1.746h-3.558l-0.387,0.882c-0.185,0.43-0.276,0.786-0.276,1.07
		c0,0.235,0.056,0.44,0.166,0.616c0.101,0.169,0.262,0.313,0.484,0.428c0.211,0.114,0.492,0.207,0.842,0.276v0.215H83.65v-0.208
		c0.428-0.143,0.801-0.4,1.119-0.773c0.304-0.359,0.631-0.932,0.981-1.721l3.054-6.908h0.18l3.323,7.469
		c0.019,0.015,0.027,0.024,0.027,0.034c0.014,0.037,0.023,0.059,0.027,0.068c0.004,0.014,0.017,0.039,0.035,0.075l0.303,0.629
		c0.167,0.337,0.355,0.589,0.566,0.76s0.476,0.291,0.795,0.359v0.215h-4.408v-0.215c0.383-0.028,0.65-0.07,0.802-0.132
		c0.332-0.123,0.497-0.339,0.497-0.649C90.953,68.375,90.879,68.127,90.73,67.777z M84.492,69.166h1.402
		c-0.156-0.185-0.267-0.355-0.332-0.512c-0.065-0.152-0.096-0.313-0.096-0.484c0-0.091,0.002-0.153,0.006-0.187
		c-0.147,0.287-0.287,0.508-0.42,0.664C84.915,68.817,84.728,68.991,84.492,69.166z M86.53,65.739h3.302l-1.665-3.751L86.53,65.739z
		 M88.707,60.785l-0.394,0.905l2.66,5.989l0.069,0.152c0.142,0.304,0.213,0.53,0.213,0.676c0,0.199-0.113,0.419-0.338,0.657h1.824
		c-0.211-0.198-0.391-0.422-0.539-0.67c-0.166-0.267-0.344-0.616-0.532-1.044L88.707,60.785z"/>
	<path fill="#FFFFFF" stroke="#FFFFFF" d="M104.113,62.567v7.171h-0.208l-7.585-8.075l0.007,4.636c0,0.529,0.029,0.942,0.09,1.242
		c0.065,0.309,0.162,0.578,0.291,0.809c0.309,0.502,0.818,0.819,1.527,0.953v0.215h-3.614v-0.215
		c0.623-0.23,1.037-0.665,1.244-1.307c0.074-0.202,0.124-0.437,0.152-0.704c0.027-0.256,0.041-0.579,0.041-0.966v-4.948
		c-0.368-0.373-0.646-0.626-0.829-0.759c-0.188-0.134-0.41-0.241-0.664-0.318v-0.214h2.681c0.111,0.194,0.23,0.37,0.359,0.524
		c0.022,0.014,0.074,0.07,0.152,0.165c0.027,0.032,0.054,0.064,0.079,0.094c0.025,0.029,0.046,0.057,0.059,0.08
		c0.033,0.032,0.059,0.06,0.079,0.083c0.021,0.022,0.034,0.038,0.038,0.047l5.838,6.238v-4.753c0-0.478-0.061-0.878-0.18-1.196
		c-0.119-0.303-0.311-0.542-0.573-0.718c-0.263-0.175-0.608-0.292-1.036-0.352v-0.214h3.295V60.3
		c-0.492,0.134-0.822,0.354-0.988,0.663C104.197,61.274,104.113,61.809,104.113,62.567z M96.279,61.222l7.571,8.082v-1.085
		l-6.48-6.922c-0.299-0.312-0.537-0.628-0.712-0.946H95.25C95.577,60.544,95.92,60.834,96.279,61.222z M95.374,69.166h1.41
		c-0.184-0.198-0.322-0.376-0.414-0.531c-0.097-0.144-0.187-0.328-0.269-0.554c-0.097,0.249-0.192,0.441-0.283,0.581
		C95.715,68.817,95.567,68.985,95.374,69.166z M104.333,60.351h-1.327c0.222,0.11,0.39,0.224,0.506,0.339
		c0.114,0.114,0.229,0.284,0.339,0.504c0.082-0.22,0.152-0.381,0.207-0.477C104.122,60.606,104.215,60.484,104.333,60.351z"/>
	<path fill="#FFFFFF" stroke="#FFFFFF" d="M106.158,64.812c0-0.663,0.129-1.3,0.387-1.913c0.252-0.604,0.612-1.139,1.078-1.604
		c0.451-0.451,0.979-0.807,1.589-1.063c0.604-0.248,1.236-0.373,1.899-0.373c0.895,0,1.721,0.221,2.48,0.663
		c0.754,0.451,1.355,1.055,1.803,1.81c0.441,0.76,0.662,1.587,0.662,2.479c0,0.659-0.124,1.29-0.374,1.894
		c-0.257,0.608-0.614,1.14-1.069,1.597c-0.456,0.455-0.983,0.812-1.583,1.07c-0.598,0.257-1.231,0.386-1.898,0.386
		c-0.908,0-1.74-0.221-2.503-0.663c-0.765-0.441-1.366-1.042-1.809-1.803C106.38,66.538,106.158,65.71,106.158,64.812z
		 M109.025,69.062c-0.405-0.305-0.744-0.663-1.016-1.079c-0.276-0.418-0.478-0.896-0.609-1.429
		c-0.138-0.548-0.206-1.146-0.206-1.788c0-0.963,0.147-1.78,0.441-2.454c0.294-0.676,0.758-1.252,1.39-1.728
		c-0.549,0.295-1.017,0.655-1.402,1.078c-0.396,0.429-0.695,0.906-0.892,1.438c-0.207,0.529-0.312,1.098-0.312,1.705
		c0,0.6,0.104,1.165,0.312,1.699c0.197,0.534,0.495,1.021,0.892,1.459C108.01,68.396,108.479,68.763,109.025,69.062z M107.9,64.766
		c0,0.677,0.075,1.303,0.227,1.879c0.148,0.569,0.366,1.062,0.656,1.477c0.291,0.421,0.631,0.732,1.021,0.939
		c0.396,0.217,0.837,0.324,1.32,0.324c0.792,0,1.48-0.312,2.064-0.939c0.356-0.382,0.634-0.891,0.837-1.526
		c0.192-0.631,0.29-1.351,0.29-2.162c0-0.7-0.073-1.339-0.221-1.92c-0.153-0.571-0.366-1.059-0.644-1.459
		c-0.29-0.41-0.625-0.718-1.008-0.926c-0.396-0.216-0.841-0.325-1.333-0.325c-0.483,0-0.924,0.109-1.319,0.325
		c-0.396,0.221-0.736,0.534-1.017,0.939c-0.277,0.4-0.492,0.894-0.65,1.479C107.976,63.452,107.9,64.083,107.9,64.766z
		 M112.819,69.068c1.686-0.976,2.526-2.395,2.526-4.256c0-0.608-0.091-1.181-0.276-1.72c-0.179-0.529-0.443-1.017-0.793-1.458
		c-0.346-0.424-0.748-0.763-1.209-1.016c1.009,0.884,1.514,2.261,1.514,4.131c0,0.549-0.049,1.071-0.145,1.567
		c-0.102,0.504-0.241,0.939-0.415,1.312c-0.107,0.223-0.2,0.39-0.283,0.506c-0.115,0.16-0.241,0.308-0.375,0.441
		C113.226,68.727,113.043,68.89,112.819,69.068z"/>
	<path fill="#FFFFFF" stroke="#FFFFFF" d="M116.895,60.088h4.441v0.214c-0.557,0.083-0.957,0.272-1.194,0.565
		c-0.112,0.13-0.188,0.295-0.229,0.498c-0.047,0.189-0.069,0.466-0.069,0.829v5.271c0,0.34,0.022,0.612,0.062,0.815
		c0.032,0.193,0.102,0.356,0.207,0.489c0.206,0.263,0.602,0.395,1.182,0.395h0.146c0.308,0,0.609-0.049,0.904-0.146
		c0.29-0.088,0.593-0.24,0.905-0.456c0.304-0.207,0.614-0.471,0.933-0.788c0.327-0.337,0.648-0.712,0.968-1.125h0.214l-0.829,2.867
		h-7.641v-0.215c0.491-0.083,0.854-0.274,1.084-0.572c0.174-0.227,0.263-0.666,0.263-1.319v-5.218c0-0.428-0.022-0.732-0.069-0.913
		c-0.051-0.197-0.136-0.357-0.256-0.482c-0.226-0.252-0.566-0.42-1.021-0.497V60.088L116.895,60.088z M118.131,68.966l-0.27,0.2
		h2.016l-0.27-0.2c-0.156-0.115-0.254-0.208-0.296-0.277c-0.046-0.065-0.068-0.168-0.068-0.312v-0.15
		c-0.004-0.015-0.006-0.04-0.006-0.076v-0.118v-6.459v-0.117c0-0.038,0.002-0.065,0.006-0.082v-0.146
		c0-0.138,0.024-0.247,0.075-0.324c0.042-0.068,0.139-0.156,0.292-0.263l0.394-0.29h-2.26l0.387,0.29
		c0.159,0.12,0.261,0.209,0.304,0.27c0.04,0.061,0.062,0.166,0.062,0.317c0.004,0.051,0.006,0.127,0.006,0.229v0.117v6.459v0.118
		c0,0.102-0.002,0.178-0.006,0.227c0,0.144-0.022,0.248-0.062,0.312C118.397,68.748,118.297,68.841,118.131,68.966z M122.809,69.166
		h1.237l0.372-1.287C123.971,68.419,123.434,68.848,122.809,69.166z"/>
	<path fill="#FFFFFF" stroke="#FFFFFF" d="M132.321,67.777l-0.767-1.746h-3.559l-0.386,0.882c-0.185,0.43-0.277,0.786-0.277,1.07
		c0,0.235,0.057,0.44,0.165,0.616c0.102,0.169,0.263,0.313,0.484,0.428c0.211,0.114,0.492,0.207,0.842,0.276v0.215h-3.585v-0.208
		c0.429-0.143,0.801-0.4,1.118-0.773c0.304-0.359,0.632-0.932,0.979-1.721l3.055-6.908h0.179l3.323,7.469
		c0.019,0.015,0.027,0.024,0.027,0.034c0.015,0.037,0.023,0.059,0.027,0.068c0.004,0.014,0.017,0.039,0.034,0.075l0.305,0.629
		c0.164,0.337,0.353,0.589,0.565,0.76c0.21,0.171,0.477,0.291,0.795,0.359v0.215h-4.408v-0.215c0.383-0.028,0.65-0.07,0.801-0.132
		c0.332-0.123,0.497-0.339,0.497-0.649C132.542,68.375,132.469,68.127,132.321,67.777z M126.082,69.166h1.402
		c-0.155-0.185-0.267-0.355-0.331-0.512c-0.066-0.152-0.098-0.313-0.098-0.484c0-0.091,0.002-0.153,0.006-0.187
		c-0.146,0.287-0.286,0.508-0.42,0.664C126.504,68.817,126.317,68.991,126.082,69.166z M128.121,65.739h3.303l-1.666-3.751
		L128.121,65.739z M130.297,60.785l-0.395,0.905l2.66,5.989l0.069,0.152c0.143,0.304,0.213,0.53,0.213,0.676
		c0,0.199-0.112,0.419-0.338,0.657h1.825c-0.212-0.198-0.393-0.422-0.54-0.67c-0.166-0.267-0.343-0.616-0.532-1.044L130.297,60.785z
		"/>
</g>
<polyline fill="none" stroke="#FFFFFF" points="46.244,49.03 17.596,49.056 33.773,67.549 17.596,86.863 58.1,86.81 46.349,77.598 
	46.349,41.085 150.451,41.085 150.451,77.598 139.193,86.81 179.914,86.863 163.738,67.549 179.914,49.056 150.143,49.14 "/>
<line fill="none" stroke="#FFFFFF" x1="46.705" y1="77.598" x2="150.808" y2="77.598"/>
<circle fill="none" stroke="#FFFFFF" cx="98.756" cy="54.667" r="41.281"/>
</svg>
